G04 #@! TF.GenerationSoftware,KiCad,Pcbnew,(5.1.9)-1*
G04 #@! TF.CreationDate,2021-03-08T10:33:43+01:00*
G04 #@! TF.ProjectId,FIGS,46494753-2e6b-4696-9361-645f70636258,1x*
G04 #@! TF.SameCoordinates,Original*
G04 #@! TF.FileFunction,Legend,Bot*
G04 #@! TF.FilePolarity,Positive*
%FSLAX46Y46*%
G04 Gerber Fmt 4.6, Leading zero omitted, Abs format (unit mm)*
G04 Created by KiCad (PCBNEW (5.1.9)-1) date 2021-03-08 10:33:43*
%MOMM*%
%LPD*%
G01*
G04 APERTURE LIST*
%ADD10C,0.120000*%
%ADD11C,0.200000*%
%ADD12C,0.150000*%
%ADD13C,0.254000*%
G04 APERTURE END LIST*
D10*
G04 #@! TO.C,R2*
X59630000Y-58722936D02*
X59630000Y-60177064D01*
X61450000Y-58722936D02*
X61450000Y-60177064D01*
G04 #@! TO.C,R1*
X62920000Y-58722936D02*
X62920000Y-60177064D01*
X64740000Y-58722936D02*
X64740000Y-60177064D01*
G04 #@! TO.C,C11*
X45726000Y-72920000D02*
X53761000Y-72920000D01*
X53761000Y-72920000D02*
X53761000Y-76940000D01*
X53761000Y-76940000D02*
X45726000Y-76940000D01*
G04 #@! TO.C,C4*
X45698000Y-81286000D02*
X45698000Y-89321000D01*
X45698000Y-89321000D02*
X41678000Y-89321000D01*
X41678000Y-89321000D02*
X41678000Y-81286000D01*
D11*
G04 #@! TO.C,U1*
X55320000Y-83894000D02*
X55320000Y-80394000D01*
X55320000Y-80394000D02*
X48820000Y-80394000D01*
X48820000Y-80394000D02*
X48820000Y-83894000D01*
X48820000Y-83894000D02*
X55320000Y-83894000D01*
X55195000Y-86169000D02*
X55195000Y-84419000D01*
D10*
G04 #@! TO.C,R26*
X78090000Y-46227064D02*
X78090000Y-44772936D01*
X79910000Y-46227064D02*
X79910000Y-44772936D01*
G04 #@! TO.C,R24*
X70727064Y-26910000D02*
X69272936Y-26910000D01*
X70727064Y-25090000D02*
X69272936Y-25090000D01*
G04 #@! TO.C,R20*
X78090000Y-55227064D02*
X78090000Y-53772936D01*
X79910000Y-55227064D02*
X79910000Y-53772936D01*
G04 #@! TO.C,R18*
X79727064Y-26910000D02*
X78272936Y-26910000D01*
X79727064Y-25090000D02*
X78272936Y-25090000D01*
G04 #@! TO.C,R14*
X35848936Y-59288000D02*
X37303064Y-59288000D01*
X35848936Y-61108000D02*
X37303064Y-61108000D01*
G04 #@! TO.C,R11*
X35822936Y-56748000D02*
X37277064Y-56748000D01*
X35822936Y-58568000D02*
X37277064Y-58568000D01*
G04 #@! TO.C,D7*
X37424000Y-71056000D02*
X37424000Y-67226000D01*
X39284000Y-71056000D02*
X37424000Y-71056000D01*
X39284000Y-67226000D02*
X39284000Y-71056000D01*
G04 #@! TO.C,C7*
X46509000Y-83319252D02*
X46509000Y-82796748D01*
X47979000Y-83319252D02*
X47979000Y-82796748D01*
G04 #@! TO.C,C6*
X60952748Y-48795000D02*
X61475252Y-48795000D01*
X60952748Y-50265000D02*
X61475252Y-50265000D01*
G04 #@! TO.C,C5*
X57665252Y-50265000D02*
X57142748Y-50265000D01*
X57665252Y-48795000D02*
X57142748Y-48795000D01*
G04 #@! TO.C,C3*
X60952748Y-46763000D02*
X61475252Y-46763000D01*
X60952748Y-48233000D02*
X61475252Y-48233000D01*
G04 #@! TO.C,C2*
X57665252Y-48233000D02*
X57142748Y-48233000D01*
X57665252Y-46763000D02*
X57142748Y-46763000D01*
G04 #@! TO.C,C1*
X57665252Y-54837000D02*
X57142748Y-54837000D01*
X57665252Y-53367000D02*
X57142748Y-53367000D01*
G04 #@! TO.C,R2*
D12*
X59172380Y-59283333D02*
X58696190Y-58950000D01*
X59172380Y-58711904D02*
X58172380Y-58711904D01*
X58172380Y-59092857D01*
X58220000Y-59188095D01*
X58267619Y-59235714D01*
X58362857Y-59283333D01*
X58505714Y-59283333D01*
X58600952Y-59235714D01*
X58648571Y-59188095D01*
X58696190Y-59092857D01*
X58696190Y-58711904D01*
X58267619Y-59664285D02*
X58220000Y-59711904D01*
X58172380Y-59807142D01*
X58172380Y-60045238D01*
X58220000Y-60140476D01*
X58267619Y-60188095D01*
X58362857Y-60235714D01*
X58458095Y-60235714D01*
X58600952Y-60188095D01*
X59172380Y-59616666D01*
X59172380Y-60235714D01*
G04 #@! TO.C,R1*
X62462380Y-59283333D02*
X61986190Y-58950000D01*
X62462380Y-58711904D02*
X61462380Y-58711904D01*
X61462380Y-59092857D01*
X61510000Y-59188095D01*
X61557619Y-59235714D01*
X61652857Y-59283333D01*
X61795714Y-59283333D01*
X61890952Y-59235714D01*
X61938571Y-59188095D01*
X61986190Y-59092857D01*
X61986190Y-58711904D01*
X62462380Y-60235714D02*
X62462380Y-59664285D01*
X62462380Y-59950000D02*
X61462380Y-59950000D01*
X61605238Y-59854761D01*
X61700476Y-59759523D01*
X61748095Y-59664285D01*
G04 #@! TO.C,C11*
X49918857Y-72587142D02*
X49966476Y-72634761D01*
X50109333Y-72682380D01*
X50204571Y-72682380D01*
X50347428Y-72634761D01*
X50442666Y-72539523D01*
X50490285Y-72444285D01*
X50537904Y-72253809D01*
X50537904Y-72110952D01*
X50490285Y-71920476D01*
X50442666Y-71825238D01*
X50347428Y-71730000D01*
X50204571Y-71682380D01*
X50109333Y-71682380D01*
X49966476Y-71730000D01*
X49918857Y-71777619D01*
X48966476Y-72682380D02*
X49537904Y-72682380D01*
X49252190Y-72682380D02*
X49252190Y-71682380D01*
X49347428Y-71825238D01*
X49442666Y-71920476D01*
X49537904Y-71968095D01*
X48014095Y-72682380D02*
X48585523Y-72682380D01*
X48299809Y-72682380D02*
X48299809Y-71682380D01*
X48395047Y-71825238D01*
X48490285Y-71920476D01*
X48585523Y-71968095D01*
G04 #@! TO.C,C4*
X46745142Y-84669333D02*
X46792761Y-84621714D01*
X46840380Y-84478857D01*
X46840380Y-84383619D01*
X46792761Y-84240761D01*
X46697523Y-84145523D01*
X46602285Y-84097904D01*
X46411809Y-84050285D01*
X46268952Y-84050285D01*
X46078476Y-84097904D01*
X45983238Y-84145523D01*
X45888000Y-84240761D01*
X45840380Y-84383619D01*
X45840380Y-84478857D01*
X45888000Y-84621714D01*
X45935619Y-84669333D01*
X46173714Y-85526476D02*
X46840380Y-85526476D01*
X45792761Y-85288380D02*
X46507047Y-85050285D01*
X46507047Y-85669333D01*
G04 #@! TO.C,U1*
D13*
X51374523Y-81227180D02*
X52402619Y-81227180D01*
X52523571Y-81287657D01*
X52584047Y-81348133D01*
X52644523Y-81469085D01*
X52644523Y-81710990D01*
X52584047Y-81831942D01*
X52523571Y-81892419D01*
X52402619Y-81952895D01*
X51374523Y-81952895D01*
X52644523Y-83222895D02*
X52644523Y-82497180D01*
X52644523Y-82860038D02*
X51374523Y-82860038D01*
X51555952Y-82739085D01*
X51676904Y-82618133D01*
X51737380Y-82497180D01*
G04 #@! TO.C,R26*
D12*
X79642857Y-45926380D02*
X79976190Y-45450190D01*
X80214285Y-45926380D02*
X80214285Y-44926380D01*
X79833333Y-44926380D01*
X79738095Y-44974000D01*
X79690476Y-45021619D01*
X79642857Y-45116857D01*
X79642857Y-45259714D01*
X79690476Y-45354952D01*
X79738095Y-45402571D01*
X79833333Y-45450190D01*
X80214285Y-45450190D01*
X79261904Y-45021619D02*
X79214285Y-44974000D01*
X79119047Y-44926380D01*
X78880952Y-44926380D01*
X78785714Y-44974000D01*
X78738095Y-45021619D01*
X78690476Y-45116857D01*
X78690476Y-45212095D01*
X78738095Y-45354952D01*
X79309523Y-45926380D01*
X78690476Y-45926380D01*
X77833333Y-44926380D02*
X78023809Y-44926380D01*
X78119047Y-44974000D01*
X78166666Y-45021619D01*
X78261904Y-45164476D01*
X78309523Y-45354952D01*
X78309523Y-45735904D01*
X78261904Y-45831142D01*
X78214285Y-45878761D01*
X78119047Y-45926380D01*
X77928571Y-45926380D01*
X77833333Y-45878761D01*
X77785714Y-45831142D01*
X77738095Y-45735904D01*
X77738095Y-45497809D01*
X77785714Y-45402571D01*
X77833333Y-45354952D01*
X77928571Y-45307333D01*
X78119047Y-45307333D01*
X78214285Y-45354952D01*
X78261904Y-45402571D01*
X78309523Y-45497809D01*
G04 #@! TO.C,R24*
X69547619Y-26642857D02*
X70023809Y-26976190D01*
X69547619Y-27214285D02*
X70547619Y-27214285D01*
X70547619Y-26833333D01*
X70500000Y-26738095D01*
X70452380Y-26690476D01*
X70357142Y-26642857D01*
X70214285Y-26642857D01*
X70119047Y-26690476D01*
X70071428Y-26738095D01*
X70023809Y-26833333D01*
X70023809Y-27214285D01*
X70452380Y-26261904D02*
X70500000Y-26214285D01*
X70547619Y-26119047D01*
X70547619Y-25880952D01*
X70500000Y-25785714D01*
X70452380Y-25738095D01*
X70357142Y-25690476D01*
X70261904Y-25690476D01*
X70119047Y-25738095D01*
X69547619Y-26309523D01*
X69547619Y-25690476D01*
X70214285Y-24833333D02*
X69547619Y-24833333D01*
X70595238Y-25071428D02*
X69880952Y-25309523D01*
X69880952Y-24690476D01*
G04 #@! TO.C,R20*
X79642857Y-54926380D02*
X79976190Y-54450190D01*
X80214285Y-54926380D02*
X80214285Y-53926380D01*
X79833333Y-53926380D01*
X79738095Y-53974000D01*
X79690476Y-54021619D01*
X79642857Y-54116857D01*
X79642857Y-54259714D01*
X79690476Y-54354952D01*
X79738095Y-54402571D01*
X79833333Y-54450190D01*
X80214285Y-54450190D01*
X79261904Y-54021619D02*
X79214285Y-53974000D01*
X79119047Y-53926380D01*
X78880952Y-53926380D01*
X78785714Y-53974000D01*
X78738095Y-54021619D01*
X78690476Y-54116857D01*
X78690476Y-54212095D01*
X78738095Y-54354952D01*
X79309523Y-54926380D01*
X78690476Y-54926380D01*
X78071428Y-53926380D02*
X77976190Y-53926380D01*
X77880952Y-53974000D01*
X77833333Y-54021619D01*
X77785714Y-54116857D01*
X77738095Y-54307333D01*
X77738095Y-54545428D01*
X77785714Y-54735904D01*
X77833333Y-54831142D01*
X77880952Y-54878761D01*
X77976190Y-54926380D01*
X78071428Y-54926380D01*
X78166666Y-54878761D01*
X78214285Y-54831142D01*
X78261904Y-54735904D01*
X78309523Y-54545428D01*
X78309523Y-54307333D01*
X78261904Y-54116857D01*
X78214285Y-54021619D01*
X78166666Y-53974000D01*
X78071428Y-53926380D01*
G04 #@! TO.C,R18*
X79452380Y-25357142D02*
X78976190Y-25023809D01*
X79452380Y-24785714D02*
X78452380Y-24785714D01*
X78452380Y-25166666D01*
X78500000Y-25261904D01*
X78547619Y-25309523D01*
X78642857Y-25357142D01*
X78785714Y-25357142D01*
X78880952Y-25309523D01*
X78928571Y-25261904D01*
X78976190Y-25166666D01*
X78976190Y-24785714D01*
X79452380Y-26309523D02*
X79452380Y-25738095D01*
X79452380Y-26023809D02*
X78452380Y-26023809D01*
X78595238Y-25928571D01*
X78690476Y-25833333D01*
X78738095Y-25738095D01*
X78880952Y-26880952D02*
X78833333Y-26785714D01*
X78785714Y-26738095D01*
X78690476Y-26690476D01*
X78642857Y-26690476D01*
X78547619Y-26738095D01*
X78500000Y-26785714D01*
X78452380Y-26880952D01*
X78452380Y-27071428D01*
X78500000Y-27166666D01*
X78547619Y-27214285D01*
X78642857Y-27261904D01*
X78690476Y-27261904D01*
X78785714Y-27214285D01*
X78833333Y-27166666D01*
X78880952Y-27071428D01*
X78880952Y-26880952D01*
X78928571Y-26785714D01*
X78976190Y-26738095D01*
X79071428Y-26690476D01*
X79261904Y-26690476D01*
X79357142Y-26738095D01*
X79404761Y-26785714D01*
X79452380Y-26880952D01*
X79452380Y-27071428D01*
X79404761Y-27166666D01*
X79357142Y-27214285D01*
X79261904Y-27261904D01*
X79071428Y-27261904D01*
X78976190Y-27214285D01*
X78928571Y-27166666D01*
X78880952Y-27071428D01*
G04 #@! TO.C,R14*
X33266617Y-61524380D02*
X33599950Y-61048190D01*
X33838045Y-61524380D02*
X33838045Y-60524380D01*
X33457093Y-60524380D01*
X33361855Y-60572000D01*
X33314236Y-60619619D01*
X33266617Y-60714857D01*
X33266617Y-60857714D01*
X33314236Y-60952952D01*
X33361855Y-61000571D01*
X33457093Y-61048190D01*
X33838045Y-61048190D01*
X32314236Y-61524380D02*
X32885664Y-61524380D01*
X32599950Y-61524380D02*
X32599950Y-60524380D01*
X32695188Y-60667238D01*
X32790426Y-60762476D01*
X32885664Y-60810095D01*
X31457093Y-60857714D02*
X31457093Y-61524380D01*
X31695188Y-60476761D02*
X31933283Y-61191047D01*
X31314236Y-61191047D01*
G04 #@! TO.C,R11*
X35780617Y-56126380D02*
X36113950Y-55650190D01*
X36352045Y-56126380D02*
X36352045Y-55126380D01*
X35971093Y-55126380D01*
X35875855Y-55174000D01*
X35828236Y-55221619D01*
X35780617Y-55316857D01*
X35780617Y-55459714D01*
X35828236Y-55554952D01*
X35875855Y-55602571D01*
X35971093Y-55650190D01*
X36352045Y-55650190D01*
X34828236Y-56126380D02*
X35399664Y-56126380D01*
X35113950Y-56126380D02*
X35113950Y-55126380D01*
X35209188Y-55269238D01*
X35304426Y-55364476D01*
X35399664Y-55412095D01*
X33875855Y-56126380D02*
X34447283Y-56126380D01*
X34161569Y-56126380D02*
X34161569Y-55126380D01*
X34256807Y-55269238D01*
X34352045Y-55364476D01*
X34447283Y-55412095D01*
G04 #@! TO.C,D7*
X39244616Y-63629407D02*
X38244616Y-63629407D01*
X38244616Y-63867503D01*
X38292236Y-64010360D01*
X38387474Y-64105598D01*
X38482712Y-64153217D01*
X38673188Y-64200836D01*
X38816045Y-64200836D01*
X39006521Y-64153217D01*
X39101759Y-64105598D01*
X39196997Y-64010360D01*
X39244616Y-63867503D01*
X39244616Y-63629407D01*
X38244616Y-64534169D02*
X38244616Y-65200836D01*
X39244616Y-64772264D01*
G04 #@! TO.C,C7*
X45823142Y-82891333D02*
X45870761Y-82843714D01*
X45918380Y-82700857D01*
X45918380Y-82605619D01*
X45870761Y-82462761D01*
X45775523Y-82367523D01*
X45680285Y-82319904D01*
X45489809Y-82272285D01*
X45346952Y-82272285D01*
X45156476Y-82319904D01*
X45061238Y-82367523D01*
X44966000Y-82462761D01*
X44918380Y-82605619D01*
X44918380Y-82700857D01*
X44966000Y-82843714D01*
X45013619Y-82891333D01*
X44918380Y-83224666D02*
X44918380Y-83891333D01*
X45918380Y-83462761D01*
G04 #@! TO.C,C6*
X64487835Y-49905103D02*
X64535454Y-49952722D01*
X64678311Y-50000341D01*
X64773549Y-50000341D01*
X64916407Y-49952722D01*
X65011645Y-49857484D01*
X65059264Y-49762246D01*
X65106883Y-49571770D01*
X65106883Y-49428913D01*
X65059264Y-49238437D01*
X65011645Y-49143199D01*
X64916407Y-49047961D01*
X64773549Y-49000341D01*
X64678311Y-49000341D01*
X64535454Y-49047961D01*
X64487835Y-49095580D01*
X63630692Y-49000341D02*
X63821169Y-49000341D01*
X63916407Y-49047961D01*
X63964026Y-49095580D01*
X64059264Y-49238437D01*
X64106883Y-49428913D01*
X64106883Y-49809865D01*
X64059264Y-49905103D01*
X64011645Y-49952722D01*
X63916407Y-50000341D01*
X63725930Y-50000341D01*
X63630692Y-49952722D01*
X63583073Y-49905103D01*
X63535454Y-49809865D01*
X63535454Y-49571770D01*
X63583073Y-49476532D01*
X63630692Y-49428913D01*
X63725930Y-49381294D01*
X63916407Y-49381294D01*
X64011645Y-49428913D01*
X64059264Y-49476532D01*
X64106883Y-49571770D01*
G04 #@! TO.C,C5*
X57593053Y-51610517D02*
X57640672Y-51658136D01*
X57783529Y-51705755D01*
X57878767Y-51705755D01*
X58021625Y-51658136D01*
X58116863Y-51562898D01*
X58164482Y-51467660D01*
X58212101Y-51277184D01*
X58212101Y-51134327D01*
X58164482Y-50943851D01*
X58116863Y-50848613D01*
X58021625Y-50753375D01*
X57878767Y-50705755D01*
X57783529Y-50705755D01*
X57640672Y-50753375D01*
X57593053Y-50800994D01*
X56688291Y-50705755D02*
X57164482Y-50705755D01*
X57212101Y-51181946D01*
X57164482Y-51134327D01*
X57069244Y-51086708D01*
X56831148Y-51086708D01*
X56735910Y-51134327D01*
X56688291Y-51181946D01*
X56640672Y-51277184D01*
X56640672Y-51515279D01*
X56688291Y-51610517D01*
X56735910Y-51658136D01*
X56831148Y-51705755D01*
X57069244Y-51705755D01*
X57164482Y-51658136D01*
X57212101Y-51610517D01*
G04 #@! TO.C,C3*
X64326190Y-47855142D02*
X64373809Y-47902761D01*
X64516666Y-47950380D01*
X64611904Y-47950380D01*
X64754762Y-47902761D01*
X64850000Y-47807523D01*
X64897619Y-47712285D01*
X64945238Y-47521809D01*
X64945238Y-47378952D01*
X64897619Y-47188476D01*
X64850000Y-47093238D01*
X64754762Y-46998000D01*
X64611904Y-46950380D01*
X64516666Y-46950380D01*
X64373809Y-46998000D01*
X64326190Y-47045619D01*
X63992857Y-46950380D02*
X63373809Y-46950380D01*
X63707143Y-47331333D01*
X63564285Y-47331333D01*
X63469047Y-47378952D01*
X63421428Y-47426571D01*
X63373809Y-47521809D01*
X63373809Y-47759904D01*
X63421428Y-47855142D01*
X63469047Y-47902761D01*
X63564285Y-47950380D01*
X63850000Y-47950380D01*
X63945238Y-47902761D01*
X63992857Y-47855142D01*
G04 #@! TO.C,C2*
X54485050Y-47980866D02*
X54532669Y-48028485D01*
X54675526Y-48076104D01*
X54770764Y-48076104D01*
X54913622Y-48028485D01*
X55008860Y-47933247D01*
X55056479Y-47838009D01*
X55104098Y-47647533D01*
X55104098Y-47504676D01*
X55056479Y-47314200D01*
X55008860Y-47218962D01*
X54913622Y-47123724D01*
X54770764Y-47076104D01*
X54675526Y-47076104D01*
X54532669Y-47123724D01*
X54485050Y-47171343D01*
X54104098Y-47171343D02*
X54056479Y-47123724D01*
X53961241Y-47076104D01*
X53723145Y-47076104D01*
X53627907Y-47123724D01*
X53580288Y-47171343D01*
X53532669Y-47266581D01*
X53532669Y-47361819D01*
X53580288Y-47504676D01*
X54151717Y-48076104D01*
X53532669Y-48076104D01*
G04 #@! TO.C,C1*
X57570666Y-52779143D02*
X57618285Y-52826762D01*
X57761142Y-52874381D01*
X57856380Y-52874381D01*
X57999238Y-52826762D01*
X58094476Y-52731524D01*
X58142095Y-52636286D01*
X58189714Y-52445810D01*
X58189714Y-52302953D01*
X58142095Y-52112477D01*
X58094476Y-52017239D01*
X57999238Y-51922001D01*
X57856380Y-51874381D01*
X57761142Y-51874381D01*
X57618285Y-51922001D01*
X57570666Y-51969620D01*
X56618285Y-52874381D02*
X57189714Y-52874381D01*
X56904000Y-52874381D02*
X56904000Y-51874381D01*
X56999238Y-52017239D01*
X57094476Y-52112477D01*
X57189714Y-52160096D01*
G04 #@! TD*
M02*
