%TF.GenerationSoftware,KiCad,Pcbnew,(5.1.9)-1*%
%TF.CreationDate,2021-03-05T00:07:22+01:00*%
%TF.ProjectId,FIGS,46494753-2e6b-4696-9361-645f70636258,1x*%
%TF.SameCoordinates,Original*%
%TF.FileFunction,Paste,Bot*%
%TF.FilePolarity,Positive*%
%FSLAX46Y46*%
G04 Gerber Fmt 4.6, Leading zero omitted, Abs format (unit mm)*
G04 Created by KiCad (PCBNEW (5.1.9)-1) date 2021-03-05 00:07:22*
%MOMM*%
%LPD*%
G01*
G04 APERTURE LIST*
%ADD10R,1.750000X3.200000*%
%ADD11R,1.750000X0.950000*%
%ADD12C,0.100000*%
G04 APERTURE END LIST*
D10*
%TO.C,U1*%
X43282000Y-45720000D03*
D11*
X36982000Y-43420000D03*
X36982000Y-45720000D03*
X36982000Y-48020000D03*
%TD*%
%TO.C,R15*%
G36*
G01*
X60288000Y-39761000D02*
X60288000Y-41011000D01*
G75*
G02*
X60038000Y-41261000I-250000J0D01*
G01*
X59238000Y-41261000D01*
G75*
G02*
X58988000Y-41011000I0J250000D01*
G01*
X58988000Y-39761000D01*
G75*
G02*
X59238000Y-39511000I250000J0D01*
G01*
X60038000Y-39511000D01*
G75*
G02*
X60288000Y-39761000I0J-250000D01*
G01*
G37*
G36*
G01*
X63388000Y-39761000D02*
X63388000Y-41011000D01*
G75*
G02*
X63138000Y-41261000I-250000J0D01*
G01*
X62338000Y-41261000D01*
G75*
G02*
X62088000Y-41011000I0J250000D01*
G01*
X62088000Y-39761000D01*
G75*
G02*
X62338000Y-39511000I250000J0D01*
G01*
X63138000Y-39511000D01*
G75*
G02*
X63388000Y-39761000I0J-250000D01*
G01*
G37*
%TD*%
%TO.C,R7*%
G36*
G01*
X45050000Y-58825000D02*
X45050000Y-57575000D01*
G75*
G02*
X45300000Y-57325000I250000J0D01*
G01*
X46100000Y-57325000D01*
G75*
G02*
X46350000Y-57575000I0J-250000D01*
G01*
X46350000Y-58825000D01*
G75*
G02*
X46100000Y-59075000I-250000J0D01*
G01*
X45300000Y-59075000D01*
G75*
G02*
X45050000Y-58825000I0J250000D01*
G01*
G37*
G36*
G01*
X41950000Y-58825000D02*
X41950000Y-57575000D01*
G75*
G02*
X42200000Y-57325000I250000J0D01*
G01*
X43000000Y-57325000D01*
G75*
G02*
X43250000Y-57575000I0J-250000D01*
G01*
X43250000Y-58825000D01*
G75*
G02*
X43000000Y-59075000I-250000J0D01*
G01*
X42200000Y-59075000D01*
G75*
G02*
X41950000Y-58825000I0J250000D01*
G01*
G37*
%TD*%
%TO.C,R5*%
G36*
G01*
X45050000Y-61625000D02*
X45050000Y-60375000D01*
G75*
G02*
X45300000Y-60125000I250000J0D01*
G01*
X46100000Y-60125000D01*
G75*
G02*
X46350000Y-60375000I0J-250000D01*
G01*
X46350000Y-61625000D01*
G75*
G02*
X46100000Y-61875000I-250000J0D01*
G01*
X45300000Y-61875000D01*
G75*
G02*
X45050000Y-61625000I0J250000D01*
G01*
G37*
G36*
G01*
X41950000Y-61625000D02*
X41950000Y-60375000D01*
G75*
G02*
X42200000Y-60125000I250000J0D01*
G01*
X43000000Y-60125000D01*
G75*
G02*
X43250000Y-60375000I0J-250000D01*
G01*
X43250000Y-61625000D01*
G75*
G02*
X43000000Y-61875000I-250000J0D01*
G01*
X42200000Y-61875000D01*
G75*
G02*
X41950000Y-61625000I0J250000D01*
G01*
G37*
%TD*%
%TO.C,R3*%
G36*
G01*
X45050000Y-64425000D02*
X45050000Y-63175000D01*
G75*
G02*
X45300000Y-62925000I250000J0D01*
G01*
X46100000Y-62925000D01*
G75*
G02*
X46350000Y-63175000I0J-250000D01*
G01*
X46350000Y-64425000D01*
G75*
G02*
X46100000Y-64675000I-250000J0D01*
G01*
X45300000Y-64675000D01*
G75*
G02*
X45050000Y-64425000I0J250000D01*
G01*
G37*
G36*
G01*
X41950000Y-64425000D02*
X41950000Y-63175000D01*
G75*
G02*
X42200000Y-62925000I250000J0D01*
G01*
X43000000Y-62925000D01*
G75*
G02*
X43250000Y-63175000I0J-250000D01*
G01*
X43250000Y-64425000D01*
G75*
G02*
X43000000Y-64675000I-250000J0D01*
G01*
X42200000Y-64675000D01*
G75*
G02*
X41950000Y-64425000I0J250000D01*
G01*
G37*
%TD*%
%TO.C,R1*%
G36*
G01*
X43250000Y-65975000D02*
X43250000Y-67225000D01*
G75*
G02*
X43000000Y-67475000I-250000J0D01*
G01*
X42200000Y-67475000D01*
G75*
G02*
X41950000Y-67225000I0J250000D01*
G01*
X41950000Y-65975000D01*
G75*
G02*
X42200000Y-65725000I250000J0D01*
G01*
X43000000Y-65725000D01*
G75*
G02*
X43250000Y-65975000I0J-250000D01*
G01*
G37*
G36*
G01*
X46350000Y-65975000D02*
X46350000Y-67225000D01*
G75*
G02*
X46100000Y-67475000I-250000J0D01*
G01*
X45300000Y-67475000D01*
G75*
G02*
X45050000Y-67225000I0J250000D01*
G01*
X45050000Y-65975000D01*
G75*
G02*
X45300000Y-65725000I250000J0D01*
G01*
X46100000Y-65725000D01*
G75*
G02*
X46350000Y-65975000I0J-250000D01*
G01*
G37*
%TD*%
D12*
%TO.C,D7*%
G36*
X75777818Y-59482843D02*
G01*
X74717157Y-58422182D01*
X76272792Y-56866547D01*
X77333453Y-57927208D01*
X75777818Y-59482843D01*
G37*
G36*
X73727208Y-61533453D02*
G01*
X72666547Y-60472792D01*
X74222182Y-58917157D01*
X75282843Y-59977818D01*
X73727208Y-61533453D01*
G37*
%TD*%
%TO.C,C11*%
G36*
G01*
X38786000Y-50440000D02*
X38786000Y-56240000D01*
G75*
G02*
X38536000Y-56490000I-250000J0D01*
G01*
X36361000Y-56490000D01*
G75*
G02*
X36111000Y-56240000I0J250000D01*
G01*
X36111000Y-50440000D01*
G75*
G02*
X36361000Y-50190000I250000J0D01*
G01*
X38536000Y-50190000D01*
G75*
G02*
X38786000Y-50440000I0J-250000D01*
G01*
G37*
G36*
G01*
X44661000Y-50440000D02*
X44661000Y-56240000D01*
G75*
G02*
X44411000Y-56490000I-250000J0D01*
G01*
X42236000Y-56490000D01*
G75*
G02*
X41986000Y-56240000I0J250000D01*
G01*
X41986000Y-50440000D01*
G75*
G02*
X42236000Y-50190000I250000J0D01*
G01*
X44411000Y-50190000D01*
G75*
G02*
X44661000Y-50440000I0J-250000D01*
G01*
G37*
%TD*%
%TO.C,C7*%
G36*
G01*
X44138000Y-41115000D02*
X44138000Y-40165000D01*
G75*
G02*
X44388000Y-39915000I250000J0D01*
G01*
X45063000Y-39915000D01*
G75*
G02*
X45313000Y-40165000I0J-250000D01*
G01*
X45313000Y-41115000D01*
G75*
G02*
X45063000Y-41365000I-250000J0D01*
G01*
X44388000Y-41365000D01*
G75*
G02*
X44138000Y-41115000I0J250000D01*
G01*
G37*
G36*
G01*
X42063000Y-41115000D02*
X42063000Y-40165000D01*
G75*
G02*
X42313000Y-39915000I250000J0D01*
G01*
X42988000Y-39915000D01*
G75*
G02*
X43238000Y-40165000I0J-250000D01*
G01*
X43238000Y-41115000D01*
G75*
G02*
X42988000Y-41365000I-250000J0D01*
G01*
X42313000Y-41365000D01*
G75*
G02*
X42063000Y-41115000I0J250000D01*
G01*
G37*
%TD*%
%TO.C,C4*%
G36*
G01*
X48620000Y-28372000D02*
X42820000Y-28372000D01*
G75*
G02*
X42570000Y-28122000I0J250000D01*
G01*
X42570000Y-25947000D01*
G75*
G02*
X42820000Y-25697000I250000J0D01*
G01*
X48620000Y-25697000D01*
G75*
G02*
X48870000Y-25947000I0J-250000D01*
G01*
X48870000Y-28122000D01*
G75*
G02*
X48620000Y-28372000I-250000J0D01*
G01*
G37*
G36*
G01*
X48620000Y-34247000D02*
X42820000Y-34247000D01*
G75*
G02*
X42570000Y-33997000I0J250000D01*
G01*
X42570000Y-31822000D01*
G75*
G02*
X42820000Y-31572000I250000J0D01*
G01*
X48620000Y-31572000D01*
G75*
G02*
X48870000Y-31822000I0J-250000D01*
G01*
X48870000Y-33997000D01*
G75*
G02*
X48620000Y-34247000I-250000J0D01*
G01*
G37*
%TD*%
%TO.C,C1*%
G36*
G01*
X65267678Y-56595927D02*
X64595927Y-57267678D01*
G75*
G02*
X64242373Y-57267678I-176777J176777D01*
G01*
X63765076Y-56790381D01*
G75*
G02*
X63765076Y-56436827I176777J176777D01*
G01*
X64436827Y-55765076D01*
G75*
G02*
X64790381Y-55765076I176777J-176777D01*
G01*
X65267678Y-56242373D01*
G75*
G02*
X65267678Y-56595927I-176777J-176777D01*
G01*
G37*
G36*
G01*
X66734924Y-58063173D02*
X66063173Y-58734924D01*
G75*
G02*
X65709619Y-58734924I-176777J176777D01*
G01*
X65232322Y-58257627D01*
G75*
G02*
X65232322Y-57904073I176777J176777D01*
G01*
X65904073Y-57232322D01*
G75*
G02*
X66257627Y-57232322I176777J-176777D01*
G01*
X66734924Y-57709619D01*
G75*
G02*
X66734924Y-58063173I-176777J-176777D01*
G01*
G37*
%TD*%
M02*
