M48
; DRILL file {KiCad (5.1.9)-1} date 03/05/21 00:08:25
; FORMAT={-:-/ absolute / metric / decimal}
; #@! TF.CreationDate,2021-03-05T00:08:25+01:00
; #@! TF.GenerationSoftware,Kicad,Pcbnew,(5.1.9)-1
; #@! TF.FileFunction,Plated,1,2,PTH
FMAT,2
METRIC
T1C0.550
T2C0.650
T3C0.900
T4C1.000
T5C1.100
%
G90
G05
T1
X46.228Y-52.578
X54.61Y-41.148
X67.25Y-59.25
T2
X38.4Y-60.79
X38.4Y-62.06
X38.4Y-63.33
X38.4Y-64.6
X39.67Y-60.79
X39.67Y-62.06
X39.67Y-63.33
X39.67Y-64.6
X46.228Y-37.846
X47.498Y-37.846
X48.768Y-37.846
X50.038Y-37.846
X51.308Y-37.846
X52.578Y-37.846
X53.848Y-37.846
X55.118Y-37.846
X57.643Y-70.658
X58.913Y-70.658
X60.183Y-70.658
X61.453Y-70.658
X64.5Y-69.5
X64.5Y-70.77
X65.77Y-69.5
X65.77Y-70.77
X66.294Y-31.242
X67.04Y-69.5
X67.04Y-70.77
X67.564Y-31.242
X68.31Y-69.5
X68.31Y-70.77
X68.834Y-31.242
X69.58Y-69.5
X69.58Y-70.77
X71.882Y-31.242
X73.152Y-31.242
X74.422Y-31.242
X76.4Y-61.6
X77.298Y-60.702
X77.47Y-31.242
X78.74Y-31.242
X80.01Y-31.242
X81.788Y-51.308
X82.804Y-31.242
X83.058Y-51.308
X84.074Y-31.242
X84.328Y-51.308
X85.344Y-31.242
X85.598Y-51.308
T3
X37.086Y-34.036
X37.086Y-36.536
X37.086Y-39.036
X37.846Y-70.866
X40.386Y-34.036
X40.386Y-36.536
X40.386Y-39.036
X40.386Y-70.866
X44.0Y-73.0
X44.0Y-75.54
X49.0Y-73.0
X49.0Y-75.54
X54.0Y-73.0
X54.0Y-75.54
X64.5Y-60.965
X66.296Y-62.761
X68.435Y-65.796
X70.231Y-64.0
T4
X37.846Y-27.178
X37.846Y-29.718
T5
X58.492Y-30.988
X58.492Y-37.488
X62.992Y-30.988
X62.992Y-37.488
T0
M30
