M48
; DRILL file {KiCad (5.1.9)-1} date 03/08/21 10:34:22
; FORMAT={-:-/ absolute / metric / decimal}
; #@! TF.CreationDate,2021-03-08T10:34:22+01:00
; #@! TF.GenerationSoftware,Kicad,Pcbnew,(5.1.9)-1
; #@! TF.FileFunction,Plated,1,2,PTH
FMAT,2
METRIC
T1C0.559
T2C0.900
T3C1.000
T4C1.100
%
G90
G05
T1
X60.96Y-43.18
T2
X36.322Y-42.672
X36.322Y-45.212
X36.322Y-48.006
X36.322Y-50.546
X36.83Y-82.122
X36.83Y-84.622
X36.83Y-87.122
X40.13Y-82.122
X40.13Y-84.622
X40.13Y-87.122
X41.148Y-40.132
X41.148Y-42.672
X41.148Y-45.466
X41.148Y-48.006
X54.338Y-61.74
X54.356Y-66.802
X56.134Y-59.944
X56.152Y-65.006
T3
X32.004Y-29.972
X32.004Y-32.512
X32.512Y-84.582
X32.512Y-87.122
X34.544Y-29.972
X34.544Y-32.512
X37.084Y-29.972
X37.084Y-32.512
X39.624Y-29.972
X39.624Y-32.512
X41.0Y-55.032
X41.0Y-57.572
X41.0Y-60.112
X41.0Y-62.652
X41.148Y-67.056
X41.148Y-69.596
X45.0Y-30.0
X47.54Y-30.0
X50.08Y-30.0
X52.62Y-30.0
X55.16Y-30.0
X57.7Y-30.0
X60.24Y-30.0
X60.96Y-63.754
X60.96Y-66.294
X60.96Y-68.834
X60.96Y-71.374
X60.96Y-73.914
X62.78Y-30.0
X63.5Y-63.754
X63.5Y-66.294
X63.5Y-68.834
X63.5Y-71.374
X63.5Y-73.914
X69.0Y-30.0
X71.54Y-30.0
X72.63Y-64.0
X74.08Y-30.0
X75.0Y-44.5
X75.0Y-47.04
X75.0Y-49.58
X75.0Y-53.5
X75.0Y-56.04
X75.0Y-58.58
X75.17Y-64.0
X77.71Y-64.0
X78.0Y-30.0
X80.25Y-64.0
X80.54Y-30.0
X83.08Y-30.0
T4
X60.016Y-33.632
X60.016Y-40.132
X64.516Y-33.632
X64.516Y-40.132
T0
M30
