%TF.GenerationSoftware,KiCad,Pcbnew,(5.1.9)-1*%
%TF.CreationDate,2021-03-05T00:07:22+01:00*%
%TF.ProjectId,FIGS,46494753-2e6b-4696-9361-645f70636258,1x*%
%TF.SameCoordinates,Original*%
%TF.FileFunction,Legend,Bot*%
%TF.FilePolarity,Positive*%
%FSLAX46Y46*%
G04 Gerber Fmt 4.6, Leading zero omitted, Abs format (unit mm)*
G04 Created by KiCad (PCBNEW (5.1.9)-1) date 2021-03-05 00:07:22*
%MOMM*%
%LPD*%
G01*
G04 APERTURE LIST*
%ADD10C,0.200000*%
%ADD11C,0.120000*%
%ADD12C,0.254000*%
%ADD13C,0.150000*%
G04 APERTURE END LIST*
D10*
%TO.C,U1*%
X36107000Y-48845000D02*
X37857000Y-48845000D01*
X38382000Y-42470000D02*
X38382000Y-48970000D01*
X41882000Y-42470000D02*
X38382000Y-42470000D01*
X41882000Y-48970000D02*
X41882000Y-42470000D01*
X38382000Y-48970000D02*
X41882000Y-48970000D01*
D11*
%TO.C,R15*%
X61915064Y-39476000D02*
X60460936Y-39476000D01*
X61915064Y-41296000D02*
X60460936Y-41296000D01*
%TO.C,R7*%
X43422936Y-59110000D02*
X44877064Y-59110000D01*
X43422936Y-57290000D02*
X44877064Y-57290000D01*
%TO.C,R5*%
X43422936Y-61910000D02*
X44877064Y-61910000D01*
X43422936Y-60090000D02*
X44877064Y-60090000D01*
%TO.C,R3*%
X43422936Y-64710000D02*
X44877064Y-64710000D01*
X43422936Y-62890000D02*
X44877064Y-62890000D01*
%TO.C,R1*%
X44877064Y-65690000D02*
X43422936Y-65690000D01*
X44877064Y-67510000D02*
X43422936Y-67510000D01*
%TO.C,J10*%
X76445962Y-62628840D02*
X77011647Y-63194526D01*
X77011647Y-63194526D02*
X78892551Y-61313622D01*
X78892551Y-61313622D02*
X78100592Y-60521662D01*
X78100592Y-60521662D02*
X78047330Y-60574924D01*
X77319239Y-62886934D02*
X80147666Y-65715361D01*
X80147666Y-65715361D02*
X80515361Y-65347666D01*
X80515361Y-65347666D02*
X77686934Y-62519239D01*
X77361665Y-62844508D02*
X80190092Y-65672935D01*
X77446518Y-62759655D02*
X80274945Y-65588082D01*
X77531371Y-62674802D02*
X80359798Y-65503229D01*
X77616224Y-62589949D02*
X80444651Y-65418377D01*
X77386414Y-61688388D02*
X77952099Y-62254074D01*
X78217264Y-61988909D02*
X81045692Y-64817336D01*
X81045692Y-64817336D02*
X81413387Y-64449640D01*
X81413387Y-64449640D02*
X78584960Y-61621213D01*
X75862599Y-61062599D02*
X75325198Y-61600000D01*
X75325198Y-61600000D02*
X75862599Y-62137401D01*
%TO.C,J8*%
X63880323Y-71210000D02*
X63805000Y-71210000D01*
X63805000Y-71210000D02*
X63805000Y-72330000D01*
X63805000Y-72330000D02*
X70275000Y-72330000D01*
X70275000Y-72330000D02*
X70275000Y-71210000D01*
X70275000Y-71210000D02*
X70199677Y-71210000D01*
X64240000Y-72330000D02*
X64240000Y-76330000D01*
X64240000Y-76330000D02*
X64760000Y-76330000D01*
X64760000Y-76330000D02*
X64760000Y-72330000D01*
X64300000Y-72330000D02*
X64300000Y-76330000D01*
X64420000Y-72330000D02*
X64420000Y-76330000D01*
X64540000Y-72330000D02*
X64540000Y-76330000D01*
X64660000Y-72330000D02*
X64660000Y-76330000D01*
X65135000Y-71210000D02*
X65135000Y-72330000D01*
X65119677Y-71210000D02*
X65150323Y-71210000D01*
X65510000Y-72330000D02*
X65510000Y-76330000D01*
X65510000Y-76330000D02*
X66030000Y-76330000D01*
X66030000Y-76330000D02*
X66030000Y-72330000D01*
X66405000Y-71210000D02*
X66405000Y-72330000D01*
X66389677Y-71210000D02*
X66420323Y-71210000D01*
X66780000Y-72330000D02*
X66780000Y-76330000D01*
X66780000Y-76330000D02*
X67300000Y-76330000D01*
X67300000Y-76330000D02*
X67300000Y-72330000D01*
X67675000Y-71210000D02*
X67675000Y-72330000D01*
X67659677Y-71210000D02*
X67690323Y-71210000D01*
X68050000Y-72330000D02*
X68050000Y-76330000D01*
X68050000Y-76330000D02*
X68570000Y-76330000D01*
X68570000Y-76330000D02*
X68570000Y-72330000D01*
X68945000Y-71210000D02*
X68945000Y-72330000D01*
X68929677Y-71210000D02*
X68960323Y-71210000D01*
X69320000Y-72330000D02*
X69320000Y-76330000D01*
X69320000Y-76330000D02*
X69840000Y-76330000D01*
X69840000Y-76330000D02*
X69840000Y-72330000D01*
X64500000Y-68740000D02*
X63740000Y-68740000D01*
X63740000Y-68740000D02*
X63740000Y-69500000D01*
%TO.C,J4*%
X56947760Y-71417720D02*
X56947760Y-72217720D01*
X56947760Y-72217720D02*
X62147760Y-72217720D01*
X62147760Y-72217720D02*
X62147760Y-71097720D01*
X62147760Y-71097720D02*
X62072437Y-71097720D01*
X57382760Y-72217720D02*
X57382760Y-76217720D01*
X57382760Y-76217720D02*
X57902760Y-76217720D01*
X57902760Y-76217720D02*
X57902760Y-72217720D01*
X57442760Y-72217720D02*
X57442760Y-76217720D01*
X57562760Y-72217720D02*
X57562760Y-76217720D01*
X57682760Y-72217720D02*
X57682760Y-76217720D01*
X57802760Y-72217720D02*
X57802760Y-76217720D01*
X58277760Y-71417720D02*
X58277760Y-72217720D01*
X58652760Y-72217720D02*
X58652760Y-76217720D01*
X58652760Y-76217720D02*
X59172760Y-76217720D01*
X59172760Y-76217720D02*
X59172760Y-72217720D01*
X59547760Y-71097720D02*
X59547760Y-72217720D01*
X59532437Y-71097720D02*
X59563083Y-71097720D01*
X59922760Y-72217720D02*
X59922760Y-76217720D01*
X59922760Y-76217720D02*
X60442760Y-76217720D01*
X60442760Y-76217720D02*
X60442760Y-72217720D01*
X60817760Y-71097720D02*
X60817760Y-72217720D01*
X60802437Y-71097720D02*
X60833083Y-71097720D01*
X61192760Y-72217720D02*
X61192760Y-76217720D01*
X61192760Y-76217720D02*
X61712760Y-76217720D01*
X61712760Y-76217720D02*
X61712760Y-72217720D01*
X57642760Y-69897720D02*
X56882760Y-69897720D01*
X56882760Y-69897720D02*
X56882760Y-70657720D01*
%TO.C,D7*%
X76435427Y-59079792D02*
X73727208Y-61788011D01*
X73727208Y-61788011D02*
X72411989Y-60472792D01*
X72411989Y-60472792D02*
X75120208Y-57764573D01*
%TO.C,C11*%
X36786000Y-49930000D02*
X44921000Y-49930000D01*
X44921000Y-49930000D02*
X44921000Y-56750000D01*
X44921000Y-56750000D02*
X36786000Y-56750000D01*
%TO.C,C7*%
X43426748Y-41375000D02*
X43949252Y-41375000D01*
X43426748Y-39905000D02*
X43949252Y-39905000D01*
%TO.C,C4*%
X49130000Y-26372000D02*
X49130000Y-34507000D01*
X49130000Y-34507000D02*
X42310000Y-34507000D01*
X42310000Y-34507000D02*
X42310000Y-26372000D01*
%TO.C,C1*%
X65954457Y-56915010D02*
X65584990Y-56545543D01*
X64915010Y-57954457D02*
X64545543Y-57584990D01*
%TO.C,U1*%
D12*
X41048819Y-45024523D02*
X41048819Y-46052619D01*
X40988342Y-46173571D01*
X40927866Y-46234047D01*
X40806914Y-46294523D01*
X40565009Y-46294523D01*
X40444057Y-46234047D01*
X40383580Y-46173571D01*
X40323104Y-46052619D01*
X40323104Y-45024523D01*
X39053104Y-46294523D02*
X39778819Y-46294523D01*
X39415961Y-46294523D02*
X39415961Y-45024523D01*
X39536914Y-45205952D01*
X39657866Y-45326904D01*
X39778819Y-45387380D01*
%TO.C,R15*%
D13*
X61830857Y-39018380D02*
X62164190Y-38542190D01*
X62402285Y-39018380D02*
X62402285Y-38018380D01*
X62021333Y-38018380D01*
X61926095Y-38066000D01*
X61878476Y-38113619D01*
X61830857Y-38208857D01*
X61830857Y-38351714D01*
X61878476Y-38446952D01*
X61926095Y-38494571D01*
X62021333Y-38542190D01*
X62402285Y-38542190D01*
X60878476Y-39018380D02*
X61449904Y-39018380D01*
X61164190Y-39018380D02*
X61164190Y-38018380D01*
X61259428Y-38161238D01*
X61354666Y-38256476D01*
X61449904Y-38304095D01*
X59973714Y-38018380D02*
X60449904Y-38018380D01*
X60497523Y-38494571D01*
X60449904Y-38446952D01*
X60354666Y-38399333D01*
X60116571Y-38399333D01*
X60021333Y-38446952D01*
X59973714Y-38494571D01*
X59926095Y-38589809D01*
X59926095Y-38827904D01*
X59973714Y-38923142D01*
X60021333Y-38970761D01*
X60116571Y-39018380D01*
X60354666Y-39018380D01*
X60449904Y-38970761D01*
X60497523Y-38923142D01*
%TO.C,R7*%
X48066666Y-58652380D02*
X48400000Y-58176190D01*
X48638095Y-58652380D02*
X48638095Y-57652380D01*
X48257142Y-57652380D01*
X48161904Y-57700000D01*
X48114285Y-57747619D01*
X48066666Y-57842857D01*
X48066666Y-57985714D01*
X48114285Y-58080952D01*
X48161904Y-58128571D01*
X48257142Y-58176190D01*
X48638095Y-58176190D01*
X47733333Y-57652380D02*
X47066666Y-57652380D01*
X47495238Y-58652380D01*
%TO.C,R5*%
X48066666Y-61652380D02*
X48400000Y-61176190D01*
X48638095Y-61652380D02*
X48638095Y-60652380D01*
X48257142Y-60652380D01*
X48161904Y-60700000D01*
X48114285Y-60747619D01*
X48066666Y-60842857D01*
X48066666Y-60985714D01*
X48114285Y-61080952D01*
X48161904Y-61128571D01*
X48257142Y-61176190D01*
X48638095Y-61176190D01*
X47161904Y-60652380D02*
X47638095Y-60652380D01*
X47685714Y-61128571D01*
X47638095Y-61080952D01*
X47542857Y-61033333D01*
X47304761Y-61033333D01*
X47209523Y-61080952D01*
X47161904Y-61128571D01*
X47114285Y-61223809D01*
X47114285Y-61461904D01*
X47161904Y-61557142D01*
X47209523Y-61604761D01*
X47304761Y-61652380D01*
X47542857Y-61652380D01*
X47638095Y-61604761D01*
X47685714Y-61557142D01*
%TO.C,R3*%
X47866666Y-64252380D02*
X48200000Y-63776190D01*
X48438095Y-64252380D02*
X48438095Y-63252380D01*
X48057142Y-63252380D01*
X47961904Y-63300000D01*
X47914285Y-63347619D01*
X47866666Y-63442857D01*
X47866666Y-63585714D01*
X47914285Y-63680952D01*
X47961904Y-63728571D01*
X48057142Y-63776190D01*
X48438095Y-63776190D01*
X47533333Y-63252380D02*
X46914285Y-63252380D01*
X47247619Y-63633333D01*
X47104761Y-63633333D01*
X47009523Y-63680952D01*
X46961904Y-63728571D01*
X46914285Y-63823809D01*
X46914285Y-64061904D01*
X46961904Y-64157142D01*
X47009523Y-64204761D01*
X47104761Y-64252380D01*
X47390476Y-64252380D01*
X47485714Y-64204761D01*
X47533333Y-64157142D01*
%TO.C,R1*%
X48066666Y-67052380D02*
X48400000Y-66576190D01*
X48638095Y-67052380D02*
X48638095Y-66052380D01*
X48257142Y-66052380D01*
X48161904Y-66100000D01*
X48114285Y-66147619D01*
X48066666Y-66242857D01*
X48066666Y-66385714D01*
X48114285Y-66480952D01*
X48161904Y-66528571D01*
X48257142Y-66576190D01*
X48638095Y-66576190D01*
X47114285Y-67052380D02*
X47685714Y-67052380D01*
X47400000Y-67052380D02*
X47400000Y-66052380D01*
X47495238Y-66195238D01*
X47590476Y-66290476D01*
X47685714Y-66338095D01*
%TO.C,J10*%
X79759644Y-59385194D02*
X79254568Y-59890270D01*
X79187225Y-60024957D01*
X79187225Y-60159644D01*
X79254568Y-60294331D01*
X79321912Y-60361675D01*
X78345431Y-59385194D02*
X78749492Y-59789255D01*
X78547461Y-59587225D02*
X79254568Y-58880118D01*
X79220896Y-59048477D01*
X79220896Y-59183164D01*
X79254568Y-59284179D01*
X78614805Y-58240355D02*
X78547461Y-58173011D01*
X78446446Y-58139339D01*
X78379103Y-58139339D01*
X78278087Y-58173011D01*
X78109729Y-58274026D01*
X77941370Y-58442385D01*
X77840355Y-58610744D01*
X77806683Y-58711759D01*
X77806683Y-58779103D01*
X77840355Y-58880118D01*
X77907698Y-58947461D01*
X78008713Y-58981133D01*
X78076057Y-58981133D01*
X78177072Y-58947461D01*
X78345431Y-58846446D01*
X78513790Y-58678087D01*
X78614805Y-58509729D01*
X78648477Y-58408713D01*
X78648477Y-58341370D01*
X78614805Y-58240355D01*
%TO.C,J8*%
X62317380Y-72234166D02*
X63031666Y-72234166D01*
X63174523Y-72186547D01*
X63269761Y-72091309D01*
X63317380Y-71948452D01*
X63317380Y-71853214D01*
X62745952Y-72853214D02*
X62698333Y-72757976D01*
X62650714Y-72710357D01*
X62555476Y-72662738D01*
X62507857Y-72662738D01*
X62412619Y-72710357D01*
X62365000Y-72757976D01*
X62317380Y-72853214D01*
X62317380Y-73043690D01*
X62365000Y-73138928D01*
X62412619Y-73186547D01*
X62507857Y-73234166D01*
X62555476Y-73234166D01*
X62650714Y-73186547D01*
X62698333Y-73138928D01*
X62745952Y-73043690D01*
X62745952Y-72853214D01*
X62793571Y-72757976D01*
X62841190Y-72710357D01*
X62936428Y-72662738D01*
X63126904Y-72662738D01*
X63222142Y-72710357D01*
X63269761Y-72757976D01*
X63317380Y-72853214D01*
X63317380Y-73043690D01*
X63269761Y-73138928D01*
X63222142Y-73186547D01*
X63126904Y-73234166D01*
X62936428Y-73234166D01*
X62841190Y-73186547D01*
X62793571Y-73138928D01*
X62745952Y-73043690D01*
%TO.C,J4*%
X55460140Y-72756886D02*
X56174426Y-72756886D01*
X56317283Y-72709267D01*
X56412521Y-72614029D01*
X56460140Y-72471172D01*
X56460140Y-72375934D01*
X55793474Y-73661648D02*
X56460140Y-73661648D01*
X55412521Y-73423553D02*
X56126807Y-73185458D01*
X56126807Y-73804505D01*
%TO.C,D7*%
X78950753Y-56508769D02*
X78243647Y-55801662D01*
X78075288Y-55970021D01*
X78007944Y-56104708D01*
X78007944Y-56239395D01*
X78041616Y-56340410D01*
X78142631Y-56508769D01*
X78243647Y-56609784D01*
X78412005Y-56710800D01*
X78513021Y-56744471D01*
X78647708Y-56744471D01*
X78782395Y-56677128D01*
X78950753Y-56508769D01*
X77603883Y-56441425D02*
X77132479Y-56912830D01*
X78142631Y-57316891D01*
%TO.C,C11*%
X41028857Y-53697142D02*
X41076476Y-53744761D01*
X41219333Y-53792380D01*
X41314571Y-53792380D01*
X41457428Y-53744761D01*
X41552666Y-53649523D01*
X41600285Y-53554285D01*
X41647904Y-53363809D01*
X41647904Y-53220952D01*
X41600285Y-53030476D01*
X41552666Y-52935238D01*
X41457428Y-52840000D01*
X41314571Y-52792380D01*
X41219333Y-52792380D01*
X41076476Y-52840000D01*
X41028857Y-52887619D01*
X40076476Y-53792380D02*
X40647904Y-53792380D01*
X40362190Y-53792380D02*
X40362190Y-52792380D01*
X40457428Y-52935238D01*
X40552666Y-53030476D01*
X40647904Y-53078095D01*
X39124095Y-53792380D02*
X39695523Y-53792380D01*
X39409809Y-53792380D02*
X39409809Y-52792380D01*
X39505047Y-52935238D01*
X39600285Y-53030476D01*
X39695523Y-53078095D01*
%TO.C,C7*%
X43854666Y-39219142D02*
X43902285Y-39266761D01*
X44045142Y-39314380D01*
X44140380Y-39314380D01*
X44283238Y-39266761D01*
X44378476Y-39171523D01*
X44426095Y-39076285D01*
X44473714Y-38885809D01*
X44473714Y-38742952D01*
X44426095Y-38552476D01*
X44378476Y-38457238D01*
X44283238Y-38362000D01*
X44140380Y-38314380D01*
X44045142Y-38314380D01*
X43902285Y-38362000D01*
X43854666Y-38409619D01*
X43521333Y-38314380D02*
X42854666Y-38314380D01*
X43283238Y-39314380D01*
%TO.C,C4*%
X46077142Y-29948833D02*
X46124761Y-29901214D01*
X46172380Y-29758357D01*
X46172380Y-29663119D01*
X46124761Y-29520261D01*
X46029523Y-29425023D01*
X45934285Y-29377404D01*
X45743809Y-29329785D01*
X45600952Y-29329785D01*
X45410476Y-29377404D01*
X45315238Y-29425023D01*
X45220000Y-29520261D01*
X45172380Y-29663119D01*
X45172380Y-29758357D01*
X45220000Y-29901214D01*
X45267619Y-29948833D01*
X45505714Y-30805976D02*
X46172380Y-30805976D01*
X45124761Y-30567880D02*
X45839047Y-30329785D01*
X45839047Y-30948833D01*
%TO.C,C1*%
X66303251Y-56432450D02*
X66303251Y-56499793D01*
X66370595Y-56634480D01*
X66437938Y-56701824D01*
X66572626Y-56769167D01*
X66707313Y-56769167D01*
X66808328Y-56735496D01*
X66976687Y-56634480D01*
X67077702Y-56533465D01*
X67178717Y-56365106D01*
X67212389Y-56264091D01*
X67212389Y-56129404D01*
X67145045Y-55994717D01*
X67077702Y-55927373D01*
X66943015Y-55860030D01*
X66875671Y-55860030D01*
X65562473Y-55826358D02*
X65966534Y-56230419D01*
X65764503Y-56028389D02*
X66471610Y-55321282D01*
X66437939Y-55489641D01*
X66437938Y-55624328D01*
X66471610Y-55725343D01*
%TD*%
M02*
