%TF.GenerationSoftware,KiCad,Pcbnew,(5.1.9)-1*%
%TF.CreationDate,2021-03-05T00:07:22+01:00*%
%TF.ProjectId,FIGS,46494753-2e6b-4696-9361-645f70636258,1x*%
%TF.SameCoordinates,Original*%
%TF.FileFunction,Copper,L2,Bot*%
%TF.FilePolarity,Positive*%
%FSLAX46Y46*%
G04 Gerber Fmt 4.6, Leading zero omitted, Abs format (unit mm)*
G04 Created by KiCad (PCBNEW (5.1.9)-1) date 2021-03-05 00:07:22*
%MOMM*%
%LPD*%
G01*
G04 APERTURE LIST*
%TA.AperFunction,ComponentPad*%
%ADD10O,1.000000X1.000000*%
%TD*%
%TA.AperFunction,ComponentPad*%
%ADD11R,1.000000X1.000000*%
%TD*%
%TA.AperFunction,SMDPad,CuDef*%
%ADD12R,1.750000X3.200000*%
%TD*%
%TA.AperFunction,SMDPad,CuDef*%
%ADD13R,1.750000X0.950000*%
%TD*%
%TA.AperFunction,ComponentPad*%
%ADD14C,2.000000*%
%TD*%
%TA.AperFunction,ComponentPad*%
%ADD15C,1.400000*%
%TD*%
%TA.AperFunction,ComponentPad*%
%ADD16R,1.400000X1.400000*%
%TD*%
%TA.AperFunction,ComponentPad*%
%ADD17C,0.100000*%
%TD*%
%TA.AperFunction,SMDPad,CuDef*%
%ADD18C,0.100000*%
%TD*%
%TA.AperFunction,ComponentPad*%
%ADD19C,1.800000*%
%TD*%
%TA.AperFunction,ComponentPad*%
%ADD20R,1.800000X1.800000*%
%TD*%
%TA.AperFunction,ComponentPad*%
%ADD21O,1.700000X1.700000*%
%TD*%
%TA.AperFunction,ComponentPad*%
%ADD22R,1.700000X1.700000*%
%TD*%
%TA.AperFunction,ViaPad*%
%ADD23C,1.750000*%
%TD*%
%TA.AperFunction,Conductor*%
%ADD24C,0.400000*%
%TD*%
%TA.AperFunction,Conductor*%
%ADD25C,0.750000*%
%TD*%
%TA.AperFunction,Conductor*%
%ADD26C,0.254000*%
%TD*%
%TA.AperFunction,Conductor*%
%ADD27C,0.100000*%
%TD*%
G04 APERTURE END LIST*
D10*
%TO.P,J1,8*%
%TO.N,GNDA*%
X55118000Y-37846000D03*
%TO.P,J1,7*%
%TO.N,/CAPSENSE0*%
X53848000Y-37846000D03*
%TO.P,J1,6*%
%TO.N,GNDA*%
X52578000Y-37846000D03*
%TO.P,J1,5*%
%TO.N,/CAPSENSE1*%
X51308000Y-37846000D03*
%TO.P,J1,4*%
%TO.N,GNDA*%
X50038000Y-37846000D03*
%TO.P,J1,3*%
%TO.N,/CAPSENSE2*%
X48768000Y-37846000D03*
%TO.P,J1,2*%
%TO.N,GNDA*%
X47498000Y-37846000D03*
D11*
%TO.P,J1,1*%
%TO.N,/CAPSENSE3*%
X46228000Y-37846000D03*
%TD*%
D12*
%TO.P,U1,4*%
%TO.N,N/C*%
X43282000Y-45720000D03*
D13*
%TO.P,U1,3*%
%TO.N,+BATT*%
X36982000Y-43420000D03*
%TO.P,U1,2*%
%TO.N,+3V3*%
X36982000Y-45720000D03*
%TO.P,U1,1*%
%TO.N,GNDA*%
X36982000Y-48020000D03*
%TD*%
D14*
%TO.P,SW2,1*%
%TO.N,/XRES*%
X62992000Y-37488000D03*
%TO.P,SW2,2*%
%TO.N,GNDA*%
X58492000Y-37488000D03*
%TO.P,SW2,1*%
%TO.N,/XRES*%
X62992000Y-30988000D03*
%TO.P,SW2,2*%
%TO.N,GNDA*%
X58492000Y-30988000D03*
%TD*%
D15*
%TO.P,SW1,6*%
%TO.N,N/C*%
X37086000Y-39036000D03*
%TO.P,SW1,5*%
X37086000Y-36536000D03*
%TO.P,SW1,4*%
X37086000Y-34036000D03*
%TO.P,SW1,3*%
X40386000Y-39036000D03*
%TO.P,SW1,2*%
%TO.N,+BATT*%
X40386000Y-36536000D03*
D16*
%TO.P,SW1,1*%
%TO.N,Net-(BT1-Pad1)*%
X40386000Y-34036000D03*
%TD*%
%TO.P,R15,2*%
%TO.N,+3V3*%
%TA.AperFunction,SMDPad,CuDef*%
G36*
G01*
X60288000Y-39761000D02*
X60288000Y-41011000D01*
G75*
G02*
X60038000Y-41261000I-250000J0D01*
G01*
X59238000Y-41261000D01*
G75*
G02*
X58988000Y-41011000I0J250000D01*
G01*
X58988000Y-39761000D01*
G75*
G02*
X59238000Y-39511000I250000J0D01*
G01*
X60038000Y-39511000D01*
G75*
G02*
X60288000Y-39761000I0J-250000D01*
G01*
G37*
%TD.AperFunction*%
%TO.P,R15,1*%
%TO.N,/XRES*%
%TA.AperFunction,SMDPad,CuDef*%
G36*
G01*
X63388000Y-39761000D02*
X63388000Y-41011000D01*
G75*
G02*
X63138000Y-41261000I-250000J0D01*
G01*
X62338000Y-41261000D01*
G75*
G02*
X62088000Y-41011000I0J250000D01*
G01*
X62088000Y-39761000D01*
G75*
G02*
X62338000Y-39511000I250000J0D01*
G01*
X63138000Y-39511000D01*
G75*
G02*
X63388000Y-39761000I0J-250000D01*
G01*
G37*
%TD.AperFunction*%
%TD*%
%TO.P,R7,2*%
%TO.N,+3V3*%
%TA.AperFunction,SMDPad,CuDef*%
G36*
G01*
X45050000Y-58825000D02*
X45050000Y-57575000D01*
G75*
G02*
X45300000Y-57325000I250000J0D01*
G01*
X46100000Y-57325000D01*
G75*
G02*
X46350000Y-57575000I0J-250000D01*
G01*
X46350000Y-58825000D01*
G75*
G02*
X46100000Y-59075000I-250000J0D01*
G01*
X45300000Y-59075000D01*
G75*
G02*
X45050000Y-58825000I0J250000D01*
G01*
G37*
%TD.AperFunction*%
%TO.P,R7,1*%
%TO.N,/TIP_SENSOR0*%
%TA.AperFunction,SMDPad,CuDef*%
G36*
G01*
X41950000Y-58825000D02*
X41950000Y-57575000D01*
G75*
G02*
X42200000Y-57325000I250000J0D01*
G01*
X43000000Y-57325000D01*
G75*
G02*
X43250000Y-57575000I0J-250000D01*
G01*
X43250000Y-58825000D01*
G75*
G02*
X43000000Y-59075000I-250000J0D01*
G01*
X42200000Y-59075000D01*
G75*
G02*
X41950000Y-58825000I0J250000D01*
G01*
G37*
%TD.AperFunction*%
%TD*%
%TO.P,R5,2*%
%TO.N,+3V3*%
%TA.AperFunction,SMDPad,CuDef*%
G36*
G01*
X45050000Y-61625000D02*
X45050000Y-60375000D01*
G75*
G02*
X45300000Y-60125000I250000J0D01*
G01*
X46100000Y-60125000D01*
G75*
G02*
X46350000Y-60375000I0J-250000D01*
G01*
X46350000Y-61625000D01*
G75*
G02*
X46100000Y-61875000I-250000J0D01*
G01*
X45300000Y-61875000D01*
G75*
G02*
X45050000Y-61625000I0J250000D01*
G01*
G37*
%TD.AperFunction*%
%TO.P,R5,1*%
%TO.N,/TIP_SENSOR1*%
%TA.AperFunction,SMDPad,CuDef*%
G36*
G01*
X41950000Y-61625000D02*
X41950000Y-60375000D01*
G75*
G02*
X42200000Y-60125000I250000J0D01*
G01*
X43000000Y-60125000D01*
G75*
G02*
X43250000Y-60375000I0J-250000D01*
G01*
X43250000Y-61625000D01*
G75*
G02*
X43000000Y-61875000I-250000J0D01*
G01*
X42200000Y-61875000D01*
G75*
G02*
X41950000Y-61625000I0J250000D01*
G01*
G37*
%TD.AperFunction*%
%TD*%
%TO.P,R3,2*%
%TO.N,+3V3*%
%TA.AperFunction,SMDPad,CuDef*%
G36*
G01*
X45050000Y-64425000D02*
X45050000Y-63175000D01*
G75*
G02*
X45300000Y-62925000I250000J0D01*
G01*
X46100000Y-62925000D01*
G75*
G02*
X46350000Y-63175000I0J-250000D01*
G01*
X46350000Y-64425000D01*
G75*
G02*
X46100000Y-64675000I-250000J0D01*
G01*
X45300000Y-64675000D01*
G75*
G02*
X45050000Y-64425000I0J250000D01*
G01*
G37*
%TD.AperFunction*%
%TO.P,R3,1*%
%TO.N,/TIP_SENSOR2*%
%TA.AperFunction,SMDPad,CuDef*%
G36*
G01*
X41950000Y-64425000D02*
X41950000Y-63175000D01*
G75*
G02*
X42200000Y-62925000I250000J0D01*
G01*
X43000000Y-62925000D01*
G75*
G02*
X43250000Y-63175000I0J-250000D01*
G01*
X43250000Y-64425000D01*
G75*
G02*
X43000000Y-64675000I-250000J0D01*
G01*
X42200000Y-64675000D01*
G75*
G02*
X41950000Y-64425000I0J250000D01*
G01*
G37*
%TD.AperFunction*%
%TD*%
%TO.P,R1,2*%
%TO.N,/TIP_SENSOR3*%
%TA.AperFunction,SMDPad,CuDef*%
G36*
G01*
X43250000Y-65975000D02*
X43250000Y-67225000D01*
G75*
G02*
X43000000Y-67475000I-250000J0D01*
G01*
X42200000Y-67475000D01*
G75*
G02*
X41950000Y-67225000I0J250000D01*
G01*
X41950000Y-65975000D01*
G75*
G02*
X42200000Y-65725000I250000J0D01*
G01*
X43000000Y-65725000D01*
G75*
G02*
X43250000Y-65975000I0J-250000D01*
G01*
G37*
%TD.AperFunction*%
%TO.P,R1,1*%
%TO.N,+3V3*%
%TA.AperFunction,SMDPad,CuDef*%
G36*
G01*
X46350000Y-65975000D02*
X46350000Y-67225000D01*
G75*
G02*
X46100000Y-67475000I-250000J0D01*
G01*
X45300000Y-67475000D01*
G75*
G02*
X45050000Y-67225000I0J250000D01*
G01*
X45050000Y-65975000D01*
G75*
G02*
X45300000Y-65725000I250000J0D01*
G01*
X46100000Y-65725000D01*
G75*
G02*
X46350000Y-65975000I0J-250000D01*
G01*
G37*
%TD.AperFunction*%
%TD*%
%TO.P,J10,2*%
%TO.N,Net-(D7-Pad2)*%
%TA.AperFunction,ComponentPad*%
G36*
G01*
X76944473Y-60348421D02*
X76944473Y-60348421D01*
G75*
G02*
X77651579Y-60348421I353553J-353553D01*
G01*
X77651579Y-60348421D01*
G75*
G02*
X77651579Y-61055527I-353553J-353553D01*
G01*
X77651579Y-61055527D01*
G75*
G02*
X76944473Y-61055527I-353553J353553D01*
G01*
X76944473Y-61055527D01*
G75*
G02*
X76944473Y-60348421I353553J353553D01*
G01*
G37*
%TD.AperFunction*%
%TA.AperFunction,ComponentPad*%
D17*
%TO.P,J10,1*%
%TO.N,+3V3*%
G36*
X75692893Y-61600000D02*
G01*
X76400000Y-60892893D01*
X77107107Y-61600000D01*
X76400000Y-62307107D01*
X75692893Y-61600000D01*
G37*
%TD.AperFunction*%
%TD*%
D10*
%TO.P,J9,3*%
%TO.N,GNDA*%
X68834000Y-31242000D03*
%TO.P,J9,2*%
%TO.N,/CTRLS3*%
X67564000Y-31242000D03*
D11*
%TO.P,J9,1*%
%TO.N,+BATT*%
X66294000Y-31242000D03*
%TD*%
D10*
%TO.P,J8,10*%
%TO.N,/KP_TX*%
X69580000Y-70770000D03*
%TO.P,J8,9*%
%TO.N,/TUNER_SDA*%
X69580000Y-69500000D03*
%TO.P,J8,8*%
%TO.N,/KP_RX*%
X68310000Y-70770000D03*
%TO.P,J8,7*%
%TO.N,/TUNER_SCL*%
X68310000Y-69500000D03*
%TO.P,J8,6*%
%TO.N,Net-(J8-Pad6)*%
X67040000Y-70770000D03*
%TO.P,J8,5*%
%TO.N,/SWD_CLK*%
X67040000Y-69500000D03*
%TO.P,J8,4*%
%TO.N,/XRES*%
X65770000Y-70770000D03*
%TO.P,J8,3*%
%TO.N,/SWD_IO*%
X65770000Y-69500000D03*
%TO.P,J8,2*%
%TO.N,GNDA*%
X64500000Y-70770000D03*
D11*
%TO.P,J8,1*%
%TO.N,+3V3*%
X64500000Y-69500000D03*
%TD*%
D10*
%TO.P,J7,3*%
%TO.N,GNDA*%
X74422000Y-31242000D03*
%TO.P,J7,2*%
%TO.N,/CTRLS2*%
X73152000Y-31242000D03*
D11*
%TO.P,J7,1*%
%TO.N,+BATT*%
X71882000Y-31242000D03*
%TD*%
D10*
%TO.P,J6,3*%
%TO.N,GNDA*%
X80010000Y-31242000D03*
%TO.P,J6,2*%
%TO.N,/CTRLS1*%
X78740000Y-31242000D03*
D11*
%TO.P,J6,1*%
%TO.N,+BATT*%
X77470000Y-31242000D03*
%TD*%
D10*
%TO.P,J5,3*%
%TO.N,GNDA*%
X85344000Y-31242000D03*
%TO.P,J5,2*%
%TO.N,/CTRLS0*%
X84074000Y-31242000D03*
D11*
%TO.P,J5,1*%
%TO.N,+BATT*%
X82804000Y-31242000D03*
%TD*%
D10*
%TO.P,J4,4*%
%TO.N,GNDA*%
X61452760Y-70657720D03*
%TO.P,J4,3*%
%TO.N,/IMU_SDA*%
X60182760Y-70657720D03*
%TO.P,J4,2*%
%TO.N,/IMU_SCL*%
X58912760Y-70657720D03*
D11*
%TO.P,J4,1*%
%TO.N,+3V3*%
X57642760Y-70657720D03*
%TD*%
D10*
%TO.P,J3,4*%
%TO.N,GNDA*%
X81788000Y-51308000D03*
%TO.P,J3,3*%
%TO.N,/BT_UART_RX*%
X83058000Y-51308000D03*
%TO.P,J3,2*%
%TO.N,/BT_UART_TX*%
X84328000Y-51308000D03*
D11*
%TO.P,J3,1*%
%TO.N,+3V3*%
X85598000Y-51308000D03*
%TD*%
D10*
%TO.P,J2,8*%
%TO.N,GNDA*%
X38400000Y-60790000D03*
%TO.P,J2,7*%
%TO.N,/TIP_SENSOR0*%
X39670000Y-60790000D03*
%TO.P,J2,6*%
%TO.N,GNDA*%
X38400000Y-62060000D03*
%TO.P,J2,5*%
%TO.N,/TIP_SENSOR1*%
X39670000Y-62060000D03*
%TO.P,J2,4*%
%TO.N,GNDA*%
X38400000Y-63330000D03*
%TO.P,J2,3*%
%TO.N,/TIP_SENSOR2*%
X39670000Y-63330000D03*
%TO.P,J2,2*%
%TO.N,GNDA*%
X38400000Y-64600000D03*
D11*
%TO.P,J2,1*%
%TO.N,/TIP_SENSOR3*%
X39670000Y-64600000D03*
%TD*%
%TA.AperFunction,SMDPad,CuDef*%
D18*
%TO.P,D7,2*%
%TO.N,Net-(D7-Pad2)*%
G36*
X75777818Y-59482843D02*
G01*
X74717157Y-58422182D01*
X76272792Y-56866547D01*
X77333453Y-57927208D01*
X75777818Y-59482843D01*
G37*
%TD.AperFunction*%
%TA.AperFunction,SMDPad,CuDef*%
%TO.P,D7,1*%
%TO.N,+3V3*%
G36*
X73727208Y-61533453D02*
G01*
X72666547Y-60472792D01*
X74222182Y-58917157D01*
X75282843Y-59977818D01*
X73727208Y-61533453D01*
G37*
%TD.AperFunction*%
%TD*%
D19*
%TO.P,D6,2*%
%TO.N,+3V3*%
X68434949Y-65796051D03*
%TA.AperFunction,ComponentPad*%
D17*
%TO.P,D6,1*%
%TO.N,/STATUS_LED0*%
G36*
X70231000Y-62727208D02*
G01*
X71503792Y-64000000D01*
X70231000Y-65272792D01*
X68958208Y-64000000D01*
X70231000Y-62727208D01*
G37*
%TD.AperFunction*%
%TD*%
D19*
%TO.P,D5,2*%
%TO.N,+3V3*%
X66296051Y-62761131D03*
%TA.AperFunction,ComponentPad*%
D17*
%TO.P,D5,1*%
%TO.N,/STATUS_LED1*%
G36*
X63227208Y-60965080D02*
G01*
X64500000Y-59692288D01*
X65772792Y-60965080D01*
X64500000Y-62237872D01*
X63227208Y-60965080D01*
G37*
%TD.AperFunction*%
%TD*%
D19*
%TO.P,D4,2*%
%TO.N,+3V3*%
X37846000Y-70866000D03*
D20*
%TO.P,D4,1*%
%TO.N,/SERVOS_LED0*%
X40386000Y-70866000D03*
%TD*%
D19*
%TO.P,D3,2*%
%TO.N,+3V3*%
X44000000Y-75540000D03*
D20*
%TO.P,D3,1*%
%TO.N,/SERVOS_LED1*%
X44000000Y-73000000D03*
%TD*%
D19*
%TO.P,D2,2*%
%TO.N,+3V3*%
X49000000Y-75540000D03*
D20*
%TO.P,D2,1*%
%TO.N,/SERVOS_LED2*%
X49000000Y-73000000D03*
%TD*%
D19*
%TO.P,D1,2*%
%TO.N,+3V3*%
X54000000Y-75540000D03*
D20*
%TO.P,D1,1*%
%TO.N,/SERVOS_LED3*%
X54000000Y-73000000D03*
%TD*%
%TO.P,C11,2*%
%TO.N,GNDA*%
%TA.AperFunction,SMDPad,CuDef*%
G36*
G01*
X38786000Y-50440000D02*
X38786000Y-56240000D01*
G75*
G02*
X38536000Y-56490000I-250000J0D01*
G01*
X36361000Y-56490000D01*
G75*
G02*
X36111000Y-56240000I0J250000D01*
G01*
X36111000Y-50440000D01*
G75*
G02*
X36361000Y-50190000I250000J0D01*
G01*
X38536000Y-50190000D01*
G75*
G02*
X38786000Y-50440000I0J-250000D01*
G01*
G37*
%TD.AperFunction*%
%TO.P,C11,1*%
%TO.N,+3V3*%
%TA.AperFunction,SMDPad,CuDef*%
G36*
G01*
X44661000Y-50440000D02*
X44661000Y-56240000D01*
G75*
G02*
X44411000Y-56490000I-250000J0D01*
G01*
X42236000Y-56490000D01*
G75*
G02*
X41986000Y-56240000I0J250000D01*
G01*
X41986000Y-50440000D01*
G75*
G02*
X42236000Y-50190000I250000J0D01*
G01*
X44411000Y-50190000D01*
G75*
G02*
X44661000Y-50440000I0J-250000D01*
G01*
G37*
%TD.AperFunction*%
%TD*%
%TO.P,C7,2*%
%TO.N,GNDA*%
%TA.AperFunction,SMDPad,CuDef*%
G36*
G01*
X44138000Y-41115000D02*
X44138000Y-40165000D01*
G75*
G02*
X44388000Y-39915000I250000J0D01*
G01*
X45063000Y-39915000D01*
G75*
G02*
X45313000Y-40165000I0J-250000D01*
G01*
X45313000Y-41115000D01*
G75*
G02*
X45063000Y-41365000I-250000J0D01*
G01*
X44388000Y-41365000D01*
G75*
G02*
X44138000Y-41115000I0J250000D01*
G01*
G37*
%TD.AperFunction*%
%TO.P,C7,1*%
%TO.N,+BATT*%
%TA.AperFunction,SMDPad,CuDef*%
G36*
G01*
X42063000Y-41115000D02*
X42063000Y-40165000D01*
G75*
G02*
X42313000Y-39915000I250000J0D01*
G01*
X42988000Y-39915000D01*
G75*
G02*
X43238000Y-40165000I0J-250000D01*
G01*
X43238000Y-41115000D01*
G75*
G02*
X42988000Y-41365000I-250000J0D01*
G01*
X42313000Y-41365000D01*
G75*
G02*
X42063000Y-41115000I0J250000D01*
G01*
G37*
%TD.AperFunction*%
%TD*%
%TO.P,C4,2*%
%TO.N,GNDA*%
%TA.AperFunction,SMDPad,CuDef*%
G36*
G01*
X48620000Y-28372000D02*
X42820000Y-28372000D01*
G75*
G02*
X42570000Y-28122000I0J250000D01*
G01*
X42570000Y-25947000D01*
G75*
G02*
X42820000Y-25697000I250000J0D01*
G01*
X48620000Y-25697000D01*
G75*
G02*
X48870000Y-25947000I0J-250000D01*
G01*
X48870000Y-28122000D01*
G75*
G02*
X48620000Y-28372000I-250000J0D01*
G01*
G37*
%TD.AperFunction*%
%TO.P,C4,1*%
%TO.N,+BATT*%
%TA.AperFunction,SMDPad,CuDef*%
G36*
G01*
X48620000Y-34247000D02*
X42820000Y-34247000D01*
G75*
G02*
X42570000Y-33997000I0J250000D01*
G01*
X42570000Y-31822000D01*
G75*
G02*
X42820000Y-31572000I250000J0D01*
G01*
X48620000Y-31572000D01*
G75*
G02*
X48870000Y-31822000I0J-250000D01*
G01*
X48870000Y-33997000D01*
G75*
G02*
X48620000Y-34247000I-250000J0D01*
G01*
G37*
%TD.AperFunction*%
%TD*%
%TO.P,C1,2*%
%TO.N,GNDA*%
%TA.AperFunction,SMDPad,CuDef*%
G36*
G01*
X65267678Y-56595927D02*
X64595927Y-57267678D01*
G75*
G02*
X64242373Y-57267678I-176777J176777D01*
G01*
X63765076Y-56790381D01*
G75*
G02*
X63765076Y-56436827I176777J176777D01*
G01*
X64436827Y-55765076D01*
G75*
G02*
X64790381Y-55765076I176777J-176777D01*
G01*
X65267678Y-56242373D01*
G75*
G02*
X65267678Y-56595927I-176777J-176777D01*
G01*
G37*
%TD.AperFunction*%
%TO.P,C1,1*%
%TO.N,+3V3*%
%TA.AperFunction,SMDPad,CuDef*%
G36*
G01*
X66734924Y-58063173D02*
X66063173Y-58734924D01*
G75*
G02*
X65709619Y-58734924I-176777J176777D01*
G01*
X65232322Y-58257627D01*
G75*
G02*
X65232322Y-57904073I176777J176777D01*
G01*
X65904073Y-57232322D01*
G75*
G02*
X66257627Y-57232322I176777J-176777D01*
G01*
X66734924Y-57709619D01*
G75*
G02*
X66734924Y-58063173I-176777J-176777D01*
G01*
G37*
%TD.AperFunction*%
%TD*%
D21*
%TO.P,BT1,2*%
%TO.N,GNDA*%
X37846000Y-27178000D03*
D22*
%TO.P,BT1,1*%
%TO.N,Net-(BT1-Pad1)*%
X37846000Y-29718000D03*
%TD*%
D23*
%TO.N,GNDA*%
X46228000Y-52578000D03*
%TO.N,+3V3*%
X67250000Y-59250000D03*
X54610000Y-41148000D03*
%TD*%
D24*
%TO.N,GNDA*%
X55118000Y-38308998D02*
X48514000Y-44912998D01*
X55118000Y-37846000D02*
X55118000Y-38308998D01*
X48514000Y-50292000D02*
X46228000Y-52578000D01*
X48514000Y-44912998D02*
X48514000Y-50292000D01*
X52578000Y-37846000D02*
X52578000Y-38862000D01*
X52578000Y-38862000D02*
X47244000Y-44196000D01*
X47244000Y-51562000D02*
X46228000Y-52578000D01*
X47244000Y-44196000D02*
X47244000Y-51562000D01*
X50038000Y-37846000D02*
X50038000Y-39370000D01*
X46228000Y-43180000D02*
X46228000Y-52578000D01*
X50038000Y-39370000D02*
X46228000Y-43180000D01*
X45466000Y-51816000D02*
X46228000Y-52578000D01*
X45466000Y-42672000D02*
X45466000Y-51816000D01*
X47498000Y-40640000D02*
X45466000Y-42672000D01*
X47498000Y-37846000D02*
X47498000Y-40640000D01*
D25*
%TO.N,Net-(BT1-Pad1)*%
X37846000Y-31496000D02*
X40386000Y-34036000D01*
X37846000Y-29718000D02*
X37846000Y-31496000D01*
%TO.N,+3V3*%
X43323500Y-50436500D02*
X43323500Y-53340000D01*
X38607000Y-45720000D02*
X43323500Y-50436500D01*
X36982000Y-45720000D02*
X38607000Y-45720000D01*
X57537759Y-70762721D02*
X57537759Y-70657720D01*
X43323500Y-53340000D02*
X44847500Y-54864000D01*
X46532002Y-54864000D02*
X50546000Y-50850002D01*
X44847500Y-54864000D02*
X46532002Y-54864000D01*
X50546000Y-45212000D02*
X54610000Y-41148000D01*
X50546000Y-50850002D02*
X50546000Y-45212000D01*
X58876000Y-41148000D02*
X59638000Y-40386000D01*
X54610000Y-41148000D02*
X58876000Y-41148000D01*
X43323500Y-53340000D02*
X44196000Y-54212500D01*
X44196000Y-54212500D02*
X44196000Y-58166000D01*
X45666000Y-58166000D02*
X45700000Y-58200000D01*
X44196000Y-58166000D02*
X45666000Y-58166000D01*
%TO.N,+BATT*%
X42093500Y-36536000D02*
X45720000Y-32909500D01*
X40386000Y-36536000D02*
X42093500Y-36536000D01*
X45720000Y-32909500D02*
X45720000Y-35306000D01*
X42650500Y-38375500D02*
X42650500Y-40640000D01*
X45720000Y-35306000D02*
X42650500Y-38375500D01*
X42650500Y-40640000D02*
X42650500Y-41169500D01*
X40400000Y-43420000D02*
X36982000Y-43420000D01*
X42650500Y-41169500D02*
X40400000Y-43420000D01*
D24*
%TO.N,Net-(D7-Pad2)*%
X76025305Y-59429253D02*
X77298026Y-60701974D01*
X76025305Y-58174695D02*
X76025305Y-59429253D01*
%TO.N,/XRES*%
X62738000Y-37742000D02*
X62992000Y-37488000D01*
X62738000Y-40386000D02*
X62738000Y-37742000D01*
X62738000Y-40386000D02*
X62738000Y-42164000D01*
X62738000Y-42164000D02*
X59182000Y-45720000D01*
X59182000Y-45720000D02*
X59182000Y-65532000D01*
X62402761Y-68752761D02*
X62402761Y-69260761D01*
X59182000Y-65532000D02*
X62402761Y-68752761D01*
X62402761Y-69260761D02*
X62992000Y-69850000D01*
X65770000Y-71477106D02*
X65770000Y-70770000D01*
X65527105Y-71720001D02*
X65770000Y-71477106D01*
X64043999Y-71720001D02*
X65527105Y-71720001D01*
X62992000Y-70668002D02*
X64043999Y-71720001D01*
X62992000Y-69850000D02*
X62992000Y-70668002D01*
%TO.N,/TIP_SENSOR3*%
X41670000Y-66600000D02*
X39670000Y-64600000D01*
X42600000Y-66600000D02*
X41670000Y-66600000D01*
%TO.N,/TIP_SENSOR2*%
X42130000Y-63330000D02*
X39670000Y-63330000D01*
X42600000Y-63800000D02*
X42130000Y-63330000D01*
%TO.N,/TIP_SENSOR1*%
X41540000Y-62060000D02*
X39670000Y-62060000D01*
X42600000Y-61000000D02*
X41540000Y-62060000D01*
%TO.N,/TIP_SENSOR0*%
X42260000Y-58200000D02*
X39670000Y-60790000D01*
X42600000Y-58200000D02*
X42260000Y-58200000D01*
%TD*%
D26*
%TO.N,+BATT*%
X86487000Y-32639000D02*
X64799980Y-32639000D01*
X64318796Y-32398408D01*
X64295544Y-32389510D01*
X64262000Y-32385000D01*
X63844164Y-32385000D01*
X64034252Y-32257987D01*
X64261987Y-32030252D01*
X64440918Y-31762463D01*
X64449394Y-31742000D01*
X65155928Y-31742000D01*
X65168188Y-31866482D01*
X65204498Y-31986180D01*
X65263463Y-32096494D01*
X65342815Y-32193185D01*
X65439506Y-32272537D01*
X65549820Y-32331502D01*
X65669518Y-32367812D01*
X65794000Y-32380072D01*
X66008250Y-32377000D01*
X66167000Y-32218250D01*
X66167000Y-31369000D01*
X65317750Y-31369000D01*
X65159000Y-31527750D01*
X65155928Y-31742000D01*
X64449394Y-31742000D01*
X64564168Y-31464912D01*
X64627000Y-31149033D01*
X64627000Y-30826967D01*
X64610100Y-30742000D01*
X65155928Y-30742000D01*
X65159000Y-30956250D01*
X65317750Y-31115000D01*
X66167000Y-31115000D01*
X66167000Y-30265750D01*
X66421000Y-30265750D01*
X66421000Y-31115000D01*
X66432026Y-31115000D01*
X66429000Y-31130212D01*
X66429000Y-31353788D01*
X66432026Y-31369000D01*
X66421000Y-31369000D01*
X66421000Y-32218250D01*
X66579750Y-32377000D01*
X66794000Y-32380072D01*
X66918482Y-32367812D01*
X67038180Y-32331502D01*
X67121226Y-32287112D01*
X67232933Y-32333383D01*
X67452212Y-32377000D01*
X67675788Y-32377000D01*
X67895067Y-32333383D01*
X68101624Y-32247824D01*
X68199000Y-32182759D01*
X68296376Y-32247824D01*
X68502933Y-32333383D01*
X68722212Y-32377000D01*
X68945788Y-32377000D01*
X69165067Y-32333383D01*
X69371624Y-32247824D01*
X69557520Y-32123612D01*
X69715612Y-31965520D01*
X69839824Y-31779624D01*
X69855408Y-31742000D01*
X70743928Y-31742000D01*
X70756188Y-31866482D01*
X70792498Y-31986180D01*
X70851463Y-32096494D01*
X70930815Y-32193185D01*
X71027506Y-32272537D01*
X71137820Y-32331502D01*
X71257518Y-32367812D01*
X71382000Y-32380072D01*
X71596250Y-32377000D01*
X71755000Y-32218250D01*
X71755000Y-31369000D01*
X70905750Y-31369000D01*
X70747000Y-31527750D01*
X70743928Y-31742000D01*
X69855408Y-31742000D01*
X69925383Y-31573067D01*
X69969000Y-31353788D01*
X69969000Y-31130212D01*
X69925383Y-30910933D01*
X69855409Y-30742000D01*
X70743928Y-30742000D01*
X70747000Y-30956250D01*
X70905750Y-31115000D01*
X71755000Y-31115000D01*
X71755000Y-30265750D01*
X72009000Y-30265750D01*
X72009000Y-31115000D01*
X72020026Y-31115000D01*
X72017000Y-31130212D01*
X72017000Y-31353788D01*
X72020026Y-31369000D01*
X72009000Y-31369000D01*
X72009000Y-32218250D01*
X72167750Y-32377000D01*
X72382000Y-32380072D01*
X72506482Y-32367812D01*
X72626180Y-32331502D01*
X72709226Y-32287112D01*
X72820933Y-32333383D01*
X73040212Y-32377000D01*
X73263788Y-32377000D01*
X73483067Y-32333383D01*
X73689624Y-32247824D01*
X73787000Y-32182759D01*
X73884376Y-32247824D01*
X74090933Y-32333383D01*
X74310212Y-32377000D01*
X74533788Y-32377000D01*
X74753067Y-32333383D01*
X74959624Y-32247824D01*
X75145520Y-32123612D01*
X75303612Y-31965520D01*
X75427824Y-31779624D01*
X75443408Y-31742000D01*
X76331928Y-31742000D01*
X76344188Y-31866482D01*
X76380498Y-31986180D01*
X76439463Y-32096494D01*
X76518815Y-32193185D01*
X76615506Y-32272537D01*
X76725820Y-32331502D01*
X76845518Y-32367812D01*
X76970000Y-32380072D01*
X77184250Y-32377000D01*
X77343000Y-32218250D01*
X77343000Y-31369000D01*
X76493750Y-31369000D01*
X76335000Y-31527750D01*
X76331928Y-31742000D01*
X75443408Y-31742000D01*
X75513383Y-31573067D01*
X75557000Y-31353788D01*
X75557000Y-31130212D01*
X75513383Y-30910933D01*
X75443409Y-30742000D01*
X76331928Y-30742000D01*
X76335000Y-30956250D01*
X76493750Y-31115000D01*
X77343000Y-31115000D01*
X77343000Y-30265750D01*
X77597000Y-30265750D01*
X77597000Y-31115000D01*
X77608026Y-31115000D01*
X77605000Y-31130212D01*
X77605000Y-31353788D01*
X77608026Y-31369000D01*
X77597000Y-31369000D01*
X77597000Y-32218250D01*
X77755750Y-32377000D01*
X77970000Y-32380072D01*
X78094482Y-32367812D01*
X78214180Y-32331502D01*
X78297226Y-32287112D01*
X78408933Y-32333383D01*
X78628212Y-32377000D01*
X78851788Y-32377000D01*
X79071067Y-32333383D01*
X79277624Y-32247824D01*
X79375000Y-32182759D01*
X79472376Y-32247824D01*
X79678933Y-32333383D01*
X79898212Y-32377000D01*
X80121788Y-32377000D01*
X80341067Y-32333383D01*
X80547624Y-32247824D01*
X80733520Y-32123612D01*
X80891612Y-31965520D01*
X81015824Y-31779624D01*
X81031408Y-31742000D01*
X81665928Y-31742000D01*
X81678188Y-31866482D01*
X81714498Y-31986180D01*
X81773463Y-32096494D01*
X81852815Y-32193185D01*
X81949506Y-32272537D01*
X82059820Y-32331502D01*
X82179518Y-32367812D01*
X82304000Y-32380072D01*
X82518250Y-32377000D01*
X82677000Y-32218250D01*
X82677000Y-31369000D01*
X81827750Y-31369000D01*
X81669000Y-31527750D01*
X81665928Y-31742000D01*
X81031408Y-31742000D01*
X81101383Y-31573067D01*
X81145000Y-31353788D01*
X81145000Y-31130212D01*
X81101383Y-30910933D01*
X81031409Y-30742000D01*
X81665928Y-30742000D01*
X81669000Y-30956250D01*
X81827750Y-31115000D01*
X82677000Y-31115000D01*
X82677000Y-30265750D01*
X82931000Y-30265750D01*
X82931000Y-31115000D01*
X82942026Y-31115000D01*
X82939000Y-31130212D01*
X82939000Y-31353788D01*
X82942026Y-31369000D01*
X82931000Y-31369000D01*
X82931000Y-32218250D01*
X83089750Y-32377000D01*
X83304000Y-32380072D01*
X83428482Y-32367812D01*
X83548180Y-32331502D01*
X83631226Y-32287112D01*
X83742933Y-32333383D01*
X83962212Y-32377000D01*
X84185788Y-32377000D01*
X84405067Y-32333383D01*
X84611624Y-32247824D01*
X84709000Y-32182759D01*
X84806376Y-32247824D01*
X85012933Y-32333383D01*
X85232212Y-32377000D01*
X85455788Y-32377000D01*
X85675067Y-32333383D01*
X85881624Y-32247824D01*
X86067520Y-32123612D01*
X86225612Y-31965520D01*
X86349824Y-31779624D01*
X86435383Y-31573067D01*
X86479000Y-31353788D01*
X86479000Y-31130212D01*
X86435383Y-30910933D01*
X86349824Y-30704376D01*
X86225612Y-30518480D01*
X86067520Y-30360388D01*
X85881624Y-30236176D01*
X85675067Y-30150617D01*
X85455788Y-30107000D01*
X85232212Y-30107000D01*
X85012933Y-30150617D01*
X84806376Y-30236176D01*
X84709000Y-30301241D01*
X84611624Y-30236176D01*
X84405067Y-30150617D01*
X84185788Y-30107000D01*
X83962212Y-30107000D01*
X83742933Y-30150617D01*
X83631226Y-30196888D01*
X83548180Y-30152498D01*
X83428482Y-30116188D01*
X83304000Y-30103928D01*
X83089750Y-30107000D01*
X82931000Y-30265750D01*
X82677000Y-30265750D01*
X82518250Y-30107000D01*
X82304000Y-30103928D01*
X82179518Y-30116188D01*
X82059820Y-30152498D01*
X81949506Y-30211463D01*
X81852815Y-30290815D01*
X81773463Y-30387506D01*
X81714498Y-30497820D01*
X81678188Y-30617518D01*
X81665928Y-30742000D01*
X81031409Y-30742000D01*
X81015824Y-30704376D01*
X80891612Y-30518480D01*
X80733520Y-30360388D01*
X80547624Y-30236176D01*
X80341067Y-30150617D01*
X80121788Y-30107000D01*
X79898212Y-30107000D01*
X79678933Y-30150617D01*
X79472376Y-30236176D01*
X79375000Y-30301241D01*
X79277624Y-30236176D01*
X79071067Y-30150617D01*
X78851788Y-30107000D01*
X78628212Y-30107000D01*
X78408933Y-30150617D01*
X78297226Y-30196888D01*
X78214180Y-30152498D01*
X78094482Y-30116188D01*
X77970000Y-30103928D01*
X77755750Y-30107000D01*
X77597000Y-30265750D01*
X77343000Y-30265750D01*
X77184250Y-30107000D01*
X76970000Y-30103928D01*
X76845518Y-30116188D01*
X76725820Y-30152498D01*
X76615506Y-30211463D01*
X76518815Y-30290815D01*
X76439463Y-30387506D01*
X76380498Y-30497820D01*
X76344188Y-30617518D01*
X76331928Y-30742000D01*
X75443409Y-30742000D01*
X75427824Y-30704376D01*
X75303612Y-30518480D01*
X75145520Y-30360388D01*
X74959624Y-30236176D01*
X74753067Y-30150617D01*
X74533788Y-30107000D01*
X74310212Y-30107000D01*
X74090933Y-30150617D01*
X73884376Y-30236176D01*
X73787000Y-30301241D01*
X73689624Y-30236176D01*
X73483067Y-30150617D01*
X73263788Y-30107000D01*
X73040212Y-30107000D01*
X72820933Y-30150617D01*
X72709226Y-30196888D01*
X72626180Y-30152498D01*
X72506482Y-30116188D01*
X72382000Y-30103928D01*
X72167750Y-30107000D01*
X72009000Y-30265750D01*
X71755000Y-30265750D01*
X71596250Y-30107000D01*
X71382000Y-30103928D01*
X71257518Y-30116188D01*
X71137820Y-30152498D01*
X71027506Y-30211463D01*
X70930815Y-30290815D01*
X70851463Y-30387506D01*
X70792498Y-30497820D01*
X70756188Y-30617518D01*
X70743928Y-30742000D01*
X69855409Y-30742000D01*
X69839824Y-30704376D01*
X69715612Y-30518480D01*
X69557520Y-30360388D01*
X69371624Y-30236176D01*
X69165067Y-30150617D01*
X68945788Y-30107000D01*
X68722212Y-30107000D01*
X68502933Y-30150617D01*
X68296376Y-30236176D01*
X68199000Y-30301241D01*
X68101624Y-30236176D01*
X67895067Y-30150617D01*
X67675788Y-30107000D01*
X67452212Y-30107000D01*
X67232933Y-30150617D01*
X67121226Y-30196888D01*
X67038180Y-30152498D01*
X66918482Y-30116188D01*
X66794000Y-30103928D01*
X66579750Y-30107000D01*
X66421000Y-30265750D01*
X66167000Y-30265750D01*
X66008250Y-30107000D01*
X65794000Y-30103928D01*
X65669518Y-30116188D01*
X65549820Y-30152498D01*
X65439506Y-30211463D01*
X65342815Y-30290815D01*
X65263463Y-30387506D01*
X65204498Y-30497820D01*
X65168188Y-30617518D01*
X65155928Y-30742000D01*
X64610100Y-30742000D01*
X64564168Y-30511088D01*
X64440918Y-30213537D01*
X64261987Y-29945748D01*
X64034252Y-29718013D01*
X63766463Y-29539082D01*
X63468912Y-29415832D01*
X63153033Y-29353000D01*
X62830967Y-29353000D01*
X62515088Y-29415832D01*
X62217537Y-29539082D01*
X61949748Y-29718013D01*
X61722013Y-29945748D01*
X61543082Y-30213537D01*
X61419832Y-30511088D01*
X61357000Y-30826967D01*
X61357000Y-31149033D01*
X61419832Y-31464912D01*
X61543082Y-31762463D01*
X61722013Y-32030252D01*
X61949748Y-32257987D01*
X62139836Y-32385000D01*
X59344164Y-32385000D01*
X59534252Y-32257987D01*
X59761987Y-32030252D01*
X59940918Y-31762463D01*
X60064168Y-31464912D01*
X60127000Y-31149033D01*
X60127000Y-30826967D01*
X60064168Y-30511088D01*
X59940918Y-30213537D01*
X59761987Y-29945748D01*
X59534252Y-29718013D01*
X59266463Y-29539082D01*
X58968912Y-29415832D01*
X58653033Y-29353000D01*
X58330967Y-29353000D01*
X58015088Y-29415832D01*
X57717537Y-29539082D01*
X57449748Y-29718013D01*
X57222013Y-29945748D01*
X57043082Y-30213537D01*
X56919832Y-30511088D01*
X56857000Y-30826967D01*
X56857000Y-31149033D01*
X56919832Y-31464912D01*
X57043082Y-31762463D01*
X57222013Y-32030252D01*
X57449748Y-32257987D01*
X57639836Y-32385000D01*
X56388000Y-32385000D01*
X56363224Y-32387440D01*
X56343891Y-32392906D01*
X49507237Y-34925000D01*
X44069000Y-34925000D01*
X44069000Y-34883464D01*
X45434250Y-34882000D01*
X45593000Y-34723250D01*
X45593000Y-33036500D01*
X45847000Y-33036500D01*
X45847000Y-34723250D01*
X46005750Y-34882000D01*
X48870000Y-34885072D01*
X48994482Y-34872812D01*
X49114180Y-34836502D01*
X49224494Y-34777537D01*
X49321185Y-34698185D01*
X49400537Y-34601494D01*
X49459502Y-34491180D01*
X49495812Y-34371482D01*
X49508072Y-34247000D01*
X49505000Y-33195250D01*
X49346250Y-33036500D01*
X45847000Y-33036500D01*
X45593000Y-33036500D01*
X45573000Y-33036500D01*
X45573000Y-32782500D01*
X45593000Y-32782500D01*
X45593000Y-31095750D01*
X45847000Y-31095750D01*
X45847000Y-32782500D01*
X49346250Y-32782500D01*
X49505000Y-32623750D01*
X49508072Y-31572000D01*
X49495812Y-31447518D01*
X49459502Y-31327820D01*
X49400537Y-31217506D01*
X49321185Y-31120815D01*
X49224494Y-31041463D01*
X49114180Y-30982498D01*
X48994482Y-30946188D01*
X48870000Y-30933928D01*
X46005750Y-30937000D01*
X45847000Y-31095750D01*
X45593000Y-31095750D01*
X45434250Y-30937000D01*
X44069000Y-30935536D01*
X44069000Y-30353000D01*
X50038000Y-30353000D01*
X50062776Y-30350560D01*
X50079543Y-30346013D01*
X56663358Y-28067000D01*
X86487000Y-28067000D01*
X86487000Y-32639000D01*
%TA.AperFunction,Conductor*%
D27*
G36*
X86487000Y-32639000D02*
G01*
X64799980Y-32639000D01*
X64318796Y-32398408D01*
X64295544Y-32389510D01*
X64262000Y-32385000D01*
X63844164Y-32385000D01*
X64034252Y-32257987D01*
X64261987Y-32030252D01*
X64440918Y-31762463D01*
X64449394Y-31742000D01*
X65155928Y-31742000D01*
X65168188Y-31866482D01*
X65204498Y-31986180D01*
X65263463Y-32096494D01*
X65342815Y-32193185D01*
X65439506Y-32272537D01*
X65549820Y-32331502D01*
X65669518Y-32367812D01*
X65794000Y-32380072D01*
X66008250Y-32377000D01*
X66167000Y-32218250D01*
X66167000Y-31369000D01*
X65317750Y-31369000D01*
X65159000Y-31527750D01*
X65155928Y-31742000D01*
X64449394Y-31742000D01*
X64564168Y-31464912D01*
X64627000Y-31149033D01*
X64627000Y-30826967D01*
X64610100Y-30742000D01*
X65155928Y-30742000D01*
X65159000Y-30956250D01*
X65317750Y-31115000D01*
X66167000Y-31115000D01*
X66167000Y-30265750D01*
X66421000Y-30265750D01*
X66421000Y-31115000D01*
X66432026Y-31115000D01*
X66429000Y-31130212D01*
X66429000Y-31353788D01*
X66432026Y-31369000D01*
X66421000Y-31369000D01*
X66421000Y-32218250D01*
X66579750Y-32377000D01*
X66794000Y-32380072D01*
X66918482Y-32367812D01*
X67038180Y-32331502D01*
X67121226Y-32287112D01*
X67232933Y-32333383D01*
X67452212Y-32377000D01*
X67675788Y-32377000D01*
X67895067Y-32333383D01*
X68101624Y-32247824D01*
X68199000Y-32182759D01*
X68296376Y-32247824D01*
X68502933Y-32333383D01*
X68722212Y-32377000D01*
X68945788Y-32377000D01*
X69165067Y-32333383D01*
X69371624Y-32247824D01*
X69557520Y-32123612D01*
X69715612Y-31965520D01*
X69839824Y-31779624D01*
X69855408Y-31742000D01*
X70743928Y-31742000D01*
X70756188Y-31866482D01*
X70792498Y-31986180D01*
X70851463Y-32096494D01*
X70930815Y-32193185D01*
X71027506Y-32272537D01*
X71137820Y-32331502D01*
X71257518Y-32367812D01*
X71382000Y-32380072D01*
X71596250Y-32377000D01*
X71755000Y-32218250D01*
X71755000Y-31369000D01*
X70905750Y-31369000D01*
X70747000Y-31527750D01*
X70743928Y-31742000D01*
X69855408Y-31742000D01*
X69925383Y-31573067D01*
X69969000Y-31353788D01*
X69969000Y-31130212D01*
X69925383Y-30910933D01*
X69855409Y-30742000D01*
X70743928Y-30742000D01*
X70747000Y-30956250D01*
X70905750Y-31115000D01*
X71755000Y-31115000D01*
X71755000Y-30265750D01*
X72009000Y-30265750D01*
X72009000Y-31115000D01*
X72020026Y-31115000D01*
X72017000Y-31130212D01*
X72017000Y-31353788D01*
X72020026Y-31369000D01*
X72009000Y-31369000D01*
X72009000Y-32218250D01*
X72167750Y-32377000D01*
X72382000Y-32380072D01*
X72506482Y-32367812D01*
X72626180Y-32331502D01*
X72709226Y-32287112D01*
X72820933Y-32333383D01*
X73040212Y-32377000D01*
X73263788Y-32377000D01*
X73483067Y-32333383D01*
X73689624Y-32247824D01*
X73787000Y-32182759D01*
X73884376Y-32247824D01*
X74090933Y-32333383D01*
X74310212Y-32377000D01*
X74533788Y-32377000D01*
X74753067Y-32333383D01*
X74959624Y-32247824D01*
X75145520Y-32123612D01*
X75303612Y-31965520D01*
X75427824Y-31779624D01*
X75443408Y-31742000D01*
X76331928Y-31742000D01*
X76344188Y-31866482D01*
X76380498Y-31986180D01*
X76439463Y-32096494D01*
X76518815Y-32193185D01*
X76615506Y-32272537D01*
X76725820Y-32331502D01*
X76845518Y-32367812D01*
X76970000Y-32380072D01*
X77184250Y-32377000D01*
X77343000Y-32218250D01*
X77343000Y-31369000D01*
X76493750Y-31369000D01*
X76335000Y-31527750D01*
X76331928Y-31742000D01*
X75443408Y-31742000D01*
X75513383Y-31573067D01*
X75557000Y-31353788D01*
X75557000Y-31130212D01*
X75513383Y-30910933D01*
X75443409Y-30742000D01*
X76331928Y-30742000D01*
X76335000Y-30956250D01*
X76493750Y-31115000D01*
X77343000Y-31115000D01*
X77343000Y-30265750D01*
X77597000Y-30265750D01*
X77597000Y-31115000D01*
X77608026Y-31115000D01*
X77605000Y-31130212D01*
X77605000Y-31353788D01*
X77608026Y-31369000D01*
X77597000Y-31369000D01*
X77597000Y-32218250D01*
X77755750Y-32377000D01*
X77970000Y-32380072D01*
X78094482Y-32367812D01*
X78214180Y-32331502D01*
X78297226Y-32287112D01*
X78408933Y-32333383D01*
X78628212Y-32377000D01*
X78851788Y-32377000D01*
X79071067Y-32333383D01*
X79277624Y-32247824D01*
X79375000Y-32182759D01*
X79472376Y-32247824D01*
X79678933Y-32333383D01*
X79898212Y-32377000D01*
X80121788Y-32377000D01*
X80341067Y-32333383D01*
X80547624Y-32247824D01*
X80733520Y-32123612D01*
X80891612Y-31965520D01*
X81015824Y-31779624D01*
X81031408Y-31742000D01*
X81665928Y-31742000D01*
X81678188Y-31866482D01*
X81714498Y-31986180D01*
X81773463Y-32096494D01*
X81852815Y-32193185D01*
X81949506Y-32272537D01*
X82059820Y-32331502D01*
X82179518Y-32367812D01*
X82304000Y-32380072D01*
X82518250Y-32377000D01*
X82677000Y-32218250D01*
X82677000Y-31369000D01*
X81827750Y-31369000D01*
X81669000Y-31527750D01*
X81665928Y-31742000D01*
X81031408Y-31742000D01*
X81101383Y-31573067D01*
X81145000Y-31353788D01*
X81145000Y-31130212D01*
X81101383Y-30910933D01*
X81031409Y-30742000D01*
X81665928Y-30742000D01*
X81669000Y-30956250D01*
X81827750Y-31115000D01*
X82677000Y-31115000D01*
X82677000Y-30265750D01*
X82931000Y-30265750D01*
X82931000Y-31115000D01*
X82942026Y-31115000D01*
X82939000Y-31130212D01*
X82939000Y-31353788D01*
X82942026Y-31369000D01*
X82931000Y-31369000D01*
X82931000Y-32218250D01*
X83089750Y-32377000D01*
X83304000Y-32380072D01*
X83428482Y-32367812D01*
X83548180Y-32331502D01*
X83631226Y-32287112D01*
X83742933Y-32333383D01*
X83962212Y-32377000D01*
X84185788Y-32377000D01*
X84405067Y-32333383D01*
X84611624Y-32247824D01*
X84709000Y-32182759D01*
X84806376Y-32247824D01*
X85012933Y-32333383D01*
X85232212Y-32377000D01*
X85455788Y-32377000D01*
X85675067Y-32333383D01*
X85881624Y-32247824D01*
X86067520Y-32123612D01*
X86225612Y-31965520D01*
X86349824Y-31779624D01*
X86435383Y-31573067D01*
X86479000Y-31353788D01*
X86479000Y-31130212D01*
X86435383Y-30910933D01*
X86349824Y-30704376D01*
X86225612Y-30518480D01*
X86067520Y-30360388D01*
X85881624Y-30236176D01*
X85675067Y-30150617D01*
X85455788Y-30107000D01*
X85232212Y-30107000D01*
X85012933Y-30150617D01*
X84806376Y-30236176D01*
X84709000Y-30301241D01*
X84611624Y-30236176D01*
X84405067Y-30150617D01*
X84185788Y-30107000D01*
X83962212Y-30107000D01*
X83742933Y-30150617D01*
X83631226Y-30196888D01*
X83548180Y-30152498D01*
X83428482Y-30116188D01*
X83304000Y-30103928D01*
X83089750Y-30107000D01*
X82931000Y-30265750D01*
X82677000Y-30265750D01*
X82518250Y-30107000D01*
X82304000Y-30103928D01*
X82179518Y-30116188D01*
X82059820Y-30152498D01*
X81949506Y-30211463D01*
X81852815Y-30290815D01*
X81773463Y-30387506D01*
X81714498Y-30497820D01*
X81678188Y-30617518D01*
X81665928Y-30742000D01*
X81031409Y-30742000D01*
X81015824Y-30704376D01*
X80891612Y-30518480D01*
X80733520Y-30360388D01*
X80547624Y-30236176D01*
X80341067Y-30150617D01*
X80121788Y-30107000D01*
X79898212Y-30107000D01*
X79678933Y-30150617D01*
X79472376Y-30236176D01*
X79375000Y-30301241D01*
X79277624Y-30236176D01*
X79071067Y-30150617D01*
X78851788Y-30107000D01*
X78628212Y-30107000D01*
X78408933Y-30150617D01*
X78297226Y-30196888D01*
X78214180Y-30152498D01*
X78094482Y-30116188D01*
X77970000Y-30103928D01*
X77755750Y-30107000D01*
X77597000Y-30265750D01*
X77343000Y-30265750D01*
X77184250Y-30107000D01*
X76970000Y-30103928D01*
X76845518Y-30116188D01*
X76725820Y-30152498D01*
X76615506Y-30211463D01*
X76518815Y-30290815D01*
X76439463Y-30387506D01*
X76380498Y-30497820D01*
X76344188Y-30617518D01*
X76331928Y-30742000D01*
X75443409Y-30742000D01*
X75427824Y-30704376D01*
X75303612Y-30518480D01*
X75145520Y-30360388D01*
X74959624Y-30236176D01*
X74753067Y-30150617D01*
X74533788Y-30107000D01*
X74310212Y-30107000D01*
X74090933Y-30150617D01*
X73884376Y-30236176D01*
X73787000Y-30301241D01*
X73689624Y-30236176D01*
X73483067Y-30150617D01*
X73263788Y-30107000D01*
X73040212Y-30107000D01*
X72820933Y-30150617D01*
X72709226Y-30196888D01*
X72626180Y-30152498D01*
X72506482Y-30116188D01*
X72382000Y-30103928D01*
X72167750Y-30107000D01*
X72009000Y-30265750D01*
X71755000Y-30265750D01*
X71596250Y-30107000D01*
X71382000Y-30103928D01*
X71257518Y-30116188D01*
X71137820Y-30152498D01*
X71027506Y-30211463D01*
X70930815Y-30290815D01*
X70851463Y-30387506D01*
X70792498Y-30497820D01*
X70756188Y-30617518D01*
X70743928Y-30742000D01*
X69855409Y-30742000D01*
X69839824Y-30704376D01*
X69715612Y-30518480D01*
X69557520Y-30360388D01*
X69371624Y-30236176D01*
X69165067Y-30150617D01*
X68945788Y-30107000D01*
X68722212Y-30107000D01*
X68502933Y-30150617D01*
X68296376Y-30236176D01*
X68199000Y-30301241D01*
X68101624Y-30236176D01*
X67895067Y-30150617D01*
X67675788Y-30107000D01*
X67452212Y-30107000D01*
X67232933Y-30150617D01*
X67121226Y-30196888D01*
X67038180Y-30152498D01*
X66918482Y-30116188D01*
X66794000Y-30103928D01*
X66579750Y-30107000D01*
X66421000Y-30265750D01*
X66167000Y-30265750D01*
X66008250Y-30107000D01*
X65794000Y-30103928D01*
X65669518Y-30116188D01*
X65549820Y-30152498D01*
X65439506Y-30211463D01*
X65342815Y-30290815D01*
X65263463Y-30387506D01*
X65204498Y-30497820D01*
X65168188Y-30617518D01*
X65155928Y-30742000D01*
X64610100Y-30742000D01*
X64564168Y-30511088D01*
X64440918Y-30213537D01*
X64261987Y-29945748D01*
X64034252Y-29718013D01*
X63766463Y-29539082D01*
X63468912Y-29415832D01*
X63153033Y-29353000D01*
X62830967Y-29353000D01*
X62515088Y-29415832D01*
X62217537Y-29539082D01*
X61949748Y-29718013D01*
X61722013Y-29945748D01*
X61543082Y-30213537D01*
X61419832Y-30511088D01*
X61357000Y-30826967D01*
X61357000Y-31149033D01*
X61419832Y-31464912D01*
X61543082Y-31762463D01*
X61722013Y-32030252D01*
X61949748Y-32257987D01*
X62139836Y-32385000D01*
X59344164Y-32385000D01*
X59534252Y-32257987D01*
X59761987Y-32030252D01*
X59940918Y-31762463D01*
X60064168Y-31464912D01*
X60127000Y-31149033D01*
X60127000Y-30826967D01*
X60064168Y-30511088D01*
X59940918Y-30213537D01*
X59761987Y-29945748D01*
X59534252Y-29718013D01*
X59266463Y-29539082D01*
X58968912Y-29415832D01*
X58653033Y-29353000D01*
X58330967Y-29353000D01*
X58015088Y-29415832D01*
X57717537Y-29539082D01*
X57449748Y-29718013D01*
X57222013Y-29945748D01*
X57043082Y-30213537D01*
X56919832Y-30511088D01*
X56857000Y-30826967D01*
X56857000Y-31149033D01*
X56919832Y-31464912D01*
X57043082Y-31762463D01*
X57222013Y-32030252D01*
X57449748Y-32257987D01*
X57639836Y-32385000D01*
X56388000Y-32385000D01*
X56363224Y-32387440D01*
X56343891Y-32392906D01*
X49507237Y-34925000D01*
X44069000Y-34925000D01*
X44069000Y-34883464D01*
X45434250Y-34882000D01*
X45593000Y-34723250D01*
X45593000Y-33036500D01*
X45847000Y-33036500D01*
X45847000Y-34723250D01*
X46005750Y-34882000D01*
X48870000Y-34885072D01*
X48994482Y-34872812D01*
X49114180Y-34836502D01*
X49224494Y-34777537D01*
X49321185Y-34698185D01*
X49400537Y-34601494D01*
X49459502Y-34491180D01*
X49495812Y-34371482D01*
X49508072Y-34247000D01*
X49505000Y-33195250D01*
X49346250Y-33036500D01*
X45847000Y-33036500D01*
X45593000Y-33036500D01*
X45573000Y-33036500D01*
X45573000Y-32782500D01*
X45593000Y-32782500D01*
X45593000Y-31095750D01*
X45847000Y-31095750D01*
X45847000Y-32782500D01*
X49346250Y-32782500D01*
X49505000Y-32623750D01*
X49508072Y-31572000D01*
X49495812Y-31447518D01*
X49459502Y-31327820D01*
X49400537Y-31217506D01*
X49321185Y-31120815D01*
X49224494Y-31041463D01*
X49114180Y-30982498D01*
X48994482Y-30946188D01*
X48870000Y-30933928D01*
X46005750Y-30937000D01*
X45847000Y-31095750D01*
X45593000Y-31095750D01*
X45434250Y-30937000D01*
X44069000Y-30935536D01*
X44069000Y-30353000D01*
X50038000Y-30353000D01*
X50062776Y-30350560D01*
X50079543Y-30346013D01*
X56663358Y-28067000D01*
X86487000Y-28067000D01*
X86487000Y-32639000D01*
G37*
%TD.AperFunction*%
%TD*%
D26*
%TO.N,+3V3*%
X87732000Y-76810000D02*
X54816681Y-76810000D01*
X54884475Y-76604080D01*
X54000000Y-75719605D01*
X53115525Y-76604080D01*
X53183319Y-76810000D01*
X49816681Y-76810000D01*
X49884475Y-76604080D01*
X49000000Y-75719605D01*
X48115525Y-76604080D01*
X48183319Y-76810000D01*
X44816681Y-76810000D01*
X44884475Y-76604080D01*
X44000000Y-75719605D01*
X43115525Y-76604080D01*
X43183319Y-76810000D01*
X34950000Y-76810000D01*
X34950000Y-75606553D01*
X42459009Y-75606553D01*
X42501603Y-75905907D01*
X42601778Y-76191199D01*
X42681739Y-76340792D01*
X42935920Y-76424475D01*
X43820395Y-75540000D01*
X43806253Y-75525858D01*
X43985858Y-75346253D01*
X44000000Y-75360395D01*
X44014143Y-75346253D01*
X44193748Y-75525858D01*
X44179605Y-75540000D01*
X45064080Y-76424475D01*
X45318261Y-76340792D01*
X45449158Y-76068225D01*
X45524365Y-75775358D01*
X45533660Y-75606553D01*
X47459009Y-75606553D01*
X47501603Y-75905907D01*
X47601778Y-76191199D01*
X47681739Y-76340792D01*
X47935920Y-76424475D01*
X48820395Y-75540000D01*
X48806253Y-75525858D01*
X48985858Y-75346253D01*
X49000000Y-75360395D01*
X49014143Y-75346253D01*
X49193748Y-75525858D01*
X49179605Y-75540000D01*
X50064080Y-76424475D01*
X50318261Y-76340792D01*
X50449158Y-76068225D01*
X50524365Y-75775358D01*
X50533660Y-75606553D01*
X52459009Y-75606553D01*
X52501603Y-75905907D01*
X52601778Y-76191199D01*
X52681739Y-76340792D01*
X52935920Y-76424475D01*
X53820395Y-75540000D01*
X53806253Y-75525858D01*
X53985858Y-75346253D01*
X54000000Y-75360395D01*
X54014143Y-75346253D01*
X54193748Y-75525858D01*
X54179605Y-75540000D01*
X55064080Y-76424475D01*
X55318261Y-76340792D01*
X55449158Y-76068225D01*
X55524365Y-75775358D01*
X55540991Y-75473447D01*
X55498397Y-75174093D01*
X55398222Y-74888801D01*
X55318261Y-74739208D01*
X55064082Y-74655526D01*
X55180030Y-74539578D01*
X55133265Y-74492813D01*
X55144180Y-74489502D01*
X55254494Y-74430537D01*
X55351185Y-74351185D01*
X55430537Y-74254494D01*
X55489502Y-74144180D01*
X55525812Y-74024482D01*
X55538072Y-73900000D01*
X55538072Y-72100000D01*
X55525812Y-71975518D01*
X55489502Y-71855820D01*
X55430537Y-71745506D01*
X55351185Y-71648815D01*
X55254494Y-71569463D01*
X55144180Y-71510498D01*
X55024482Y-71474188D01*
X54900000Y-71461928D01*
X53100000Y-71461928D01*
X52975518Y-71474188D01*
X52855820Y-71510498D01*
X52745506Y-71569463D01*
X52648815Y-71648815D01*
X52569463Y-71745506D01*
X52510498Y-71855820D01*
X52474188Y-71975518D01*
X52461928Y-72100000D01*
X52461928Y-73900000D01*
X52474188Y-74024482D01*
X52510498Y-74144180D01*
X52569463Y-74254494D01*
X52648815Y-74351185D01*
X52745506Y-74430537D01*
X52855820Y-74489502D01*
X52866735Y-74492813D01*
X52819970Y-74539578D01*
X52935918Y-74655526D01*
X52681739Y-74739208D01*
X52550842Y-75011775D01*
X52475635Y-75304642D01*
X52459009Y-75606553D01*
X50533660Y-75606553D01*
X50540991Y-75473447D01*
X50498397Y-75174093D01*
X50398222Y-74888801D01*
X50318261Y-74739208D01*
X50064082Y-74655526D01*
X50180030Y-74539578D01*
X50133265Y-74492813D01*
X50144180Y-74489502D01*
X50254494Y-74430537D01*
X50351185Y-74351185D01*
X50430537Y-74254494D01*
X50489502Y-74144180D01*
X50525812Y-74024482D01*
X50538072Y-73900000D01*
X50538072Y-72100000D01*
X50525812Y-71975518D01*
X50489502Y-71855820D01*
X50430537Y-71745506D01*
X50351185Y-71648815D01*
X50254494Y-71569463D01*
X50144180Y-71510498D01*
X50024482Y-71474188D01*
X49900000Y-71461928D01*
X48100000Y-71461928D01*
X47975518Y-71474188D01*
X47855820Y-71510498D01*
X47745506Y-71569463D01*
X47648815Y-71648815D01*
X47569463Y-71745506D01*
X47510498Y-71855820D01*
X47474188Y-71975518D01*
X47461928Y-72100000D01*
X47461928Y-73900000D01*
X47474188Y-74024482D01*
X47510498Y-74144180D01*
X47569463Y-74254494D01*
X47648815Y-74351185D01*
X47745506Y-74430537D01*
X47855820Y-74489502D01*
X47866735Y-74492813D01*
X47819970Y-74539578D01*
X47935918Y-74655526D01*
X47681739Y-74739208D01*
X47550842Y-75011775D01*
X47475635Y-75304642D01*
X47459009Y-75606553D01*
X45533660Y-75606553D01*
X45540991Y-75473447D01*
X45498397Y-75174093D01*
X45398222Y-74888801D01*
X45318261Y-74739208D01*
X45064082Y-74655526D01*
X45180030Y-74539578D01*
X45133265Y-74492813D01*
X45144180Y-74489502D01*
X45254494Y-74430537D01*
X45351185Y-74351185D01*
X45430537Y-74254494D01*
X45489502Y-74144180D01*
X45525812Y-74024482D01*
X45538072Y-73900000D01*
X45538072Y-72100000D01*
X45525812Y-71975518D01*
X45489502Y-71855820D01*
X45430537Y-71745506D01*
X45351185Y-71648815D01*
X45254494Y-71569463D01*
X45144180Y-71510498D01*
X45024482Y-71474188D01*
X44900000Y-71461928D01*
X43100000Y-71461928D01*
X42975518Y-71474188D01*
X42855820Y-71510498D01*
X42745506Y-71569463D01*
X42648815Y-71648815D01*
X42569463Y-71745506D01*
X42510498Y-71855820D01*
X42474188Y-71975518D01*
X42461928Y-72100000D01*
X42461928Y-73900000D01*
X42474188Y-74024482D01*
X42510498Y-74144180D01*
X42569463Y-74254494D01*
X42648815Y-74351185D01*
X42745506Y-74430537D01*
X42855820Y-74489502D01*
X42866735Y-74492813D01*
X42819970Y-74539578D01*
X42935918Y-74655526D01*
X42681739Y-74739208D01*
X42550842Y-75011775D01*
X42475635Y-75304642D01*
X42459009Y-75606553D01*
X34950000Y-75606553D01*
X34950000Y-70932553D01*
X36305009Y-70932553D01*
X36347603Y-71231907D01*
X36447778Y-71517199D01*
X36527739Y-71666792D01*
X36781920Y-71750475D01*
X37666395Y-70866000D01*
X36781920Y-69981525D01*
X36527739Y-70065208D01*
X36396842Y-70337775D01*
X36321635Y-70630642D01*
X36305009Y-70932553D01*
X34950000Y-70932553D01*
X34950000Y-69801920D01*
X36961525Y-69801920D01*
X37846000Y-70686395D01*
X37860143Y-70672253D01*
X38039748Y-70851858D01*
X38025605Y-70866000D01*
X38039748Y-70880143D01*
X37860143Y-71059748D01*
X37846000Y-71045605D01*
X36961525Y-71930080D01*
X37045208Y-72184261D01*
X37317775Y-72315158D01*
X37610642Y-72390365D01*
X37912553Y-72406991D01*
X38211907Y-72364397D01*
X38497199Y-72264222D01*
X38646792Y-72184261D01*
X38730474Y-71930082D01*
X38846422Y-72046030D01*
X38893187Y-71999265D01*
X38896498Y-72010180D01*
X38955463Y-72120494D01*
X39034815Y-72217185D01*
X39131506Y-72296537D01*
X39241820Y-72355502D01*
X39361518Y-72391812D01*
X39486000Y-72404072D01*
X41286000Y-72404072D01*
X41410482Y-72391812D01*
X41530180Y-72355502D01*
X41640494Y-72296537D01*
X41737185Y-72217185D01*
X41816537Y-72120494D01*
X41875502Y-72010180D01*
X41911812Y-71890482D01*
X41924072Y-71766000D01*
X41924072Y-71157720D01*
X56504688Y-71157720D01*
X56516948Y-71282202D01*
X56553258Y-71401900D01*
X56612223Y-71512214D01*
X56691575Y-71608905D01*
X56788266Y-71688257D01*
X56898580Y-71747222D01*
X57018278Y-71783532D01*
X57142760Y-71795792D01*
X57357010Y-71792720D01*
X57515760Y-71633970D01*
X57515760Y-70784720D01*
X56666510Y-70784720D01*
X56507760Y-70943470D01*
X56504688Y-71157720D01*
X41924072Y-71157720D01*
X41924072Y-70157720D01*
X56504688Y-70157720D01*
X56507760Y-70371970D01*
X56666510Y-70530720D01*
X57515760Y-70530720D01*
X57515760Y-69681470D01*
X57357010Y-69522720D01*
X57142760Y-69519648D01*
X57018278Y-69531908D01*
X56898580Y-69568218D01*
X56788266Y-69627183D01*
X56691575Y-69706535D01*
X56612223Y-69803226D01*
X56553258Y-69913540D01*
X56516948Y-70033238D01*
X56504688Y-70157720D01*
X41924072Y-70157720D01*
X41924072Y-69966000D01*
X41911812Y-69841518D01*
X41875502Y-69721820D01*
X41816537Y-69611506D01*
X41737185Y-69514815D01*
X41640494Y-69435463D01*
X41530180Y-69376498D01*
X41410482Y-69340188D01*
X41286000Y-69327928D01*
X39486000Y-69327928D01*
X39361518Y-69340188D01*
X39241820Y-69376498D01*
X39131506Y-69435463D01*
X39034815Y-69514815D01*
X38955463Y-69611506D01*
X38896498Y-69721820D01*
X38893187Y-69732735D01*
X38846422Y-69685970D01*
X38730474Y-69801918D01*
X38646792Y-69547739D01*
X38374225Y-69416842D01*
X38081358Y-69341635D01*
X37779447Y-69325009D01*
X37480093Y-69367603D01*
X37194801Y-69467778D01*
X37045208Y-69547739D01*
X36961525Y-69801920D01*
X34950000Y-69801920D01*
X34950000Y-68453000D01*
X43942000Y-68453000D01*
X43966776Y-68450560D01*
X43990601Y-68443333D01*
X44012557Y-68431597D01*
X44031803Y-68415803D01*
X44047597Y-68396557D01*
X44059333Y-68374601D01*
X44066560Y-68350776D01*
X44068986Y-68324133D01*
X44056499Y-67475000D01*
X44411928Y-67475000D01*
X44424188Y-67599482D01*
X44460498Y-67719180D01*
X44519463Y-67829494D01*
X44598815Y-67926185D01*
X44695506Y-68005537D01*
X44805820Y-68064502D01*
X44925518Y-68100812D01*
X45050000Y-68113072D01*
X45414250Y-68110000D01*
X45573000Y-67951250D01*
X45573000Y-66727000D01*
X45827000Y-66727000D01*
X45827000Y-67951250D01*
X45985750Y-68110000D01*
X46350000Y-68113072D01*
X46474482Y-68100812D01*
X46594180Y-68064502D01*
X46704494Y-68005537D01*
X46801185Y-67926185D01*
X46880537Y-67829494D01*
X46939502Y-67719180D01*
X46975812Y-67599482D01*
X46988072Y-67475000D01*
X46985000Y-66885750D01*
X46826250Y-66727000D01*
X45827000Y-66727000D01*
X45573000Y-66727000D01*
X44573750Y-66727000D01*
X44415000Y-66885750D01*
X44411928Y-67475000D01*
X44056499Y-67475000D01*
X44015323Y-64675000D01*
X44411928Y-64675000D01*
X44424188Y-64799482D01*
X44460498Y-64919180D01*
X44519463Y-65029494D01*
X44598815Y-65126185D01*
X44688759Y-65200000D01*
X44598815Y-65273815D01*
X44519463Y-65370506D01*
X44460498Y-65480820D01*
X44424188Y-65600518D01*
X44411928Y-65725000D01*
X44415000Y-66314250D01*
X44573750Y-66473000D01*
X45573000Y-66473000D01*
X45573000Y-65248750D01*
X45524250Y-65200000D01*
X45573000Y-65151250D01*
X45573000Y-63927000D01*
X45827000Y-63927000D01*
X45827000Y-65151250D01*
X45875750Y-65200000D01*
X45827000Y-65248750D01*
X45827000Y-66473000D01*
X46826250Y-66473000D01*
X46985000Y-66314250D01*
X46988072Y-65725000D01*
X46975812Y-65600518D01*
X46939502Y-65480820D01*
X46880537Y-65370506D01*
X46801185Y-65273815D01*
X46711241Y-65200000D01*
X46801185Y-65126185D01*
X46880537Y-65029494D01*
X46939502Y-64919180D01*
X46975812Y-64799482D01*
X46988072Y-64675000D01*
X46985000Y-64085750D01*
X46826250Y-63927000D01*
X45827000Y-63927000D01*
X45573000Y-63927000D01*
X44573750Y-63927000D01*
X44415000Y-64085750D01*
X44411928Y-64675000D01*
X44015323Y-64675000D01*
X43974147Y-61875000D01*
X44411928Y-61875000D01*
X44424188Y-61999482D01*
X44460498Y-62119180D01*
X44519463Y-62229494D01*
X44598815Y-62326185D01*
X44688759Y-62400000D01*
X44598815Y-62473815D01*
X44519463Y-62570506D01*
X44460498Y-62680820D01*
X44424188Y-62800518D01*
X44411928Y-62925000D01*
X44415000Y-63514250D01*
X44573750Y-63673000D01*
X45573000Y-63673000D01*
X45573000Y-62448750D01*
X45524250Y-62400000D01*
X45573000Y-62351250D01*
X45573000Y-61127000D01*
X45827000Y-61127000D01*
X45827000Y-62351250D01*
X45875750Y-62400000D01*
X45827000Y-62448750D01*
X45827000Y-63673000D01*
X46826250Y-63673000D01*
X46985000Y-63514250D01*
X46988072Y-62925000D01*
X46975812Y-62800518D01*
X46939502Y-62680820D01*
X46880537Y-62570506D01*
X46801185Y-62473815D01*
X46711241Y-62400000D01*
X46801185Y-62326185D01*
X46880537Y-62229494D01*
X46939502Y-62119180D01*
X46975812Y-61999482D01*
X46988072Y-61875000D01*
X46985000Y-61285750D01*
X46826250Y-61127000D01*
X45827000Y-61127000D01*
X45573000Y-61127000D01*
X44573750Y-61127000D01*
X44415000Y-61285750D01*
X44411928Y-61875000D01*
X43974147Y-61875000D01*
X43941986Y-59688133D01*
X43939182Y-59663395D01*
X43931605Y-59639679D01*
X43919548Y-59617897D01*
X43903472Y-59598887D01*
X43883997Y-59583377D01*
X43861870Y-59571965D01*
X43837942Y-59565089D01*
X43815000Y-59563000D01*
X43493879Y-59563000D01*
X43627962Y-59452962D01*
X43738405Y-59318386D01*
X43820472Y-59164850D01*
X43847727Y-59075000D01*
X44411928Y-59075000D01*
X44424188Y-59199482D01*
X44460498Y-59319180D01*
X44519463Y-59429494D01*
X44598815Y-59526185D01*
X44688759Y-59600000D01*
X44598815Y-59673815D01*
X44519463Y-59770506D01*
X44460498Y-59880820D01*
X44424188Y-60000518D01*
X44411928Y-60125000D01*
X44415000Y-60714250D01*
X44573750Y-60873000D01*
X45573000Y-60873000D01*
X45573000Y-59648750D01*
X45524250Y-59600000D01*
X45573000Y-59551250D01*
X45573000Y-58327000D01*
X45827000Y-58327000D01*
X45827000Y-59551250D01*
X45875750Y-59600000D01*
X45827000Y-59648750D01*
X45827000Y-60873000D01*
X46826250Y-60873000D01*
X46985000Y-60714250D01*
X46988072Y-60125000D01*
X46975812Y-60000518D01*
X46939502Y-59880820D01*
X46880537Y-59770506D01*
X46801185Y-59673815D01*
X46711241Y-59600000D01*
X46801185Y-59526185D01*
X46880537Y-59429494D01*
X46939502Y-59319180D01*
X46975812Y-59199482D01*
X46988072Y-59075000D01*
X46985000Y-58485750D01*
X46826250Y-58327000D01*
X45827000Y-58327000D01*
X45573000Y-58327000D01*
X44573750Y-58327000D01*
X44415000Y-58485750D01*
X44411928Y-59075000D01*
X43847727Y-59075000D01*
X43871008Y-58998254D01*
X43888072Y-58825000D01*
X43888072Y-57575000D01*
X43871008Y-57401746D01*
X43820472Y-57235150D01*
X43761834Y-57125446D01*
X44446354Y-57127445D01*
X44424188Y-57200518D01*
X44411928Y-57325000D01*
X44415000Y-57914250D01*
X44573750Y-58073000D01*
X45573000Y-58073000D01*
X45573000Y-56848750D01*
X45827000Y-56848750D01*
X45827000Y-58073000D01*
X46826250Y-58073000D01*
X46985000Y-57914250D01*
X46988072Y-57325000D01*
X46975812Y-57200518D01*
X46939502Y-57080820D01*
X46880537Y-56970506D01*
X46801185Y-56873815D01*
X46704494Y-56794463D01*
X46594180Y-56735498D01*
X46474482Y-56699188D01*
X46350000Y-56686928D01*
X45985750Y-56690000D01*
X45827000Y-56848750D01*
X45573000Y-56848750D01*
X45414250Y-56690000D01*
X45264288Y-56688735D01*
X45286812Y-56614482D01*
X45299072Y-56490000D01*
X45296156Y-53771423D01*
X45512747Y-53916144D01*
X45787549Y-54029971D01*
X46079278Y-54088000D01*
X46376722Y-54088000D01*
X46668451Y-54029971D01*
X46943253Y-53916144D01*
X47190569Y-53750893D01*
X47400893Y-53540569D01*
X47566144Y-53293253D01*
X47679971Y-53018451D01*
X47706255Y-52886315D01*
X47625285Y-54093501D01*
X47627466Y-54126907D01*
X50167466Y-66826907D01*
X50174718Y-66850724D01*
X50186477Y-66872668D01*
X50202291Y-66891896D01*
X50221553Y-66907670D01*
X50243522Y-66919383D01*
X50267354Y-66926586D01*
X50294645Y-66928972D01*
X59212320Y-66743187D01*
X61567761Y-69098630D01*
X61567761Y-69219743D01*
X61563721Y-69260761D01*
X61567761Y-69301779D01*
X61567761Y-69301780D01*
X61579843Y-69424450D01*
X61612549Y-69532268D01*
X61564548Y-69522720D01*
X61340972Y-69522720D01*
X61121693Y-69566337D01*
X60915136Y-69651896D01*
X60817760Y-69716961D01*
X60720384Y-69651896D01*
X60513827Y-69566337D01*
X60294548Y-69522720D01*
X60070972Y-69522720D01*
X59851693Y-69566337D01*
X59645136Y-69651896D01*
X59547760Y-69716961D01*
X59450384Y-69651896D01*
X59243827Y-69566337D01*
X59024548Y-69522720D01*
X58800972Y-69522720D01*
X58581693Y-69566337D01*
X58469986Y-69612608D01*
X58386940Y-69568218D01*
X58267242Y-69531908D01*
X58142760Y-69519648D01*
X57928510Y-69522720D01*
X57769760Y-69681470D01*
X57769760Y-70530720D01*
X57780786Y-70530720D01*
X57777760Y-70545932D01*
X57777760Y-70769508D01*
X57780786Y-70784720D01*
X57769760Y-70784720D01*
X57769760Y-71633970D01*
X57928510Y-71792720D01*
X58142760Y-71795792D01*
X58267242Y-71783532D01*
X58386940Y-71747222D01*
X58469986Y-71702832D01*
X58581693Y-71749103D01*
X58800972Y-71792720D01*
X59024548Y-71792720D01*
X59243827Y-71749103D01*
X59450384Y-71663544D01*
X59547760Y-71598479D01*
X59645136Y-71663544D01*
X59851693Y-71749103D01*
X60070972Y-71792720D01*
X60294548Y-71792720D01*
X60513827Y-71749103D01*
X60720384Y-71663544D01*
X60817760Y-71598479D01*
X60915136Y-71663544D01*
X61121693Y-71749103D01*
X61340972Y-71792720D01*
X61564548Y-71792720D01*
X61783827Y-71749103D01*
X61990384Y-71663544D01*
X62176280Y-71539332D01*
X62334372Y-71381240D01*
X62408920Y-71269672D01*
X62430574Y-71287443D01*
X63424557Y-72281427D01*
X63450708Y-72313292D01*
X63577853Y-72417637D01*
X63722912Y-72495173D01*
X63880310Y-72542919D01*
X64002980Y-72555001D01*
X64002990Y-72555001D01*
X64043998Y-72559040D01*
X64085006Y-72555001D01*
X65486087Y-72555001D01*
X65527105Y-72559041D01*
X65568123Y-72555001D01*
X65568124Y-72555001D01*
X65690794Y-72542919D01*
X65848192Y-72495173D01*
X65993251Y-72417637D01*
X66120396Y-72313292D01*
X66146551Y-72281422D01*
X66331422Y-72096551D01*
X66363291Y-72070397D01*
X66467636Y-71943252D01*
X66545172Y-71798193D01*
X66546423Y-71794069D01*
X66708933Y-71861383D01*
X66928212Y-71905000D01*
X67151788Y-71905000D01*
X67371067Y-71861383D01*
X67577624Y-71775824D01*
X67675000Y-71710759D01*
X67772376Y-71775824D01*
X67978933Y-71861383D01*
X68198212Y-71905000D01*
X68421788Y-71905000D01*
X68641067Y-71861383D01*
X68847624Y-71775824D01*
X68945000Y-71710759D01*
X69042376Y-71775824D01*
X69248933Y-71861383D01*
X69468212Y-71905000D01*
X69691788Y-71905000D01*
X69911067Y-71861383D01*
X70117624Y-71775824D01*
X70303520Y-71651612D01*
X70461612Y-71493520D01*
X70585824Y-71307624D01*
X70671383Y-71101067D01*
X70715000Y-70881788D01*
X70715000Y-70658212D01*
X70671383Y-70438933D01*
X70585824Y-70232376D01*
X70520759Y-70135000D01*
X70585824Y-70037624D01*
X70671383Y-69831067D01*
X70715000Y-69611788D01*
X70715000Y-69388212D01*
X70671383Y-69168933D01*
X70585824Y-68962376D01*
X70461612Y-68776480D01*
X70303520Y-68618388D01*
X70117624Y-68494176D01*
X69911067Y-68408617D01*
X69691788Y-68365000D01*
X69468212Y-68365000D01*
X69248933Y-68408617D01*
X69042376Y-68494176D01*
X68945000Y-68559241D01*
X68847624Y-68494176D01*
X68641067Y-68408617D01*
X68421788Y-68365000D01*
X68198212Y-68365000D01*
X67978933Y-68408617D01*
X67772376Y-68494176D01*
X67675000Y-68559241D01*
X67577624Y-68494176D01*
X67371067Y-68408617D01*
X67151788Y-68365000D01*
X66928212Y-68365000D01*
X66708933Y-68408617D01*
X66502376Y-68494176D01*
X66405000Y-68559241D01*
X66307624Y-68494176D01*
X66101067Y-68408617D01*
X65881788Y-68365000D01*
X65658212Y-68365000D01*
X65438933Y-68408617D01*
X65327226Y-68454888D01*
X65244180Y-68410498D01*
X65124482Y-68374188D01*
X65000000Y-68361928D01*
X64785750Y-68365000D01*
X64627000Y-68523750D01*
X64627000Y-69373000D01*
X64638026Y-69373000D01*
X64635000Y-69388212D01*
X64635000Y-69611788D01*
X64638026Y-69627000D01*
X64627000Y-69627000D01*
X64627000Y-69638026D01*
X64611788Y-69635000D01*
X64388212Y-69635000D01*
X64373000Y-69638026D01*
X64373000Y-69627000D01*
X64353000Y-69627000D01*
X64353000Y-69373000D01*
X64373000Y-69373000D01*
X64373000Y-68523750D01*
X64214250Y-68365000D01*
X64000000Y-68361928D01*
X63875518Y-68374188D01*
X63755820Y-68410498D01*
X63645506Y-68469463D01*
X63548815Y-68548815D01*
X63469463Y-68645506D01*
X63410498Y-68755820D01*
X63374188Y-68875518D01*
X63361928Y-69000000D01*
X63362496Y-69039628D01*
X63237761Y-68914893D01*
X63237761Y-68793779D01*
X63241801Y-68752761D01*
X63225679Y-68589072D01*
X63177933Y-68431674D01*
X63100397Y-68286615D01*
X63022200Y-68191331D01*
X63022198Y-68191329D01*
X62996052Y-68159470D01*
X62964194Y-68133325D01*
X61525856Y-66694988D01*
X62486645Y-66674972D01*
X62511366Y-66672017D01*
X62535034Y-66664295D01*
X62556742Y-66652104D01*
X62575654Y-66635913D01*
X62591043Y-66616343D01*
X62602320Y-66594146D01*
X62607581Y-66577269D01*
X62705944Y-66161957D01*
X66936552Y-66161957D01*
X67036728Y-66447249D01*
X67190637Y-66707516D01*
X67392364Y-66932756D01*
X67634157Y-67114313D01*
X67906724Y-67245210D01*
X68069043Y-67294448D01*
X68307949Y-67173887D01*
X68307949Y-65923051D01*
X68561949Y-65923051D01*
X68561949Y-67173887D01*
X68800855Y-67294448D01*
X69086147Y-67194272D01*
X69346414Y-67040363D01*
X69571654Y-66838636D01*
X69753211Y-66596843D01*
X69884108Y-66324276D01*
X69933346Y-66161957D01*
X69812785Y-65923051D01*
X68561949Y-65923051D01*
X68307949Y-65923051D01*
X67057113Y-65923051D01*
X66936552Y-66161957D01*
X62705944Y-66161957D01*
X62879267Y-65430145D01*
X66936552Y-65430145D01*
X67057113Y-65669051D01*
X68307949Y-65669051D01*
X68307949Y-64418215D01*
X68069043Y-64297654D01*
X67783751Y-64397830D01*
X67523484Y-64551739D01*
X67298244Y-64753466D01*
X67116687Y-64995259D01*
X66985790Y-65267826D01*
X66936552Y-65430145D01*
X62879267Y-65430145D01*
X63424740Y-63127037D01*
X64797654Y-63127037D01*
X64897830Y-63412329D01*
X65051739Y-63672596D01*
X65253466Y-63897836D01*
X65495259Y-64079393D01*
X65767826Y-64210290D01*
X65930145Y-64259528D01*
X66169051Y-64138967D01*
X66169051Y-62888131D01*
X66423051Y-62888131D01*
X66423051Y-64138967D01*
X66661957Y-64259528D01*
X66947249Y-64159352D01*
X67207516Y-64005443D01*
X67213593Y-64000000D01*
X68320136Y-64000000D01*
X68332396Y-64124482D01*
X68368706Y-64244180D01*
X68427671Y-64354494D01*
X68507023Y-64451185D01*
X68561949Y-64506111D01*
X68561949Y-65489443D01*
X68449090Y-65602302D01*
X68628698Y-65781910D01*
X68741557Y-65669051D01*
X69724889Y-65669051D01*
X69779815Y-65723977D01*
X69876506Y-65803329D01*
X69986820Y-65862294D01*
X70106518Y-65898604D01*
X70231000Y-65910864D01*
X70355482Y-65898604D01*
X70475180Y-65862294D01*
X70585494Y-65803329D01*
X70682185Y-65723977D01*
X71954977Y-64451185D01*
X72034329Y-64354494D01*
X72093294Y-64244180D01*
X72129604Y-64124482D01*
X72141864Y-64000000D01*
X72129604Y-63875518D01*
X72093294Y-63755820D01*
X72034329Y-63645506D01*
X71954977Y-63548815D01*
X70786278Y-62380116D01*
X75799490Y-62380116D01*
X75799490Y-62604622D01*
X75948815Y-62758292D01*
X76045506Y-62837645D01*
X76155820Y-62896609D01*
X76275519Y-62932918D01*
X76400000Y-62945179D01*
X76524481Y-62932918D01*
X76644180Y-62896609D01*
X76754494Y-62837645D01*
X76851185Y-62758292D01*
X77000510Y-62604622D01*
X77000510Y-62380116D01*
X76400000Y-61779605D01*
X75799490Y-62380116D01*
X70786278Y-62380116D01*
X70682185Y-62276023D01*
X70585494Y-62196671D01*
X70475180Y-62137706D01*
X70355482Y-62101396D01*
X70231000Y-62089136D01*
X70106518Y-62101396D01*
X69986820Y-62137706D01*
X69876506Y-62196671D01*
X69779815Y-62276023D01*
X68507023Y-63548815D01*
X68427671Y-63645506D01*
X68368706Y-63755820D01*
X68332396Y-63875518D01*
X68320136Y-64000000D01*
X67213593Y-64000000D01*
X67432756Y-63803716D01*
X67614313Y-63561923D01*
X67745210Y-63289356D01*
X67794448Y-63127037D01*
X67673887Y-62888131D01*
X66423051Y-62888131D01*
X66169051Y-62888131D01*
X64918215Y-62888131D01*
X64797654Y-63127037D01*
X63424740Y-63127037D01*
X63628113Y-62268355D01*
X64048815Y-62689057D01*
X64145506Y-62768409D01*
X64255820Y-62827374D01*
X64375518Y-62863684D01*
X64500000Y-62875944D01*
X64624482Y-62863684D01*
X64744180Y-62827374D01*
X64854494Y-62768409D01*
X64951185Y-62689057D01*
X65006111Y-62634131D01*
X65989443Y-62634131D01*
X66102302Y-62746990D01*
X66281910Y-62567382D01*
X66169051Y-62454523D01*
X66169051Y-61471191D01*
X66223977Y-61416265D01*
X66251034Y-61383295D01*
X66423051Y-61383295D01*
X66423051Y-62634131D01*
X67673887Y-62634131D01*
X67794448Y-62395225D01*
X67694272Y-62109933D01*
X67540363Y-61849666D01*
X67338636Y-61624426D01*
X67096843Y-61442869D01*
X67069390Y-61429685D01*
X72949920Y-61429685D01*
X72949920Y-61654191D01*
X73276023Y-61984638D01*
X73372714Y-62063991D01*
X73483028Y-62122955D01*
X73602726Y-62159264D01*
X73727208Y-62171524D01*
X73851689Y-62159264D01*
X73971387Y-62122955D01*
X74081701Y-62063991D01*
X74178393Y-61984638D01*
X74560139Y-61600000D01*
X75054821Y-61600000D01*
X75067082Y-61724481D01*
X75103391Y-61844180D01*
X75162355Y-61954494D01*
X75241708Y-62051185D01*
X75395378Y-62200510D01*
X75619884Y-62200510D01*
X76220395Y-61600000D01*
X75619884Y-60999490D01*
X75395378Y-60999490D01*
X75241708Y-61148815D01*
X75162355Y-61245506D01*
X75103391Y-61355820D01*
X75067082Y-61475519D01*
X75054821Y-61600000D01*
X74560139Y-61600000D01*
X74751982Y-61406704D01*
X74751982Y-61182197D01*
X73974695Y-60404910D01*
X72949920Y-61429685D01*
X67069390Y-61429685D01*
X66824276Y-61311972D01*
X66661957Y-61262734D01*
X66423051Y-61383295D01*
X66251034Y-61383295D01*
X66303329Y-61319574D01*
X66362294Y-61209260D01*
X66398604Y-61089562D01*
X66410864Y-60965080D01*
X66398604Y-60840598D01*
X66362294Y-60720900D01*
X66303329Y-60610586D01*
X66223977Y-60513895D01*
X66182874Y-60472792D01*
X72028476Y-60472792D01*
X72040736Y-60597274D01*
X72077045Y-60716972D01*
X72136009Y-60827286D01*
X72215362Y-60923977D01*
X72545809Y-61250080D01*
X72770315Y-61250080D01*
X73795090Y-60225305D01*
X73017803Y-59448018D01*
X72793296Y-59448018D01*
X72215362Y-60021607D01*
X72136009Y-60118299D01*
X72077045Y-60228613D01*
X72040736Y-60348311D01*
X72028476Y-60472792D01*
X66182874Y-60472792D01*
X64951185Y-59241103D01*
X64854494Y-59161751D01*
X64744180Y-59102786D01*
X64624482Y-59066476D01*
X64500000Y-59054216D01*
X64386714Y-59065373D01*
X64420472Y-58922838D01*
X65224014Y-58922838D01*
X65224014Y-59147344D01*
X65435211Y-59362886D01*
X65531902Y-59442239D01*
X65642216Y-59501203D01*
X65761915Y-59537512D01*
X65886396Y-59549773D01*
X66010877Y-59537512D01*
X66130575Y-59501203D01*
X66240890Y-59442239D01*
X66337581Y-59362886D01*
X66646005Y-59050117D01*
X66646005Y-58825610D01*
X65983623Y-58163228D01*
X65224014Y-58922838D01*
X64420472Y-58922838D01*
X64533485Y-58445674D01*
X64604360Y-58532035D01*
X64819902Y-58743232D01*
X65044408Y-58743232D01*
X65804018Y-57983623D01*
X66163228Y-57983623D01*
X66825610Y-58646005D01*
X67050117Y-58646005D01*
X67362886Y-58337581D01*
X67442239Y-58240890D01*
X67501203Y-58130575D01*
X67537512Y-58010877D01*
X67549773Y-57886396D01*
X67537512Y-57761915D01*
X67501203Y-57642216D01*
X67442239Y-57531902D01*
X67362886Y-57435211D01*
X67147344Y-57224014D01*
X66922838Y-57224014D01*
X66163228Y-57983623D01*
X65804018Y-57983623D01*
X65789876Y-57969481D01*
X65969481Y-57789876D01*
X65983623Y-57804018D01*
X66743232Y-57044408D01*
X66743232Y-56969716D01*
X75504031Y-56732938D01*
X74265972Y-57970997D01*
X74186620Y-58067688D01*
X74127655Y-58178002D01*
X74092824Y-58292825D01*
X73978003Y-58327655D01*
X73867689Y-58386619D01*
X73770997Y-58465972D01*
X73197408Y-59043906D01*
X73197408Y-59268413D01*
X73974695Y-60045700D01*
X73988838Y-60031558D01*
X74168443Y-60211163D01*
X74154300Y-60225305D01*
X74931587Y-61002592D01*
X75156094Y-61002592D01*
X75734028Y-60429003D01*
X75783683Y-60368498D01*
X75903513Y-60488328D01*
X75799490Y-60595378D01*
X75799490Y-60819884D01*
X76400000Y-61420395D01*
X76407797Y-61412598D01*
X76416414Y-61425494D01*
X76574506Y-61583586D01*
X76587402Y-61592203D01*
X76579605Y-61600000D01*
X77180116Y-62200510D01*
X77404622Y-62200510D01*
X77558292Y-62051185D01*
X77637645Y-61954494D01*
X77696609Y-61844180D01*
X77723943Y-61754069D01*
X77835650Y-61707798D01*
X78021546Y-61583586D01*
X78179638Y-61425494D01*
X78303850Y-61239598D01*
X78389409Y-61033041D01*
X78433026Y-60813762D01*
X78433026Y-60590186D01*
X78389409Y-60370907D01*
X78303850Y-60164350D01*
X78179638Y-59978454D01*
X78021546Y-59820362D01*
X77835650Y-59696150D01*
X77629093Y-59610591D01*
X77409814Y-59566974D01*
X77343894Y-59566974D01*
X76969975Y-59193056D01*
X77784638Y-58378393D01*
X77863990Y-58281702D01*
X77922955Y-58171388D01*
X77959265Y-58051690D01*
X77971525Y-57927208D01*
X77959265Y-57802726D01*
X77922955Y-57683028D01*
X77863990Y-57572714D01*
X77784638Y-57476023D01*
X77001092Y-56692477D01*
X83569431Y-56514954D01*
X83594133Y-56511845D01*
X83617753Y-56503977D01*
X83639385Y-56491652D01*
X83658196Y-56475344D01*
X83673464Y-56455679D01*
X83684603Y-56433413D01*
X83691184Y-56409402D01*
X83693000Y-56388000D01*
X83693000Y-52248759D01*
X83790376Y-52313824D01*
X83996933Y-52399383D01*
X84216212Y-52443000D01*
X84439788Y-52443000D01*
X84659067Y-52399383D01*
X84770774Y-52353112D01*
X84853820Y-52397502D01*
X84973518Y-52433812D01*
X85098000Y-52446072D01*
X85312250Y-52443000D01*
X85471000Y-52284250D01*
X85471000Y-51435000D01*
X85725000Y-51435000D01*
X85725000Y-52284250D01*
X85883750Y-52443000D01*
X86098000Y-52446072D01*
X86222482Y-52433812D01*
X86342180Y-52397502D01*
X86452494Y-52338537D01*
X86549185Y-52259185D01*
X86628537Y-52162494D01*
X86687502Y-52052180D01*
X86723812Y-51932482D01*
X86736072Y-51808000D01*
X86733000Y-51593750D01*
X86574250Y-51435000D01*
X85725000Y-51435000D01*
X85471000Y-51435000D01*
X85459974Y-51435000D01*
X85463000Y-51419788D01*
X85463000Y-51196212D01*
X85459974Y-51181000D01*
X85471000Y-51181000D01*
X85471000Y-50331750D01*
X85725000Y-50331750D01*
X85725000Y-51181000D01*
X86574250Y-51181000D01*
X86733000Y-51022250D01*
X86736072Y-50808000D01*
X86723812Y-50683518D01*
X86687502Y-50563820D01*
X86628537Y-50453506D01*
X86549185Y-50356815D01*
X86452494Y-50277463D01*
X86342180Y-50218498D01*
X86222482Y-50182188D01*
X86098000Y-50169928D01*
X85883750Y-50173000D01*
X85725000Y-50331750D01*
X85471000Y-50331750D01*
X85312250Y-50173000D01*
X85098000Y-50169928D01*
X84973518Y-50182188D01*
X84853820Y-50218498D01*
X84770774Y-50262888D01*
X84659067Y-50216617D01*
X84439788Y-50173000D01*
X84216212Y-50173000D01*
X83996933Y-50216617D01*
X83790376Y-50302176D01*
X83693000Y-50367241D01*
X83693000Y-49657000D01*
X87732001Y-49657000D01*
X87732000Y-76810000D01*
%TA.AperFunction,Conductor*%
D27*
G36*
X87732000Y-76810000D02*
G01*
X54816681Y-76810000D01*
X54884475Y-76604080D01*
X54000000Y-75719605D01*
X53115525Y-76604080D01*
X53183319Y-76810000D01*
X49816681Y-76810000D01*
X49884475Y-76604080D01*
X49000000Y-75719605D01*
X48115525Y-76604080D01*
X48183319Y-76810000D01*
X44816681Y-76810000D01*
X44884475Y-76604080D01*
X44000000Y-75719605D01*
X43115525Y-76604080D01*
X43183319Y-76810000D01*
X34950000Y-76810000D01*
X34950000Y-75606553D01*
X42459009Y-75606553D01*
X42501603Y-75905907D01*
X42601778Y-76191199D01*
X42681739Y-76340792D01*
X42935920Y-76424475D01*
X43820395Y-75540000D01*
X43806253Y-75525858D01*
X43985858Y-75346253D01*
X44000000Y-75360395D01*
X44014143Y-75346253D01*
X44193748Y-75525858D01*
X44179605Y-75540000D01*
X45064080Y-76424475D01*
X45318261Y-76340792D01*
X45449158Y-76068225D01*
X45524365Y-75775358D01*
X45533660Y-75606553D01*
X47459009Y-75606553D01*
X47501603Y-75905907D01*
X47601778Y-76191199D01*
X47681739Y-76340792D01*
X47935920Y-76424475D01*
X48820395Y-75540000D01*
X48806253Y-75525858D01*
X48985858Y-75346253D01*
X49000000Y-75360395D01*
X49014143Y-75346253D01*
X49193748Y-75525858D01*
X49179605Y-75540000D01*
X50064080Y-76424475D01*
X50318261Y-76340792D01*
X50449158Y-76068225D01*
X50524365Y-75775358D01*
X50533660Y-75606553D01*
X52459009Y-75606553D01*
X52501603Y-75905907D01*
X52601778Y-76191199D01*
X52681739Y-76340792D01*
X52935920Y-76424475D01*
X53820395Y-75540000D01*
X53806253Y-75525858D01*
X53985858Y-75346253D01*
X54000000Y-75360395D01*
X54014143Y-75346253D01*
X54193748Y-75525858D01*
X54179605Y-75540000D01*
X55064080Y-76424475D01*
X55318261Y-76340792D01*
X55449158Y-76068225D01*
X55524365Y-75775358D01*
X55540991Y-75473447D01*
X55498397Y-75174093D01*
X55398222Y-74888801D01*
X55318261Y-74739208D01*
X55064082Y-74655526D01*
X55180030Y-74539578D01*
X55133265Y-74492813D01*
X55144180Y-74489502D01*
X55254494Y-74430537D01*
X55351185Y-74351185D01*
X55430537Y-74254494D01*
X55489502Y-74144180D01*
X55525812Y-74024482D01*
X55538072Y-73900000D01*
X55538072Y-72100000D01*
X55525812Y-71975518D01*
X55489502Y-71855820D01*
X55430537Y-71745506D01*
X55351185Y-71648815D01*
X55254494Y-71569463D01*
X55144180Y-71510498D01*
X55024482Y-71474188D01*
X54900000Y-71461928D01*
X53100000Y-71461928D01*
X52975518Y-71474188D01*
X52855820Y-71510498D01*
X52745506Y-71569463D01*
X52648815Y-71648815D01*
X52569463Y-71745506D01*
X52510498Y-71855820D01*
X52474188Y-71975518D01*
X52461928Y-72100000D01*
X52461928Y-73900000D01*
X52474188Y-74024482D01*
X52510498Y-74144180D01*
X52569463Y-74254494D01*
X52648815Y-74351185D01*
X52745506Y-74430537D01*
X52855820Y-74489502D01*
X52866735Y-74492813D01*
X52819970Y-74539578D01*
X52935918Y-74655526D01*
X52681739Y-74739208D01*
X52550842Y-75011775D01*
X52475635Y-75304642D01*
X52459009Y-75606553D01*
X50533660Y-75606553D01*
X50540991Y-75473447D01*
X50498397Y-75174093D01*
X50398222Y-74888801D01*
X50318261Y-74739208D01*
X50064082Y-74655526D01*
X50180030Y-74539578D01*
X50133265Y-74492813D01*
X50144180Y-74489502D01*
X50254494Y-74430537D01*
X50351185Y-74351185D01*
X50430537Y-74254494D01*
X50489502Y-74144180D01*
X50525812Y-74024482D01*
X50538072Y-73900000D01*
X50538072Y-72100000D01*
X50525812Y-71975518D01*
X50489502Y-71855820D01*
X50430537Y-71745506D01*
X50351185Y-71648815D01*
X50254494Y-71569463D01*
X50144180Y-71510498D01*
X50024482Y-71474188D01*
X49900000Y-71461928D01*
X48100000Y-71461928D01*
X47975518Y-71474188D01*
X47855820Y-71510498D01*
X47745506Y-71569463D01*
X47648815Y-71648815D01*
X47569463Y-71745506D01*
X47510498Y-71855820D01*
X47474188Y-71975518D01*
X47461928Y-72100000D01*
X47461928Y-73900000D01*
X47474188Y-74024482D01*
X47510498Y-74144180D01*
X47569463Y-74254494D01*
X47648815Y-74351185D01*
X47745506Y-74430537D01*
X47855820Y-74489502D01*
X47866735Y-74492813D01*
X47819970Y-74539578D01*
X47935918Y-74655526D01*
X47681739Y-74739208D01*
X47550842Y-75011775D01*
X47475635Y-75304642D01*
X47459009Y-75606553D01*
X45533660Y-75606553D01*
X45540991Y-75473447D01*
X45498397Y-75174093D01*
X45398222Y-74888801D01*
X45318261Y-74739208D01*
X45064082Y-74655526D01*
X45180030Y-74539578D01*
X45133265Y-74492813D01*
X45144180Y-74489502D01*
X45254494Y-74430537D01*
X45351185Y-74351185D01*
X45430537Y-74254494D01*
X45489502Y-74144180D01*
X45525812Y-74024482D01*
X45538072Y-73900000D01*
X45538072Y-72100000D01*
X45525812Y-71975518D01*
X45489502Y-71855820D01*
X45430537Y-71745506D01*
X45351185Y-71648815D01*
X45254494Y-71569463D01*
X45144180Y-71510498D01*
X45024482Y-71474188D01*
X44900000Y-71461928D01*
X43100000Y-71461928D01*
X42975518Y-71474188D01*
X42855820Y-71510498D01*
X42745506Y-71569463D01*
X42648815Y-71648815D01*
X42569463Y-71745506D01*
X42510498Y-71855820D01*
X42474188Y-71975518D01*
X42461928Y-72100000D01*
X42461928Y-73900000D01*
X42474188Y-74024482D01*
X42510498Y-74144180D01*
X42569463Y-74254494D01*
X42648815Y-74351185D01*
X42745506Y-74430537D01*
X42855820Y-74489502D01*
X42866735Y-74492813D01*
X42819970Y-74539578D01*
X42935918Y-74655526D01*
X42681739Y-74739208D01*
X42550842Y-75011775D01*
X42475635Y-75304642D01*
X42459009Y-75606553D01*
X34950000Y-75606553D01*
X34950000Y-70932553D01*
X36305009Y-70932553D01*
X36347603Y-71231907D01*
X36447778Y-71517199D01*
X36527739Y-71666792D01*
X36781920Y-71750475D01*
X37666395Y-70866000D01*
X36781920Y-69981525D01*
X36527739Y-70065208D01*
X36396842Y-70337775D01*
X36321635Y-70630642D01*
X36305009Y-70932553D01*
X34950000Y-70932553D01*
X34950000Y-69801920D01*
X36961525Y-69801920D01*
X37846000Y-70686395D01*
X37860143Y-70672253D01*
X38039748Y-70851858D01*
X38025605Y-70866000D01*
X38039748Y-70880143D01*
X37860143Y-71059748D01*
X37846000Y-71045605D01*
X36961525Y-71930080D01*
X37045208Y-72184261D01*
X37317775Y-72315158D01*
X37610642Y-72390365D01*
X37912553Y-72406991D01*
X38211907Y-72364397D01*
X38497199Y-72264222D01*
X38646792Y-72184261D01*
X38730474Y-71930082D01*
X38846422Y-72046030D01*
X38893187Y-71999265D01*
X38896498Y-72010180D01*
X38955463Y-72120494D01*
X39034815Y-72217185D01*
X39131506Y-72296537D01*
X39241820Y-72355502D01*
X39361518Y-72391812D01*
X39486000Y-72404072D01*
X41286000Y-72404072D01*
X41410482Y-72391812D01*
X41530180Y-72355502D01*
X41640494Y-72296537D01*
X41737185Y-72217185D01*
X41816537Y-72120494D01*
X41875502Y-72010180D01*
X41911812Y-71890482D01*
X41924072Y-71766000D01*
X41924072Y-71157720D01*
X56504688Y-71157720D01*
X56516948Y-71282202D01*
X56553258Y-71401900D01*
X56612223Y-71512214D01*
X56691575Y-71608905D01*
X56788266Y-71688257D01*
X56898580Y-71747222D01*
X57018278Y-71783532D01*
X57142760Y-71795792D01*
X57357010Y-71792720D01*
X57515760Y-71633970D01*
X57515760Y-70784720D01*
X56666510Y-70784720D01*
X56507760Y-70943470D01*
X56504688Y-71157720D01*
X41924072Y-71157720D01*
X41924072Y-70157720D01*
X56504688Y-70157720D01*
X56507760Y-70371970D01*
X56666510Y-70530720D01*
X57515760Y-70530720D01*
X57515760Y-69681470D01*
X57357010Y-69522720D01*
X57142760Y-69519648D01*
X57018278Y-69531908D01*
X56898580Y-69568218D01*
X56788266Y-69627183D01*
X56691575Y-69706535D01*
X56612223Y-69803226D01*
X56553258Y-69913540D01*
X56516948Y-70033238D01*
X56504688Y-70157720D01*
X41924072Y-70157720D01*
X41924072Y-69966000D01*
X41911812Y-69841518D01*
X41875502Y-69721820D01*
X41816537Y-69611506D01*
X41737185Y-69514815D01*
X41640494Y-69435463D01*
X41530180Y-69376498D01*
X41410482Y-69340188D01*
X41286000Y-69327928D01*
X39486000Y-69327928D01*
X39361518Y-69340188D01*
X39241820Y-69376498D01*
X39131506Y-69435463D01*
X39034815Y-69514815D01*
X38955463Y-69611506D01*
X38896498Y-69721820D01*
X38893187Y-69732735D01*
X38846422Y-69685970D01*
X38730474Y-69801918D01*
X38646792Y-69547739D01*
X38374225Y-69416842D01*
X38081358Y-69341635D01*
X37779447Y-69325009D01*
X37480093Y-69367603D01*
X37194801Y-69467778D01*
X37045208Y-69547739D01*
X36961525Y-69801920D01*
X34950000Y-69801920D01*
X34950000Y-68453000D01*
X43942000Y-68453000D01*
X43966776Y-68450560D01*
X43990601Y-68443333D01*
X44012557Y-68431597D01*
X44031803Y-68415803D01*
X44047597Y-68396557D01*
X44059333Y-68374601D01*
X44066560Y-68350776D01*
X44068986Y-68324133D01*
X44056499Y-67475000D01*
X44411928Y-67475000D01*
X44424188Y-67599482D01*
X44460498Y-67719180D01*
X44519463Y-67829494D01*
X44598815Y-67926185D01*
X44695506Y-68005537D01*
X44805820Y-68064502D01*
X44925518Y-68100812D01*
X45050000Y-68113072D01*
X45414250Y-68110000D01*
X45573000Y-67951250D01*
X45573000Y-66727000D01*
X45827000Y-66727000D01*
X45827000Y-67951250D01*
X45985750Y-68110000D01*
X46350000Y-68113072D01*
X46474482Y-68100812D01*
X46594180Y-68064502D01*
X46704494Y-68005537D01*
X46801185Y-67926185D01*
X46880537Y-67829494D01*
X46939502Y-67719180D01*
X46975812Y-67599482D01*
X46988072Y-67475000D01*
X46985000Y-66885750D01*
X46826250Y-66727000D01*
X45827000Y-66727000D01*
X45573000Y-66727000D01*
X44573750Y-66727000D01*
X44415000Y-66885750D01*
X44411928Y-67475000D01*
X44056499Y-67475000D01*
X44015323Y-64675000D01*
X44411928Y-64675000D01*
X44424188Y-64799482D01*
X44460498Y-64919180D01*
X44519463Y-65029494D01*
X44598815Y-65126185D01*
X44688759Y-65200000D01*
X44598815Y-65273815D01*
X44519463Y-65370506D01*
X44460498Y-65480820D01*
X44424188Y-65600518D01*
X44411928Y-65725000D01*
X44415000Y-66314250D01*
X44573750Y-66473000D01*
X45573000Y-66473000D01*
X45573000Y-65248750D01*
X45524250Y-65200000D01*
X45573000Y-65151250D01*
X45573000Y-63927000D01*
X45827000Y-63927000D01*
X45827000Y-65151250D01*
X45875750Y-65200000D01*
X45827000Y-65248750D01*
X45827000Y-66473000D01*
X46826250Y-66473000D01*
X46985000Y-66314250D01*
X46988072Y-65725000D01*
X46975812Y-65600518D01*
X46939502Y-65480820D01*
X46880537Y-65370506D01*
X46801185Y-65273815D01*
X46711241Y-65200000D01*
X46801185Y-65126185D01*
X46880537Y-65029494D01*
X46939502Y-64919180D01*
X46975812Y-64799482D01*
X46988072Y-64675000D01*
X46985000Y-64085750D01*
X46826250Y-63927000D01*
X45827000Y-63927000D01*
X45573000Y-63927000D01*
X44573750Y-63927000D01*
X44415000Y-64085750D01*
X44411928Y-64675000D01*
X44015323Y-64675000D01*
X43974147Y-61875000D01*
X44411928Y-61875000D01*
X44424188Y-61999482D01*
X44460498Y-62119180D01*
X44519463Y-62229494D01*
X44598815Y-62326185D01*
X44688759Y-62400000D01*
X44598815Y-62473815D01*
X44519463Y-62570506D01*
X44460498Y-62680820D01*
X44424188Y-62800518D01*
X44411928Y-62925000D01*
X44415000Y-63514250D01*
X44573750Y-63673000D01*
X45573000Y-63673000D01*
X45573000Y-62448750D01*
X45524250Y-62400000D01*
X45573000Y-62351250D01*
X45573000Y-61127000D01*
X45827000Y-61127000D01*
X45827000Y-62351250D01*
X45875750Y-62400000D01*
X45827000Y-62448750D01*
X45827000Y-63673000D01*
X46826250Y-63673000D01*
X46985000Y-63514250D01*
X46988072Y-62925000D01*
X46975812Y-62800518D01*
X46939502Y-62680820D01*
X46880537Y-62570506D01*
X46801185Y-62473815D01*
X46711241Y-62400000D01*
X46801185Y-62326185D01*
X46880537Y-62229494D01*
X46939502Y-62119180D01*
X46975812Y-61999482D01*
X46988072Y-61875000D01*
X46985000Y-61285750D01*
X46826250Y-61127000D01*
X45827000Y-61127000D01*
X45573000Y-61127000D01*
X44573750Y-61127000D01*
X44415000Y-61285750D01*
X44411928Y-61875000D01*
X43974147Y-61875000D01*
X43941986Y-59688133D01*
X43939182Y-59663395D01*
X43931605Y-59639679D01*
X43919548Y-59617897D01*
X43903472Y-59598887D01*
X43883997Y-59583377D01*
X43861870Y-59571965D01*
X43837942Y-59565089D01*
X43815000Y-59563000D01*
X43493879Y-59563000D01*
X43627962Y-59452962D01*
X43738405Y-59318386D01*
X43820472Y-59164850D01*
X43847727Y-59075000D01*
X44411928Y-59075000D01*
X44424188Y-59199482D01*
X44460498Y-59319180D01*
X44519463Y-59429494D01*
X44598815Y-59526185D01*
X44688759Y-59600000D01*
X44598815Y-59673815D01*
X44519463Y-59770506D01*
X44460498Y-59880820D01*
X44424188Y-60000518D01*
X44411928Y-60125000D01*
X44415000Y-60714250D01*
X44573750Y-60873000D01*
X45573000Y-60873000D01*
X45573000Y-59648750D01*
X45524250Y-59600000D01*
X45573000Y-59551250D01*
X45573000Y-58327000D01*
X45827000Y-58327000D01*
X45827000Y-59551250D01*
X45875750Y-59600000D01*
X45827000Y-59648750D01*
X45827000Y-60873000D01*
X46826250Y-60873000D01*
X46985000Y-60714250D01*
X46988072Y-60125000D01*
X46975812Y-60000518D01*
X46939502Y-59880820D01*
X46880537Y-59770506D01*
X46801185Y-59673815D01*
X46711241Y-59600000D01*
X46801185Y-59526185D01*
X46880537Y-59429494D01*
X46939502Y-59319180D01*
X46975812Y-59199482D01*
X46988072Y-59075000D01*
X46985000Y-58485750D01*
X46826250Y-58327000D01*
X45827000Y-58327000D01*
X45573000Y-58327000D01*
X44573750Y-58327000D01*
X44415000Y-58485750D01*
X44411928Y-59075000D01*
X43847727Y-59075000D01*
X43871008Y-58998254D01*
X43888072Y-58825000D01*
X43888072Y-57575000D01*
X43871008Y-57401746D01*
X43820472Y-57235150D01*
X43761834Y-57125446D01*
X44446354Y-57127445D01*
X44424188Y-57200518D01*
X44411928Y-57325000D01*
X44415000Y-57914250D01*
X44573750Y-58073000D01*
X45573000Y-58073000D01*
X45573000Y-56848750D01*
X45827000Y-56848750D01*
X45827000Y-58073000D01*
X46826250Y-58073000D01*
X46985000Y-57914250D01*
X46988072Y-57325000D01*
X46975812Y-57200518D01*
X46939502Y-57080820D01*
X46880537Y-56970506D01*
X46801185Y-56873815D01*
X46704494Y-56794463D01*
X46594180Y-56735498D01*
X46474482Y-56699188D01*
X46350000Y-56686928D01*
X45985750Y-56690000D01*
X45827000Y-56848750D01*
X45573000Y-56848750D01*
X45414250Y-56690000D01*
X45264288Y-56688735D01*
X45286812Y-56614482D01*
X45299072Y-56490000D01*
X45296156Y-53771423D01*
X45512747Y-53916144D01*
X45787549Y-54029971D01*
X46079278Y-54088000D01*
X46376722Y-54088000D01*
X46668451Y-54029971D01*
X46943253Y-53916144D01*
X47190569Y-53750893D01*
X47400893Y-53540569D01*
X47566144Y-53293253D01*
X47679971Y-53018451D01*
X47706255Y-52886315D01*
X47625285Y-54093501D01*
X47627466Y-54126907D01*
X50167466Y-66826907D01*
X50174718Y-66850724D01*
X50186477Y-66872668D01*
X50202291Y-66891896D01*
X50221553Y-66907670D01*
X50243522Y-66919383D01*
X50267354Y-66926586D01*
X50294645Y-66928972D01*
X59212320Y-66743187D01*
X61567761Y-69098630D01*
X61567761Y-69219743D01*
X61563721Y-69260761D01*
X61567761Y-69301779D01*
X61567761Y-69301780D01*
X61579843Y-69424450D01*
X61612549Y-69532268D01*
X61564548Y-69522720D01*
X61340972Y-69522720D01*
X61121693Y-69566337D01*
X60915136Y-69651896D01*
X60817760Y-69716961D01*
X60720384Y-69651896D01*
X60513827Y-69566337D01*
X60294548Y-69522720D01*
X60070972Y-69522720D01*
X59851693Y-69566337D01*
X59645136Y-69651896D01*
X59547760Y-69716961D01*
X59450384Y-69651896D01*
X59243827Y-69566337D01*
X59024548Y-69522720D01*
X58800972Y-69522720D01*
X58581693Y-69566337D01*
X58469986Y-69612608D01*
X58386940Y-69568218D01*
X58267242Y-69531908D01*
X58142760Y-69519648D01*
X57928510Y-69522720D01*
X57769760Y-69681470D01*
X57769760Y-70530720D01*
X57780786Y-70530720D01*
X57777760Y-70545932D01*
X57777760Y-70769508D01*
X57780786Y-70784720D01*
X57769760Y-70784720D01*
X57769760Y-71633970D01*
X57928510Y-71792720D01*
X58142760Y-71795792D01*
X58267242Y-71783532D01*
X58386940Y-71747222D01*
X58469986Y-71702832D01*
X58581693Y-71749103D01*
X58800972Y-71792720D01*
X59024548Y-71792720D01*
X59243827Y-71749103D01*
X59450384Y-71663544D01*
X59547760Y-71598479D01*
X59645136Y-71663544D01*
X59851693Y-71749103D01*
X60070972Y-71792720D01*
X60294548Y-71792720D01*
X60513827Y-71749103D01*
X60720384Y-71663544D01*
X60817760Y-71598479D01*
X60915136Y-71663544D01*
X61121693Y-71749103D01*
X61340972Y-71792720D01*
X61564548Y-71792720D01*
X61783827Y-71749103D01*
X61990384Y-71663544D01*
X62176280Y-71539332D01*
X62334372Y-71381240D01*
X62408920Y-71269672D01*
X62430574Y-71287443D01*
X63424557Y-72281427D01*
X63450708Y-72313292D01*
X63577853Y-72417637D01*
X63722912Y-72495173D01*
X63880310Y-72542919D01*
X64002980Y-72555001D01*
X64002990Y-72555001D01*
X64043998Y-72559040D01*
X64085006Y-72555001D01*
X65486087Y-72555001D01*
X65527105Y-72559041D01*
X65568123Y-72555001D01*
X65568124Y-72555001D01*
X65690794Y-72542919D01*
X65848192Y-72495173D01*
X65993251Y-72417637D01*
X66120396Y-72313292D01*
X66146551Y-72281422D01*
X66331422Y-72096551D01*
X66363291Y-72070397D01*
X66467636Y-71943252D01*
X66545172Y-71798193D01*
X66546423Y-71794069D01*
X66708933Y-71861383D01*
X66928212Y-71905000D01*
X67151788Y-71905000D01*
X67371067Y-71861383D01*
X67577624Y-71775824D01*
X67675000Y-71710759D01*
X67772376Y-71775824D01*
X67978933Y-71861383D01*
X68198212Y-71905000D01*
X68421788Y-71905000D01*
X68641067Y-71861383D01*
X68847624Y-71775824D01*
X68945000Y-71710759D01*
X69042376Y-71775824D01*
X69248933Y-71861383D01*
X69468212Y-71905000D01*
X69691788Y-71905000D01*
X69911067Y-71861383D01*
X70117624Y-71775824D01*
X70303520Y-71651612D01*
X70461612Y-71493520D01*
X70585824Y-71307624D01*
X70671383Y-71101067D01*
X70715000Y-70881788D01*
X70715000Y-70658212D01*
X70671383Y-70438933D01*
X70585824Y-70232376D01*
X70520759Y-70135000D01*
X70585824Y-70037624D01*
X70671383Y-69831067D01*
X70715000Y-69611788D01*
X70715000Y-69388212D01*
X70671383Y-69168933D01*
X70585824Y-68962376D01*
X70461612Y-68776480D01*
X70303520Y-68618388D01*
X70117624Y-68494176D01*
X69911067Y-68408617D01*
X69691788Y-68365000D01*
X69468212Y-68365000D01*
X69248933Y-68408617D01*
X69042376Y-68494176D01*
X68945000Y-68559241D01*
X68847624Y-68494176D01*
X68641067Y-68408617D01*
X68421788Y-68365000D01*
X68198212Y-68365000D01*
X67978933Y-68408617D01*
X67772376Y-68494176D01*
X67675000Y-68559241D01*
X67577624Y-68494176D01*
X67371067Y-68408617D01*
X67151788Y-68365000D01*
X66928212Y-68365000D01*
X66708933Y-68408617D01*
X66502376Y-68494176D01*
X66405000Y-68559241D01*
X66307624Y-68494176D01*
X66101067Y-68408617D01*
X65881788Y-68365000D01*
X65658212Y-68365000D01*
X65438933Y-68408617D01*
X65327226Y-68454888D01*
X65244180Y-68410498D01*
X65124482Y-68374188D01*
X65000000Y-68361928D01*
X64785750Y-68365000D01*
X64627000Y-68523750D01*
X64627000Y-69373000D01*
X64638026Y-69373000D01*
X64635000Y-69388212D01*
X64635000Y-69611788D01*
X64638026Y-69627000D01*
X64627000Y-69627000D01*
X64627000Y-69638026D01*
X64611788Y-69635000D01*
X64388212Y-69635000D01*
X64373000Y-69638026D01*
X64373000Y-69627000D01*
X64353000Y-69627000D01*
X64353000Y-69373000D01*
X64373000Y-69373000D01*
X64373000Y-68523750D01*
X64214250Y-68365000D01*
X64000000Y-68361928D01*
X63875518Y-68374188D01*
X63755820Y-68410498D01*
X63645506Y-68469463D01*
X63548815Y-68548815D01*
X63469463Y-68645506D01*
X63410498Y-68755820D01*
X63374188Y-68875518D01*
X63361928Y-69000000D01*
X63362496Y-69039628D01*
X63237761Y-68914893D01*
X63237761Y-68793779D01*
X63241801Y-68752761D01*
X63225679Y-68589072D01*
X63177933Y-68431674D01*
X63100397Y-68286615D01*
X63022200Y-68191331D01*
X63022198Y-68191329D01*
X62996052Y-68159470D01*
X62964194Y-68133325D01*
X61525856Y-66694988D01*
X62486645Y-66674972D01*
X62511366Y-66672017D01*
X62535034Y-66664295D01*
X62556742Y-66652104D01*
X62575654Y-66635913D01*
X62591043Y-66616343D01*
X62602320Y-66594146D01*
X62607581Y-66577269D01*
X62705944Y-66161957D01*
X66936552Y-66161957D01*
X67036728Y-66447249D01*
X67190637Y-66707516D01*
X67392364Y-66932756D01*
X67634157Y-67114313D01*
X67906724Y-67245210D01*
X68069043Y-67294448D01*
X68307949Y-67173887D01*
X68307949Y-65923051D01*
X68561949Y-65923051D01*
X68561949Y-67173887D01*
X68800855Y-67294448D01*
X69086147Y-67194272D01*
X69346414Y-67040363D01*
X69571654Y-66838636D01*
X69753211Y-66596843D01*
X69884108Y-66324276D01*
X69933346Y-66161957D01*
X69812785Y-65923051D01*
X68561949Y-65923051D01*
X68307949Y-65923051D01*
X67057113Y-65923051D01*
X66936552Y-66161957D01*
X62705944Y-66161957D01*
X62879267Y-65430145D01*
X66936552Y-65430145D01*
X67057113Y-65669051D01*
X68307949Y-65669051D01*
X68307949Y-64418215D01*
X68069043Y-64297654D01*
X67783751Y-64397830D01*
X67523484Y-64551739D01*
X67298244Y-64753466D01*
X67116687Y-64995259D01*
X66985790Y-65267826D01*
X66936552Y-65430145D01*
X62879267Y-65430145D01*
X63424740Y-63127037D01*
X64797654Y-63127037D01*
X64897830Y-63412329D01*
X65051739Y-63672596D01*
X65253466Y-63897836D01*
X65495259Y-64079393D01*
X65767826Y-64210290D01*
X65930145Y-64259528D01*
X66169051Y-64138967D01*
X66169051Y-62888131D01*
X66423051Y-62888131D01*
X66423051Y-64138967D01*
X66661957Y-64259528D01*
X66947249Y-64159352D01*
X67207516Y-64005443D01*
X67213593Y-64000000D01*
X68320136Y-64000000D01*
X68332396Y-64124482D01*
X68368706Y-64244180D01*
X68427671Y-64354494D01*
X68507023Y-64451185D01*
X68561949Y-64506111D01*
X68561949Y-65489443D01*
X68449090Y-65602302D01*
X68628698Y-65781910D01*
X68741557Y-65669051D01*
X69724889Y-65669051D01*
X69779815Y-65723977D01*
X69876506Y-65803329D01*
X69986820Y-65862294D01*
X70106518Y-65898604D01*
X70231000Y-65910864D01*
X70355482Y-65898604D01*
X70475180Y-65862294D01*
X70585494Y-65803329D01*
X70682185Y-65723977D01*
X71954977Y-64451185D01*
X72034329Y-64354494D01*
X72093294Y-64244180D01*
X72129604Y-64124482D01*
X72141864Y-64000000D01*
X72129604Y-63875518D01*
X72093294Y-63755820D01*
X72034329Y-63645506D01*
X71954977Y-63548815D01*
X70786278Y-62380116D01*
X75799490Y-62380116D01*
X75799490Y-62604622D01*
X75948815Y-62758292D01*
X76045506Y-62837645D01*
X76155820Y-62896609D01*
X76275519Y-62932918D01*
X76400000Y-62945179D01*
X76524481Y-62932918D01*
X76644180Y-62896609D01*
X76754494Y-62837645D01*
X76851185Y-62758292D01*
X77000510Y-62604622D01*
X77000510Y-62380116D01*
X76400000Y-61779605D01*
X75799490Y-62380116D01*
X70786278Y-62380116D01*
X70682185Y-62276023D01*
X70585494Y-62196671D01*
X70475180Y-62137706D01*
X70355482Y-62101396D01*
X70231000Y-62089136D01*
X70106518Y-62101396D01*
X69986820Y-62137706D01*
X69876506Y-62196671D01*
X69779815Y-62276023D01*
X68507023Y-63548815D01*
X68427671Y-63645506D01*
X68368706Y-63755820D01*
X68332396Y-63875518D01*
X68320136Y-64000000D01*
X67213593Y-64000000D01*
X67432756Y-63803716D01*
X67614313Y-63561923D01*
X67745210Y-63289356D01*
X67794448Y-63127037D01*
X67673887Y-62888131D01*
X66423051Y-62888131D01*
X66169051Y-62888131D01*
X64918215Y-62888131D01*
X64797654Y-63127037D01*
X63424740Y-63127037D01*
X63628113Y-62268355D01*
X64048815Y-62689057D01*
X64145506Y-62768409D01*
X64255820Y-62827374D01*
X64375518Y-62863684D01*
X64500000Y-62875944D01*
X64624482Y-62863684D01*
X64744180Y-62827374D01*
X64854494Y-62768409D01*
X64951185Y-62689057D01*
X65006111Y-62634131D01*
X65989443Y-62634131D01*
X66102302Y-62746990D01*
X66281910Y-62567382D01*
X66169051Y-62454523D01*
X66169051Y-61471191D01*
X66223977Y-61416265D01*
X66251034Y-61383295D01*
X66423051Y-61383295D01*
X66423051Y-62634131D01*
X67673887Y-62634131D01*
X67794448Y-62395225D01*
X67694272Y-62109933D01*
X67540363Y-61849666D01*
X67338636Y-61624426D01*
X67096843Y-61442869D01*
X67069390Y-61429685D01*
X72949920Y-61429685D01*
X72949920Y-61654191D01*
X73276023Y-61984638D01*
X73372714Y-62063991D01*
X73483028Y-62122955D01*
X73602726Y-62159264D01*
X73727208Y-62171524D01*
X73851689Y-62159264D01*
X73971387Y-62122955D01*
X74081701Y-62063991D01*
X74178393Y-61984638D01*
X74560139Y-61600000D01*
X75054821Y-61600000D01*
X75067082Y-61724481D01*
X75103391Y-61844180D01*
X75162355Y-61954494D01*
X75241708Y-62051185D01*
X75395378Y-62200510D01*
X75619884Y-62200510D01*
X76220395Y-61600000D01*
X75619884Y-60999490D01*
X75395378Y-60999490D01*
X75241708Y-61148815D01*
X75162355Y-61245506D01*
X75103391Y-61355820D01*
X75067082Y-61475519D01*
X75054821Y-61600000D01*
X74560139Y-61600000D01*
X74751982Y-61406704D01*
X74751982Y-61182197D01*
X73974695Y-60404910D01*
X72949920Y-61429685D01*
X67069390Y-61429685D01*
X66824276Y-61311972D01*
X66661957Y-61262734D01*
X66423051Y-61383295D01*
X66251034Y-61383295D01*
X66303329Y-61319574D01*
X66362294Y-61209260D01*
X66398604Y-61089562D01*
X66410864Y-60965080D01*
X66398604Y-60840598D01*
X66362294Y-60720900D01*
X66303329Y-60610586D01*
X66223977Y-60513895D01*
X66182874Y-60472792D01*
X72028476Y-60472792D01*
X72040736Y-60597274D01*
X72077045Y-60716972D01*
X72136009Y-60827286D01*
X72215362Y-60923977D01*
X72545809Y-61250080D01*
X72770315Y-61250080D01*
X73795090Y-60225305D01*
X73017803Y-59448018D01*
X72793296Y-59448018D01*
X72215362Y-60021607D01*
X72136009Y-60118299D01*
X72077045Y-60228613D01*
X72040736Y-60348311D01*
X72028476Y-60472792D01*
X66182874Y-60472792D01*
X64951185Y-59241103D01*
X64854494Y-59161751D01*
X64744180Y-59102786D01*
X64624482Y-59066476D01*
X64500000Y-59054216D01*
X64386714Y-59065373D01*
X64420472Y-58922838D01*
X65224014Y-58922838D01*
X65224014Y-59147344D01*
X65435211Y-59362886D01*
X65531902Y-59442239D01*
X65642216Y-59501203D01*
X65761915Y-59537512D01*
X65886396Y-59549773D01*
X66010877Y-59537512D01*
X66130575Y-59501203D01*
X66240890Y-59442239D01*
X66337581Y-59362886D01*
X66646005Y-59050117D01*
X66646005Y-58825610D01*
X65983623Y-58163228D01*
X65224014Y-58922838D01*
X64420472Y-58922838D01*
X64533485Y-58445674D01*
X64604360Y-58532035D01*
X64819902Y-58743232D01*
X65044408Y-58743232D01*
X65804018Y-57983623D01*
X66163228Y-57983623D01*
X66825610Y-58646005D01*
X67050117Y-58646005D01*
X67362886Y-58337581D01*
X67442239Y-58240890D01*
X67501203Y-58130575D01*
X67537512Y-58010877D01*
X67549773Y-57886396D01*
X67537512Y-57761915D01*
X67501203Y-57642216D01*
X67442239Y-57531902D01*
X67362886Y-57435211D01*
X67147344Y-57224014D01*
X66922838Y-57224014D01*
X66163228Y-57983623D01*
X65804018Y-57983623D01*
X65789876Y-57969481D01*
X65969481Y-57789876D01*
X65983623Y-57804018D01*
X66743232Y-57044408D01*
X66743232Y-56969716D01*
X75504031Y-56732938D01*
X74265972Y-57970997D01*
X74186620Y-58067688D01*
X74127655Y-58178002D01*
X74092824Y-58292825D01*
X73978003Y-58327655D01*
X73867689Y-58386619D01*
X73770997Y-58465972D01*
X73197408Y-59043906D01*
X73197408Y-59268413D01*
X73974695Y-60045700D01*
X73988838Y-60031558D01*
X74168443Y-60211163D01*
X74154300Y-60225305D01*
X74931587Y-61002592D01*
X75156094Y-61002592D01*
X75734028Y-60429003D01*
X75783683Y-60368498D01*
X75903513Y-60488328D01*
X75799490Y-60595378D01*
X75799490Y-60819884D01*
X76400000Y-61420395D01*
X76407797Y-61412598D01*
X76416414Y-61425494D01*
X76574506Y-61583586D01*
X76587402Y-61592203D01*
X76579605Y-61600000D01*
X77180116Y-62200510D01*
X77404622Y-62200510D01*
X77558292Y-62051185D01*
X77637645Y-61954494D01*
X77696609Y-61844180D01*
X77723943Y-61754069D01*
X77835650Y-61707798D01*
X78021546Y-61583586D01*
X78179638Y-61425494D01*
X78303850Y-61239598D01*
X78389409Y-61033041D01*
X78433026Y-60813762D01*
X78433026Y-60590186D01*
X78389409Y-60370907D01*
X78303850Y-60164350D01*
X78179638Y-59978454D01*
X78021546Y-59820362D01*
X77835650Y-59696150D01*
X77629093Y-59610591D01*
X77409814Y-59566974D01*
X77343894Y-59566974D01*
X76969975Y-59193056D01*
X77784638Y-58378393D01*
X77863990Y-58281702D01*
X77922955Y-58171388D01*
X77959265Y-58051690D01*
X77971525Y-57927208D01*
X77959265Y-57802726D01*
X77922955Y-57683028D01*
X77863990Y-57572714D01*
X77784638Y-57476023D01*
X77001092Y-56692477D01*
X83569431Y-56514954D01*
X83594133Y-56511845D01*
X83617753Y-56503977D01*
X83639385Y-56491652D01*
X83658196Y-56475344D01*
X83673464Y-56455679D01*
X83684603Y-56433413D01*
X83691184Y-56409402D01*
X83693000Y-56388000D01*
X83693000Y-52248759D01*
X83790376Y-52313824D01*
X83996933Y-52399383D01*
X84216212Y-52443000D01*
X84439788Y-52443000D01*
X84659067Y-52399383D01*
X84770774Y-52353112D01*
X84853820Y-52397502D01*
X84973518Y-52433812D01*
X85098000Y-52446072D01*
X85312250Y-52443000D01*
X85471000Y-52284250D01*
X85471000Y-51435000D01*
X85725000Y-51435000D01*
X85725000Y-52284250D01*
X85883750Y-52443000D01*
X86098000Y-52446072D01*
X86222482Y-52433812D01*
X86342180Y-52397502D01*
X86452494Y-52338537D01*
X86549185Y-52259185D01*
X86628537Y-52162494D01*
X86687502Y-52052180D01*
X86723812Y-51932482D01*
X86736072Y-51808000D01*
X86733000Y-51593750D01*
X86574250Y-51435000D01*
X85725000Y-51435000D01*
X85471000Y-51435000D01*
X85459974Y-51435000D01*
X85463000Y-51419788D01*
X85463000Y-51196212D01*
X85459974Y-51181000D01*
X85471000Y-51181000D01*
X85471000Y-50331750D01*
X85725000Y-50331750D01*
X85725000Y-51181000D01*
X86574250Y-51181000D01*
X86733000Y-51022250D01*
X86736072Y-50808000D01*
X86723812Y-50683518D01*
X86687502Y-50563820D01*
X86628537Y-50453506D01*
X86549185Y-50356815D01*
X86452494Y-50277463D01*
X86342180Y-50218498D01*
X86222482Y-50182188D01*
X86098000Y-50169928D01*
X85883750Y-50173000D01*
X85725000Y-50331750D01*
X85471000Y-50331750D01*
X85312250Y-50173000D01*
X85098000Y-50169928D01*
X84973518Y-50182188D01*
X84853820Y-50218498D01*
X84770774Y-50262888D01*
X84659067Y-50216617D01*
X84439788Y-50173000D01*
X84216212Y-50173000D01*
X83996933Y-50216617D01*
X83790376Y-50302176D01*
X83693000Y-50367241D01*
X83693000Y-49657000D01*
X87732001Y-49657000D01*
X87732000Y-76810000D01*
G37*
%TD.AperFunction*%
D26*
X43450500Y-53213000D02*
X43470500Y-53213000D01*
X43470500Y-53467000D01*
X43450500Y-53467000D01*
X43450500Y-53487000D01*
X43196500Y-53487000D01*
X43196500Y-53467000D01*
X43176500Y-53467000D01*
X43176500Y-53213000D01*
X43196500Y-53213000D01*
X43196500Y-53193000D01*
X43450500Y-53193000D01*
X43450500Y-53213000D01*
%TA.AperFunction,Conductor*%
D27*
G36*
X43450500Y-53213000D02*
G01*
X43470500Y-53213000D01*
X43470500Y-53467000D01*
X43450500Y-53467000D01*
X43450500Y-53487000D01*
X43196500Y-53487000D01*
X43196500Y-53467000D01*
X43176500Y-53467000D01*
X43176500Y-53213000D01*
X43196500Y-53213000D01*
X43196500Y-53193000D01*
X43450500Y-53193000D01*
X43450500Y-53213000D01*
G37*
%TD.AperFunction*%
%TD*%
D26*
%TO.N,GNDA*%
X36234987Y-35499038D02*
X36049038Y-35684987D01*
X35902939Y-35903641D01*
X35802304Y-36146595D01*
X35751000Y-36404514D01*
X35751000Y-36667486D01*
X35802304Y-36925405D01*
X35902939Y-37168359D01*
X36049038Y-37387013D01*
X36234987Y-37572962D01*
X36453641Y-37719061D01*
X36615246Y-37786000D01*
X36453641Y-37852939D01*
X36234987Y-37999038D01*
X36049038Y-38184987D01*
X35902939Y-38403641D01*
X35802304Y-38646595D01*
X35751000Y-38904514D01*
X35751000Y-39167486D01*
X35802304Y-39425405D01*
X35902939Y-39668359D01*
X36049038Y-39887013D01*
X36234987Y-40072962D01*
X36453641Y-40219061D01*
X36696595Y-40319696D01*
X36954514Y-40371000D01*
X37217486Y-40371000D01*
X37475405Y-40319696D01*
X37718359Y-40219061D01*
X37937013Y-40072962D01*
X38122962Y-39887013D01*
X38269061Y-39668359D01*
X38369696Y-39425405D01*
X38421000Y-39167486D01*
X38421000Y-38904514D01*
X38369696Y-38646595D01*
X38269061Y-38403641D01*
X38122962Y-38184987D01*
X37937013Y-37999038D01*
X37718359Y-37852939D01*
X37556754Y-37786000D01*
X37718359Y-37719061D01*
X37937013Y-37572962D01*
X38122962Y-37387013D01*
X38269061Y-37168359D01*
X38369696Y-36925405D01*
X38421000Y-36667486D01*
X38421000Y-36404514D01*
X38369696Y-36146595D01*
X38269061Y-35903641D01*
X38122962Y-35684987D01*
X37937013Y-35499038D01*
X37838180Y-35433000D01*
X39633820Y-35433000D01*
X39534987Y-35499038D01*
X39349038Y-35684987D01*
X39202939Y-35903641D01*
X39102304Y-36146595D01*
X39051000Y-36404514D01*
X39051000Y-36667486D01*
X39102304Y-36925405D01*
X39202939Y-37168359D01*
X39349038Y-37387013D01*
X39534987Y-37572962D01*
X39753641Y-37719061D01*
X39915246Y-37786000D01*
X39753641Y-37852939D01*
X39534987Y-37999038D01*
X39349038Y-38184987D01*
X39202939Y-38403641D01*
X39102304Y-38646595D01*
X39051000Y-38904514D01*
X39051000Y-39167486D01*
X39102304Y-39425405D01*
X39202939Y-39668359D01*
X39349038Y-39887013D01*
X39534987Y-40072962D01*
X39753641Y-40219061D01*
X39996595Y-40319696D01*
X40254514Y-40371000D01*
X40517486Y-40371000D01*
X40775405Y-40319696D01*
X41018359Y-40219061D01*
X41237013Y-40072962D01*
X41422962Y-39887013D01*
X41569061Y-39668359D01*
X41640500Y-39495889D01*
X41640501Y-39591307D01*
X41574595Y-39671614D01*
X41492528Y-39825150D01*
X41441992Y-39991746D01*
X41424928Y-40165000D01*
X41424928Y-40966716D01*
X39981645Y-42410000D01*
X38203144Y-42410000D01*
X38101180Y-42355498D01*
X37981482Y-42319188D01*
X37857000Y-42306928D01*
X36107000Y-42306928D01*
X35982518Y-42319188D01*
X35862820Y-42355498D01*
X35752506Y-42414463D01*
X35655815Y-42493815D01*
X35576463Y-42590506D01*
X35517498Y-42700820D01*
X35481188Y-42820518D01*
X35468928Y-42945000D01*
X35468928Y-43895000D01*
X35481188Y-44019482D01*
X35517498Y-44139180D01*
X35576463Y-44249494D01*
X35655815Y-44346185D01*
X35752506Y-44425537D01*
X35862820Y-44484502D01*
X35982518Y-44520812D01*
X36107000Y-44533072D01*
X37857000Y-44533072D01*
X37981482Y-44520812D01*
X38101180Y-44484502D01*
X38203144Y-44430000D01*
X40350392Y-44430000D01*
X40400000Y-44434886D01*
X40597994Y-44415385D01*
X40788380Y-44357632D01*
X40963840Y-44263847D01*
X41117633Y-44137633D01*
X41149261Y-44099094D01*
X43306367Y-41941989D01*
X43327850Y-41935472D01*
X43481386Y-41853405D01*
X43615962Y-41742962D01*
X43621342Y-41736406D01*
X43686815Y-41816185D01*
X43783506Y-41895537D01*
X43893820Y-41954502D01*
X44013518Y-41990812D01*
X44138000Y-42003072D01*
X44439750Y-42000000D01*
X44598500Y-41841250D01*
X44598500Y-40767000D01*
X44578500Y-40767000D01*
X44578500Y-40513000D01*
X44598500Y-40513000D01*
X44598500Y-39438750D01*
X44439750Y-39280000D01*
X44138000Y-39276928D01*
X44013518Y-39289188D01*
X43893820Y-39325498D01*
X43783506Y-39384463D01*
X43686815Y-39463815D01*
X43660500Y-39495880D01*
X43660500Y-38793855D01*
X45089928Y-37364428D01*
X45089928Y-38346000D01*
X45102188Y-38470482D01*
X45138498Y-38590180D01*
X45197463Y-38700494D01*
X45276815Y-38797185D01*
X45339000Y-38848219D01*
X45339000Y-39279489D01*
X45313000Y-39276928D01*
X45011250Y-39280000D01*
X44852500Y-39438750D01*
X44852500Y-40513000D01*
X44872500Y-40513000D01*
X44872500Y-40767000D01*
X44852500Y-40767000D01*
X44852500Y-41841250D01*
X45011250Y-42000000D01*
X45083541Y-42000736D01*
X44852330Y-42347553D01*
X44840617Y-42369522D01*
X44833414Y-42393354D01*
X44831000Y-42418000D01*
X44831000Y-49662369D01*
X44750850Y-49619528D01*
X44584254Y-49568992D01*
X44411000Y-49551928D01*
X43867283Y-49551928D01*
X42251870Y-47936515D01*
X42282518Y-47945812D01*
X42407000Y-47958072D01*
X44157000Y-47958072D01*
X44281482Y-47945812D01*
X44401180Y-47909502D01*
X44511494Y-47850537D01*
X44608185Y-47771185D01*
X44687537Y-47674494D01*
X44746502Y-47564180D01*
X44782812Y-47444482D01*
X44795072Y-47320000D01*
X44795072Y-44120000D01*
X44782812Y-43995518D01*
X44746502Y-43875820D01*
X44687537Y-43765506D01*
X44608185Y-43668815D01*
X44511494Y-43589463D01*
X44401180Y-43530498D01*
X44281482Y-43494188D01*
X44157000Y-43481928D01*
X42407000Y-43481928D01*
X42282518Y-43494188D01*
X42162820Y-43530498D01*
X42052506Y-43589463D01*
X41955815Y-43668815D01*
X41876463Y-43765506D01*
X41817498Y-43875820D01*
X41781188Y-43995518D01*
X41768928Y-44120000D01*
X41768928Y-47320000D01*
X41781188Y-47444482D01*
X41790485Y-47475130D01*
X39356261Y-45040906D01*
X39324633Y-45002367D01*
X39170840Y-44876153D01*
X38995380Y-44782368D01*
X38804994Y-44724615D01*
X38656608Y-44710000D01*
X38607000Y-44705114D01*
X38557392Y-44710000D01*
X38203144Y-44710000D01*
X38101180Y-44655498D01*
X37981482Y-44619188D01*
X37857000Y-44606928D01*
X36107000Y-44606928D01*
X35982518Y-44619188D01*
X35862820Y-44655498D01*
X35752506Y-44714463D01*
X35655815Y-44793815D01*
X35576463Y-44890506D01*
X35517498Y-45000820D01*
X35481188Y-45120518D01*
X35468928Y-45245000D01*
X35468928Y-46195000D01*
X35481188Y-46319482D01*
X35517498Y-46439180D01*
X35576463Y-46549494D01*
X35655815Y-46646185D01*
X35752506Y-46725537D01*
X35862820Y-46784502D01*
X35982518Y-46820812D01*
X36107000Y-46833072D01*
X37857000Y-46833072D01*
X37981482Y-46820812D01*
X38101180Y-46784502D01*
X38193696Y-46735051D01*
X41465432Y-50006787D01*
X41415528Y-50100150D01*
X41364992Y-50266746D01*
X41347928Y-50440000D01*
X41347928Y-51181000D01*
X41148000Y-51181000D01*
X41123224Y-51183440D01*
X41099399Y-51190667D01*
X41077443Y-51202403D01*
X41058197Y-51218197D01*
X41042403Y-51237443D01*
X41030667Y-51259399D01*
X41023440Y-51283224D01*
X41021000Y-51308000D01*
X41021000Y-58258132D01*
X39624133Y-59655000D01*
X39558212Y-59655000D01*
X39338933Y-59698617D01*
X39132376Y-59784176D01*
X39030488Y-59852256D01*
X38909529Y-59775790D01*
X38701876Y-59695874D01*
X38527000Y-59820871D01*
X38527000Y-60663000D01*
X38538026Y-60663000D01*
X38535000Y-60678212D01*
X38535000Y-60901788D01*
X38538026Y-60917000D01*
X38527000Y-60917000D01*
X38527000Y-61933000D01*
X38538026Y-61933000D01*
X38535000Y-61948212D01*
X38535000Y-62171788D01*
X38538026Y-62187000D01*
X38527000Y-62187000D01*
X38527000Y-63203000D01*
X38538026Y-63203000D01*
X38535000Y-63218212D01*
X38535000Y-63441788D01*
X38538026Y-63457000D01*
X38527000Y-63457000D01*
X38527000Y-64473000D01*
X38531928Y-64473000D01*
X38531928Y-64727000D01*
X38527000Y-64727000D01*
X38527000Y-65569129D01*
X38701876Y-65694126D01*
X38837106Y-65642082D01*
X38925820Y-65689502D01*
X39045518Y-65725812D01*
X39170000Y-65738072D01*
X39627205Y-65738072D01*
X41050559Y-67161427D01*
X41076709Y-67193291D01*
X41115347Y-67225000D01*
X41203854Y-67297636D01*
X41325485Y-67362650D01*
X41328992Y-67398254D01*
X41379528Y-67564850D01*
X41461595Y-67718386D01*
X41572038Y-67852962D01*
X41684187Y-67945000D01*
X34950000Y-67945000D01*
X34950000Y-64901874D01*
X37305881Y-64901874D01*
X37322554Y-64956864D01*
X37412877Y-65160206D01*
X37541135Y-65342020D01*
X37702399Y-65495318D01*
X37890471Y-65614210D01*
X38098124Y-65694126D01*
X38273000Y-65569129D01*
X38273000Y-64727000D01*
X37432046Y-64727000D01*
X37305881Y-64901874D01*
X34950000Y-64901874D01*
X34950000Y-63631874D01*
X37305881Y-63631874D01*
X37322554Y-63686864D01*
X37412877Y-63890206D01*
X37465639Y-63965000D01*
X37412877Y-64039794D01*
X37322554Y-64243136D01*
X37305881Y-64298126D01*
X37432046Y-64473000D01*
X38273000Y-64473000D01*
X38273000Y-63457000D01*
X37432046Y-63457000D01*
X37305881Y-63631874D01*
X34950000Y-63631874D01*
X34950000Y-62361874D01*
X37305881Y-62361874D01*
X37322554Y-62416864D01*
X37412877Y-62620206D01*
X37465639Y-62695000D01*
X37412877Y-62769794D01*
X37322554Y-62973136D01*
X37305881Y-63028126D01*
X37432046Y-63203000D01*
X38273000Y-63203000D01*
X38273000Y-62187000D01*
X37432046Y-62187000D01*
X37305881Y-62361874D01*
X34950000Y-62361874D01*
X34950000Y-61091874D01*
X37305881Y-61091874D01*
X37322554Y-61146864D01*
X37412877Y-61350206D01*
X37465639Y-61425000D01*
X37412877Y-61499794D01*
X37322554Y-61703136D01*
X37305881Y-61758126D01*
X37432046Y-61933000D01*
X38273000Y-61933000D01*
X38273000Y-60917000D01*
X37432046Y-60917000D01*
X37305881Y-61091874D01*
X34950000Y-61091874D01*
X34950000Y-60488126D01*
X37305881Y-60488126D01*
X37432046Y-60663000D01*
X38273000Y-60663000D01*
X38273000Y-59820871D01*
X38098124Y-59695874D01*
X37890471Y-59775790D01*
X37702399Y-59894682D01*
X37541135Y-60047980D01*
X37412877Y-60229794D01*
X37322554Y-60433136D01*
X37305881Y-60488126D01*
X34950000Y-60488126D01*
X34950000Y-56490000D01*
X35472928Y-56490000D01*
X35485188Y-56614482D01*
X35521498Y-56734180D01*
X35580463Y-56844494D01*
X35659815Y-56941185D01*
X35756506Y-57020537D01*
X35866820Y-57079502D01*
X35986518Y-57115812D01*
X36111000Y-57128072D01*
X37162750Y-57125000D01*
X37321500Y-56966250D01*
X37321500Y-53467000D01*
X37575500Y-53467000D01*
X37575500Y-56966250D01*
X37734250Y-57125000D01*
X38786000Y-57128072D01*
X38910482Y-57115812D01*
X39030180Y-57079502D01*
X39140494Y-57020537D01*
X39237185Y-56941185D01*
X39316537Y-56844494D01*
X39375502Y-56734180D01*
X39411812Y-56614482D01*
X39424072Y-56490000D01*
X39421000Y-53625750D01*
X39262250Y-53467000D01*
X37575500Y-53467000D01*
X37321500Y-53467000D01*
X35634750Y-53467000D01*
X35476000Y-53625750D01*
X35472928Y-56490000D01*
X34950000Y-56490000D01*
X34950000Y-50190000D01*
X35472928Y-50190000D01*
X35476000Y-53054250D01*
X35634750Y-53213000D01*
X37321500Y-53213000D01*
X37321500Y-49713750D01*
X37575500Y-49713750D01*
X37575500Y-53213000D01*
X39262250Y-53213000D01*
X39421000Y-53054250D01*
X39424072Y-50190000D01*
X39411812Y-50065518D01*
X39375502Y-49945820D01*
X39316537Y-49835506D01*
X39237185Y-49738815D01*
X39140494Y-49659463D01*
X39030180Y-49600498D01*
X38910482Y-49564188D01*
X38786000Y-49551928D01*
X37734250Y-49555000D01*
X37575500Y-49713750D01*
X37321500Y-49713750D01*
X37162750Y-49555000D01*
X36111000Y-49551928D01*
X35986518Y-49564188D01*
X35866820Y-49600498D01*
X35756506Y-49659463D01*
X35659815Y-49738815D01*
X35580463Y-49835506D01*
X35521498Y-49945820D01*
X35485188Y-50065518D01*
X35472928Y-50190000D01*
X34950000Y-50190000D01*
X34950000Y-48495000D01*
X35468928Y-48495000D01*
X35481188Y-48619482D01*
X35517498Y-48739180D01*
X35576463Y-48849494D01*
X35655815Y-48946185D01*
X35752506Y-49025537D01*
X35862820Y-49084502D01*
X35982518Y-49120812D01*
X36107000Y-49133072D01*
X36696250Y-49130000D01*
X36855000Y-48971250D01*
X36855000Y-48147000D01*
X37109000Y-48147000D01*
X37109000Y-48971250D01*
X37267750Y-49130000D01*
X37857000Y-49133072D01*
X37981482Y-49120812D01*
X38101180Y-49084502D01*
X38211494Y-49025537D01*
X38308185Y-48946185D01*
X38387537Y-48849494D01*
X38446502Y-48739180D01*
X38482812Y-48619482D01*
X38495072Y-48495000D01*
X38492000Y-48305750D01*
X38333250Y-48147000D01*
X37109000Y-48147000D01*
X36855000Y-48147000D01*
X35630750Y-48147000D01*
X35472000Y-48305750D01*
X35468928Y-48495000D01*
X34950000Y-48495000D01*
X34950000Y-47545000D01*
X35468928Y-47545000D01*
X35472000Y-47734250D01*
X35630750Y-47893000D01*
X36855000Y-47893000D01*
X36855000Y-47068750D01*
X37109000Y-47068750D01*
X37109000Y-47893000D01*
X38333250Y-47893000D01*
X38492000Y-47734250D01*
X38495072Y-47545000D01*
X38482812Y-47420518D01*
X38446502Y-47300820D01*
X38387537Y-47190506D01*
X38308185Y-47093815D01*
X38211494Y-47014463D01*
X38101180Y-46955498D01*
X37981482Y-46919188D01*
X37857000Y-46906928D01*
X37267750Y-46910000D01*
X37109000Y-47068750D01*
X36855000Y-47068750D01*
X36696250Y-46910000D01*
X36107000Y-46906928D01*
X35982518Y-46919188D01*
X35862820Y-46955498D01*
X35752506Y-47014463D01*
X35655815Y-47093815D01*
X35576463Y-47190506D01*
X35517498Y-47300820D01*
X35481188Y-47420518D01*
X35468928Y-47545000D01*
X34950000Y-47545000D01*
X34950000Y-35433000D01*
X36333820Y-35433000D01*
X36234987Y-35499038D01*
%TA.AperFunction,Conductor*%
D27*
G36*
X36234987Y-35499038D02*
G01*
X36049038Y-35684987D01*
X35902939Y-35903641D01*
X35802304Y-36146595D01*
X35751000Y-36404514D01*
X35751000Y-36667486D01*
X35802304Y-36925405D01*
X35902939Y-37168359D01*
X36049038Y-37387013D01*
X36234987Y-37572962D01*
X36453641Y-37719061D01*
X36615246Y-37786000D01*
X36453641Y-37852939D01*
X36234987Y-37999038D01*
X36049038Y-38184987D01*
X35902939Y-38403641D01*
X35802304Y-38646595D01*
X35751000Y-38904514D01*
X35751000Y-39167486D01*
X35802304Y-39425405D01*
X35902939Y-39668359D01*
X36049038Y-39887013D01*
X36234987Y-40072962D01*
X36453641Y-40219061D01*
X36696595Y-40319696D01*
X36954514Y-40371000D01*
X37217486Y-40371000D01*
X37475405Y-40319696D01*
X37718359Y-40219061D01*
X37937013Y-40072962D01*
X38122962Y-39887013D01*
X38269061Y-39668359D01*
X38369696Y-39425405D01*
X38421000Y-39167486D01*
X38421000Y-38904514D01*
X38369696Y-38646595D01*
X38269061Y-38403641D01*
X38122962Y-38184987D01*
X37937013Y-37999038D01*
X37718359Y-37852939D01*
X37556754Y-37786000D01*
X37718359Y-37719061D01*
X37937013Y-37572962D01*
X38122962Y-37387013D01*
X38269061Y-37168359D01*
X38369696Y-36925405D01*
X38421000Y-36667486D01*
X38421000Y-36404514D01*
X38369696Y-36146595D01*
X38269061Y-35903641D01*
X38122962Y-35684987D01*
X37937013Y-35499038D01*
X37838180Y-35433000D01*
X39633820Y-35433000D01*
X39534987Y-35499038D01*
X39349038Y-35684987D01*
X39202939Y-35903641D01*
X39102304Y-36146595D01*
X39051000Y-36404514D01*
X39051000Y-36667486D01*
X39102304Y-36925405D01*
X39202939Y-37168359D01*
X39349038Y-37387013D01*
X39534987Y-37572962D01*
X39753641Y-37719061D01*
X39915246Y-37786000D01*
X39753641Y-37852939D01*
X39534987Y-37999038D01*
X39349038Y-38184987D01*
X39202939Y-38403641D01*
X39102304Y-38646595D01*
X39051000Y-38904514D01*
X39051000Y-39167486D01*
X39102304Y-39425405D01*
X39202939Y-39668359D01*
X39349038Y-39887013D01*
X39534987Y-40072962D01*
X39753641Y-40219061D01*
X39996595Y-40319696D01*
X40254514Y-40371000D01*
X40517486Y-40371000D01*
X40775405Y-40319696D01*
X41018359Y-40219061D01*
X41237013Y-40072962D01*
X41422962Y-39887013D01*
X41569061Y-39668359D01*
X41640500Y-39495889D01*
X41640501Y-39591307D01*
X41574595Y-39671614D01*
X41492528Y-39825150D01*
X41441992Y-39991746D01*
X41424928Y-40165000D01*
X41424928Y-40966716D01*
X39981645Y-42410000D01*
X38203144Y-42410000D01*
X38101180Y-42355498D01*
X37981482Y-42319188D01*
X37857000Y-42306928D01*
X36107000Y-42306928D01*
X35982518Y-42319188D01*
X35862820Y-42355498D01*
X35752506Y-42414463D01*
X35655815Y-42493815D01*
X35576463Y-42590506D01*
X35517498Y-42700820D01*
X35481188Y-42820518D01*
X35468928Y-42945000D01*
X35468928Y-43895000D01*
X35481188Y-44019482D01*
X35517498Y-44139180D01*
X35576463Y-44249494D01*
X35655815Y-44346185D01*
X35752506Y-44425537D01*
X35862820Y-44484502D01*
X35982518Y-44520812D01*
X36107000Y-44533072D01*
X37857000Y-44533072D01*
X37981482Y-44520812D01*
X38101180Y-44484502D01*
X38203144Y-44430000D01*
X40350392Y-44430000D01*
X40400000Y-44434886D01*
X40597994Y-44415385D01*
X40788380Y-44357632D01*
X40963840Y-44263847D01*
X41117633Y-44137633D01*
X41149261Y-44099094D01*
X43306367Y-41941989D01*
X43327850Y-41935472D01*
X43481386Y-41853405D01*
X43615962Y-41742962D01*
X43621342Y-41736406D01*
X43686815Y-41816185D01*
X43783506Y-41895537D01*
X43893820Y-41954502D01*
X44013518Y-41990812D01*
X44138000Y-42003072D01*
X44439750Y-42000000D01*
X44598500Y-41841250D01*
X44598500Y-40767000D01*
X44578500Y-40767000D01*
X44578500Y-40513000D01*
X44598500Y-40513000D01*
X44598500Y-39438750D01*
X44439750Y-39280000D01*
X44138000Y-39276928D01*
X44013518Y-39289188D01*
X43893820Y-39325498D01*
X43783506Y-39384463D01*
X43686815Y-39463815D01*
X43660500Y-39495880D01*
X43660500Y-38793855D01*
X45089928Y-37364428D01*
X45089928Y-38346000D01*
X45102188Y-38470482D01*
X45138498Y-38590180D01*
X45197463Y-38700494D01*
X45276815Y-38797185D01*
X45339000Y-38848219D01*
X45339000Y-39279489D01*
X45313000Y-39276928D01*
X45011250Y-39280000D01*
X44852500Y-39438750D01*
X44852500Y-40513000D01*
X44872500Y-40513000D01*
X44872500Y-40767000D01*
X44852500Y-40767000D01*
X44852500Y-41841250D01*
X45011250Y-42000000D01*
X45083541Y-42000736D01*
X44852330Y-42347553D01*
X44840617Y-42369522D01*
X44833414Y-42393354D01*
X44831000Y-42418000D01*
X44831000Y-49662369D01*
X44750850Y-49619528D01*
X44584254Y-49568992D01*
X44411000Y-49551928D01*
X43867283Y-49551928D01*
X42251870Y-47936515D01*
X42282518Y-47945812D01*
X42407000Y-47958072D01*
X44157000Y-47958072D01*
X44281482Y-47945812D01*
X44401180Y-47909502D01*
X44511494Y-47850537D01*
X44608185Y-47771185D01*
X44687537Y-47674494D01*
X44746502Y-47564180D01*
X44782812Y-47444482D01*
X44795072Y-47320000D01*
X44795072Y-44120000D01*
X44782812Y-43995518D01*
X44746502Y-43875820D01*
X44687537Y-43765506D01*
X44608185Y-43668815D01*
X44511494Y-43589463D01*
X44401180Y-43530498D01*
X44281482Y-43494188D01*
X44157000Y-43481928D01*
X42407000Y-43481928D01*
X42282518Y-43494188D01*
X42162820Y-43530498D01*
X42052506Y-43589463D01*
X41955815Y-43668815D01*
X41876463Y-43765506D01*
X41817498Y-43875820D01*
X41781188Y-43995518D01*
X41768928Y-44120000D01*
X41768928Y-47320000D01*
X41781188Y-47444482D01*
X41790485Y-47475130D01*
X39356261Y-45040906D01*
X39324633Y-45002367D01*
X39170840Y-44876153D01*
X38995380Y-44782368D01*
X38804994Y-44724615D01*
X38656608Y-44710000D01*
X38607000Y-44705114D01*
X38557392Y-44710000D01*
X38203144Y-44710000D01*
X38101180Y-44655498D01*
X37981482Y-44619188D01*
X37857000Y-44606928D01*
X36107000Y-44606928D01*
X35982518Y-44619188D01*
X35862820Y-44655498D01*
X35752506Y-44714463D01*
X35655815Y-44793815D01*
X35576463Y-44890506D01*
X35517498Y-45000820D01*
X35481188Y-45120518D01*
X35468928Y-45245000D01*
X35468928Y-46195000D01*
X35481188Y-46319482D01*
X35517498Y-46439180D01*
X35576463Y-46549494D01*
X35655815Y-46646185D01*
X35752506Y-46725537D01*
X35862820Y-46784502D01*
X35982518Y-46820812D01*
X36107000Y-46833072D01*
X37857000Y-46833072D01*
X37981482Y-46820812D01*
X38101180Y-46784502D01*
X38193696Y-46735051D01*
X41465432Y-50006787D01*
X41415528Y-50100150D01*
X41364992Y-50266746D01*
X41347928Y-50440000D01*
X41347928Y-51181000D01*
X41148000Y-51181000D01*
X41123224Y-51183440D01*
X41099399Y-51190667D01*
X41077443Y-51202403D01*
X41058197Y-51218197D01*
X41042403Y-51237443D01*
X41030667Y-51259399D01*
X41023440Y-51283224D01*
X41021000Y-51308000D01*
X41021000Y-58258132D01*
X39624133Y-59655000D01*
X39558212Y-59655000D01*
X39338933Y-59698617D01*
X39132376Y-59784176D01*
X39030488Y-59852256D01*
X38909529Y-59775790D01*
X38701876Y-59695874D01*
X38527000Y-59820871D01*
X38527000Y-60663000D01*
X38538026Y-60663000D01*
X38535000Y-60678212D01*
X38535000Y-60901788D01*
X38538026Y-60917000D01*
X38527000Y-60917000D01*
X38527000Y-61933000D01*
X38538026Y-61933000D01*
X38535000Y-61948212D01*
X38535000Y-62171788D01*
X38538026Y-62187000D01*
X38527000Y-62187000D01*
X38527000Y-63203000D01*
X38538026Y-63203000D01*
X38535000Y-63218212D01*
X38535000Y-63441788D01*
X38538026Y-63457000D01*
X38527000Y-63457000D01*
X38527000Y-64473000D01*
X38531928Y-64473000D01*
X38531928Y-64727000D01*
X38527000Y-64727000D01*
X38527000Y-65569129D01*
X38701876Y-65694126D01*
X38837106Y-65642082D01*
X38925820Y-65689502D01*
X39045518Y-65725812D01*
X39170000Y-65738072D01*
X39627205Y-65738072D01*
X41050559Y-67161427D01*
X41076709Y-67193291D01*
X41115347Y-67225000D01*
X41203854Y-67297636D01*
X41325485Y-67362650D01*
X41328992Y-67398254D01*
X41379528Y-67564850D01*
X41461595Y-67718386D01*
X41572038Y-67852962D01*
X41684187Y-67945000D01*
X34950000Y-67945000D01*
X34950000Y-64901874D01*
X37305881Y-64901874D01*
X37322554Y-64956864D01*
X37412877Y-65160206D01*
X37541135Y-65342020D01*
X37702399Y-65495318D01*
X37890471Y-65614210D01*
X38098124Y-65694126D01*
X38273000Y-65569129D01*
X38273000Y-64727000D01*
X37432046Y-64727000D01*
X37305881Y-64901874D01*
X34950000Y-64901874D01*
X34950000Y-63631874D01*
X37305881Y-63631874D01*
X37322554Y-63686864D01*
X37412877Y-63890206D01*
X37465639Y-63965000D01*
X37412877Y-64039794D01*
X37322554Y-64243136D01*
X37305881Y-64298126D01*
X37432046Y-64473000D01*
X38273000Y-64473000D01*
X38273000Y-63457000D01*
X37432046Y-63457000D01*
X37305881Y-63631874D01*
X34950000Y-63631874D01*
X34950000Y-62361874D01*
X37305881Y-62361874D01*
X37322554Y-62416864D01*
X37412877Y-62620206D01*
X37465639Y-62695000D01*
X37412877Y-62769794D01*
X37322554Y-62973136D01*
X37305881Y-63028126D01*
X37432046Y-63203000D01*
X38273000Y-63203000D01*
X38273000Y-62187000D01*
X37432046Y-62187000D01*
X37305881Y-62361874D01*
X34950000Y-62361874D01*
X34950000Y-61091874D01*
X37305881Y-61091874D01*
X37322554Y-61146864D01*
X37412877Y-61350206D01*
X37465639Y-61425000D01*
X37412877Y-61499794D01*
X37322554Y-61703136D01*
X37305881Y-61758126D01*
X37432046Y-61933000D01*
X38273000Y-61933000D01*
X38273000Y-60917000D01*
X37432046Y-60917000D01*
X37305881Y-61091874D01*
X34950000Y-61091874D01*
X34950000Y-60488126D01*
X37305881Y-60488126D01*
X37432046Y-60663000D01*
X38273000Y-60663000D01*
X38273000Y-59820871D01*
X38098124Y-59695874D01*
X37890471Y-59775790D01*
X37702399Y-59894682D01*
X37541135Y-60047980D01*
X37412877Y-60229794D01*
X37322554Y-60433136D01*
X37305881Y-60488126D01*
X34950000Y-60488126D01*
X34950000Y-56490000D01*
X35472928Y-56490000D01*
X35485188Y-56614482D01*
X35521498Y-56734180D01*
X35580463Y-56844494D01*
X35659815Y-56941185D01*
X35756506Y-57020537D01*
X35866820Y-57079502D01*
X35986518Y-57115812D01*
X36111000Y-57128072D01*
X37162750Y-57125000D01*
X37321500Y-56966250D01*
X37321500Y-53467000D01*
X37575500Y-53467000D01*
X37575500Y-56966250D01*
X37734250Y-57125000D01*
X38786000Y-57128072D01*
X38910482Y-57115812D01*
X39030180Y-57079502D01*
X39140494Y-57020537D01*
X39237185Y-56941185D01*
X39316537Y-56844494D01*
X39375502Y-56734180D01*
X39411812Y-56614482D01*
X39424072Y-56490000D01*
X39421000Y-53625750D01*
X39262250Y-53467000D01*
X37575500Y-53467000D01*
X37321500Y-53467000D01*
X35634750Y-53467000D01*
X35476000Y-53625750D01*
X35472928Y-56490000D01*
X34950000Y-56490000D01*
X34950000Y-50190000D01*
X35472928Y-50190000D01*
X35476000Y-53054250D01*
X35634750Y-53213000D01*
X37321500Y-53213000D01*
X37321500Y-49713750D01*
X37575500Y-49713750D01*
X37575500Y-53213000D01*
X39262250Y-53213000D01*
X39421000Y-53054250D01*
X39424072Y-50190000D01*
X39411812Y-50065518D01*
X39375502Y-49945820D01*
X39316537Y-49835506D01*
X39237185Y-49738815D01*
X39140494Y-49659463D01*
X39030180Y-49600498D01*
X38910482Y-49564188D01*
X38786000Y-49551928D01*
X37734250Y-49555000D01*
X37575500Y-49713750D01*
X37321500Y-49713750D01*
X37162750Y-49555000D01*
X36111000Y-49551928D01*
X35986518Y-49564188D01*
X35866820Y-49600498D01*
X35756506Y-49659463D01*
X35659815Y-49738815D01*
X35580463Y-49835506D01*
X35521498Y-49945820D01*
X35485188Y-50065518D01*
X35472928Y-50190000D01*
X34950000Y-50190000D01*
X34950000Y-48495000D01*
X35468928Y-48495000D01*
X35481188Y-48619482D01*
X35517498Y-48739180D01*
X35576463Y-48849494D01*
X35655815Y-48946185D01*
X35752506Y-49025537D01*
X35862820Y-49084502D01*
X35982518Y-49120812D01*
X36107000Y-49133072D01*
X36696250Y-49130000D01*
X36855000Y-48971250D01*
X36855000Y-48147000D01*
X37109000Y-48147000D01*
X37109000Y-48971250D01*
X37267750Y-49130000D01*
X37857000Y-49133072D01*
X37981482Y-49120812D01*
X38101180Y-49084502D01*
X38211494Y-49025537D01*
X38308185Y-48946185D01*
X38387537Y-48849494D01*
X38446502Y-48739180D01*
X38482812Y-48619482D01*
X38495072Y-48495000D01*
X38492000Y-48305750D01*
X38333250Y-48147000D01*
X37109000Y-48147000D01*
X36855000Y-48147000D01*
X35630750Y-48147000D01*
X35472000Y-48305750D01*
X35468928Y-48495000D01*
X34950000Y-48495000D01*
X34950000Y-47545000D01*
X35468928Y-47545000D01*
X35472000Y-47734250D01*
X35630750Y-47893000D01*
X36855000Y-47893000D01*
X36855000Y-47068750D01*
X37109000Y-47068750D01*
X37109000Y-47893000D01*
X38333250Y-47893000D01*
X38492000Y-47734250D01*
X38495072Y-47545000D01*
X38482812Y-47420518D01*
X38446502Y-47300820D01*
X38387537Y-47190506D01*
X38308185Y-47093815D01*
X38211494Y-47014463D01*
X38101180Y-46955498D01*
X37981482Y-46919188D01*
X37857000Y-46906928D01*
X37267750Y-46910000D01*
X37109000Y-47068750D01*
X36855000Y-47068750D01*
X36696250Y-46910000D01*
X36107000Y-46906928D01*
X35982518Y-46919188D01*
X35862820Y-46955498D01*
X35752506Y-47014463D01*
X35655815Y-47093815D01*
X35576463Y-47190506D01*
X35517498Y-47300820D01*
X35481188Y-47420518D01*
X35468928Y-47545000D01*
X34950000Y-47545000D01*
X34950000Y-35433000D01*
X36333820Y-35433000D01*
X36234987Y-35499038D01*
G37*
%TD.AperFunction*%
D26*
X42039463Y-25342506D02*
X41980498Y-25452820D01*
X41944188Y-25572518D01*
X41931928Y-25697000D01*
X41935000Y-26748750D01*
X42093750Y-26907500D01*
X45593000Y-26907500D01*
X45593000Y-26887500D01*
X45847000Y-26887500D01*
X45847000Y-26907500D01*
X49346250Y-26907500D01*
X49505000Y-26748750D01*
X49508072Y-25697000D01*
X49495812Y-25572518D01*
X49459502Y-25452820D01*
X49400537Y-25342506D01*
X49364012Y-25298000D01*
X87732001Y-25298000D01*
X87732001Y-49149000D01*
X83312000Y-49149000D01*
X83287224Y-49151440D01*
X83263399Y-49158667D01*
X83241443Y-49170403D01*
X83222197Y-49186197D01*
X83206403Y-49205443D01*
X83194667Y-49227399D01*
X83187440Y-49251224D01*
X83185000Y-49276000D01*
X83185000Y-50176026D01*
X83169788Y-50173000D01*
X82946212Y-50173000D01*
X82726933Y-50216617D01*
X82520376Y-50302176D01*
X82418342Y-50370353D01*
X82348206Y-50320877D01*
X82144864Y-50230554D01*
X82089874Y-50213881D01*
X81915000Y-50340046D01*
X81915000Y-51181000D01*
X81926026Y-51181000D01*
X81923000Y-51196212D01*
X81923000Y-51419788D01*
X81926026Y-51435000D01*
X81915000Y-51435000D01*
X81915000Y-52275954D01*
X82089874Y-52402119D01*
X82144864Y-52385446D01*
X82348206Y-52295123D01*
X82418342Y-52245647D01*
X82520376Y-52313824D01*
X82726933Y-52399383D01*
X82946212Y-52443000D01*
X83169788Y-52443000D01*
X83185000Y-52439974D01*
X83185000Y-56010386D01*
X66077247Y-56472757D01*
X66082527Y-56419150D01*
X66070266Y-56294669D01*
X66033957Y-56174970D01*
X65974993Y-56064656D01*
X65895640Y-55967965D01*
X65680098Y-55756768D01*
X65455592Y-55756768D01*
X64702445Y-56509914D01*
X64512569Y-56515046D01*
X64487867Y-56518155D01*
X64464247Y-56526023D01*
X64442615Y-56538348D01*
X64423804Y-56554656D01*
X64408536Y-56574321D01*
X64397397Y-56596587D01*
X64392419Y-56612731D01*
X64328113Y-56884247D01*
X63756768Y-57455592D01*
X63756768Y-57680098D01*
X63967965Y-57895640D01*
X64064656Y-57974993D01*
X64069202Y-57977423D01*
X63683353Y-59606565D01*
X62776023Y-60513895D01*
X62696671Y-60610586D01*
X62637706Y-60720900D01*
X62601396Y-60840598D01*
X62589136Y-60965080D01*
X62601396Y-61089562D01*
X62637706Y-61209260D01*
X62696671Y-61319574D01*
X62776023Y-61416265D01*
X63163071Y-61803313D01*
X62129053Y-66169164D01*
X61024053Y-66193186D01*
X60017000Y-65186133D01*
X60017000Y-56613604D01*
X62950227Y-56613604D01*
X62962488Y-56738085D01*
X62998797Y-56857784D01*
X63057761Y-56968098D01*
X63137114Y-57064789D01*
X63352656Y-57275986D01*
X63577162Y-57275986D01*
X64336772Y-56516377D01*
X63674390Y-55853995D01*
X63449883Y-55853995D01*
X63137114Y-56162419D01*
X63057761Y-56259110D01*
X62998797Y-56369425D01*
X62962488Y-56489123D01*
X62950227Y-56613604D01*
X60017000Y-56613604D01*
X60017000Y-55449883D01*
X63853995Y-55449883D01*
X63853995Y-55674390D01*
X64516377Y-56336772D01*
X65275986Y-55577162D01*
X65275986Y-55352656D01*
X65064789Y-55137114D01*
X64968098Y-55057761D01*
X64857784Y-54998797D01*
X64738085Y-54962488D01*
X64613604Y-54950227D01*
X64489123Y-54962488D01*
X64369425Y-54998797D01*
X64259110Y-55057761D01*
X64162419Y-55137114D01*
X63853995Y-55449883D01*
X60017000Y-55449883D01*
X60017000Y-51609876D01*
X80693874Y-51609876D01*
X80773790Y-51817529D01*
X80892682Y-52005601D01*
X81045980Y-52166865D01*
X81227794Y-52295123D01*
X81431136Y-52385446D01*
X81486126Y-52402119D01*
X81661000Y-52275954D01*
X81661000Y-51435000D01*
X80818871Y-51435000D01*
X80693874Y-51609876D01*
X60017000Y-51609876D01*
X60017000Y-51006124D01*
X80693874Y-51006124D01*
X80818871Y-51181000D01*
X81661000Y-51181000D01*
X81661000Y-50340046D01*
X81486126Y-50213881D01*
X81431136Y-50230554D01*
X81227794Y-50320877D01*
X81045980Y-50449135D01*
X80892682Y-50610399D01*
X80773790Y-50798471D01*
X80693874Y-51006124D01*
X60017000Y-51006124D01*
X60017000Y-46065867D01*
X63299427Y-42783441D01*
X63331291Y-42757291D01*
X63435636Y-42630146D01*
X63513172Y-42485087D01*
X63560918Y-42327689D01*
X63573000Y-42205019D01*
X63573000Y-42205009D01*
X63577039Y-42164001D01*
X63573000Y-42122993D01*
X63573000Y-41780613D01*
X63631386Y-41749405D01*
X63765962Y-41638962D01*
X63876405Y-41504386D01*
X63958472Y-41350850D01*
X64009008Y-41184254D01*
X64026072Y-41011000D01*
X64026072Y-39761000D01*
X64009008Y-39587746D01*
X63958472Y-39421150D01*
X63876405Y-39267614D01*
X63765962Y-39133038D01*
X63631386Y-39022595D01*
X63600053Y-39005847D01*
X63766463Y-38936918D01*
X64034252Y-38757987D01*
X64261987Y-38530252D01*
X64440918Y-38262463D01*
X64564168Y-37964912D01*
X64627000Y-37649033D01*
X64627000Y-37326967D01*
X64564168Y-37011088D01*
X64440918Y-36713537D01*
X64261987Y-36445748D01*
X64034252Y-36218013D01*
X63766463Y-36039082D01*
X63468912Y-35915832D01*
X63153033Y-35853000D01*
X62830967Y-35853000D01*
X62515088Y-35915832D01*
X62217537Y-36039082D01*
X61949748Y-36218013D01*
X61722013Y-36445748D01*
X61543082Y-36713537D01*
X61419832Y-37011088D01*
X61357000Y-37326967D01*
X61357000Y-37649033D01*
X61419832Y-37964912D01*
X61543082Y-38262463D01*
X61722013Y-38530252D01*
X61903001Y-38711240D01*
X61903001Y-38991387D01*
X61844614Y-39022595D01*
X61710038Y-39133038D01*
X61599595Y-39267614D01*
X61517528Y-39421150D01*
X61466992Y-39587746D01*
X61449928Y-39761000D01*
X61449928Y-41011000D01*
X61466992Y-41184254D01*
X61517528Y-41350850D01*
X61599595Y-41504386D01*
X61710038Y-41638962D01*
X61844614Y-41749405D01*
X61903001Y-41780613D01*
X61903001Y-41818131D01*
X58620579Y-45100554D01*
X58588709Y-45126709D01*
X58491631Y-45245000D01*
X58484364Y-45253855D01*
X58406828Y-45398914D01*
X58359082Y-45556312D01*
X58342960Y-45720000D01*
X58347000Y-45761018D01*
X58347001Y-65490971D01*
X58342960Y-65532000D01*
X58359082Y-65695688D01*
X58406828Y-65853086D01*
X58457152Y-65947235D01*
X58484365Y-65998146D01*
X58588710Y-66125291D01*
X58620574Y-66151441D01*
X58712568Y-66243435D01*
X50648797Y-66418735D01*
X48193077Y-54631280D01*
X51225094Y-51599263D01*
X51263633Y-51567635D01*
X51389847Y-51413842D01*
X51483632Y-51238382D01*
X51541385Y-51047996D01*
X51546605Y-50995001D01*
X51651803Y-50889803D01*
X51667597Y-50870557D01*
X51679333Y-50848601D01*
X51686560Y-50824776D01*
X51689000Y-50800000D01*
X51689000Y-45518606D01*
X54434748Y-42772858D01*
X54626178Y-42658000D01*
X54758722Y-42658000D01*
X55050451Y-42599971D01*
X55325253Y-42486144D01*
X55572569Y-42320893D01*
X55735462Y-42158000D01*
X58826392Y-42158000D01*
X58876000Y-42162886D01*
X59073994Y-42143385D01*
X59264380Y-42085632D01*
X59439840Y-41991847D01*
X59552887Y-41899072D01*
X60038000Y-41899072D01*
X60211254Y-41882008D01*
X60377850Y-41831472D01*
X60531386Y-41749405D01*
X60665962Y-41638962D01*
X60776405Y-41504386D01*
X60858472Y-41350850D01*
X60909008Y-41184254D01*
X60926072Y-41011000D01*
X60926072Y-39761000D01*
X60909008Y-39587746D01*
X60858472Y-39421150D01*
X60776405Y-39267614D01*
X60665962Y-39133038D01*
X60531386Y-39022595D01*
X60377850Y-38940528D01*
X60211254Y-38889992D01*
X60038000Y-38872928D01*
X59357436Y-38872928D01*
X59447808Y-38623413D01*
X58492000Y-37667605D01*
X57536192Y-38623413D01*
X57631956Y-38887814D01*
X57921571Y-39028704D01*
X58233108Y-39110384D01*
X58554595Y-39129718D01*
X58626018Y-39119923D01*
X58610038Y-39133038D01*
X58499595Y-39267614D01*
X58417528Y-39421150D01*
X58366992Y-39587746D01*
X58349928Y-39761000D01*
X58349928Y-40138000D01*
X56109915Y-40138000D01*
X56512534Y-38124907D01*
X56515000Y-38100000D01*
X56515000Y-37550595D01*
X56850282Y-37550595D01*
X56894039Y-37869675D01*
X56999205Y-38174088D01*
X57092186Y-38348044D01*
X57356587Y-38443808D01*
X58312395Y-37488000D01*
X58671605Y-37488000D01*
X59627413Y-38443808D01*
X59891814Y-38348044D01*
X60032704Y-38058429D01*
X60114384Y-37746892D01*
X60133718Y-37425405D01*
X60089961Y-37106325D01*
X59984795Y-36801912D01*
X59891814Y-36627956D01*
X59627413Y-36532192D01*
X58671605Y-37488000D01*
X58312395Y-37488000D01*
X57356587Y-36532192D01*
X57092186Y-36627956D01*
X56951296Y-36917571D01*
X56869616Y-37229108D01*
X56850282Y-37550595D01*
X56515000Y-37550595D01*
X56515000Y-36830000D01*
X56512560Y-36805224D01*
X56505333Y-36781399D01*
X56493597Y-36759443D01*
X56477803Y-36740197D01*
X56458557Y-36724403D01*
X56436601Y-36712667D01*
X56412776Y-36705440D01*
X56388000Y-36703000D01*
X45751356Y-36703000D01*
X46101769Y-36352587D01*
X57536192Y-36352587D01*
X58492000Y-37308395D01*
X59447808Y-36352587D01*
X59352044Y-36088186D01*
X59062429Y-35947296D01*
X58750892Y-35865616D01*
X58429405Y-35846282D01*
X58110325Y-35890039D01*
X57805912Y-35995205D01*
X57631956Y-36088186D01*
X57536192Y-36352587D01*
X46101769Y-36352587D01*
X46399100Y-36055256D01*
X46437633Y-36023633D01*
X46563847Y-35869840D01*
X46657632Y-35694380D01*
X46715385Y-35503994D01*
X46722377Y-35433000D01*
X49530000Y-35433000D01*
X49554776Y-35430560D01*
X49574109Y-35425094D01*
X56410763Y-32893000D01*
X63978020Y-32893000D01*
X64459204Y-33133592D01*
X64482456Y-33142490D01*
X64516000Y-33147000D01*
X86868000Y-33147000D01*
X86892776Y-33144560D01*
X86916601Y-33137333D01*
X86938557Y-33125597D01*
X86957803Y-33109803D01*
X86973597Y-33090557D01*
X86985333Y-33068601D01*
X86992560Y-33044776D01*
X86995000Y-33020000D01*
X86995000Y-27686000D01*
X86992560Y-27661224D01*
X86985333Y-27637399D01*
X86973597Y-27615443D01*
X86957803Y-27596197D01*
X86938557Y-27580403D01*
X86916601Y-27568667D01*
X86892776Y-27561440D01*
X86868000Y-27559000D01*
X56388000Y-27559000D01*
X56363224Y-27561440D01*
X56344983Y-27566507D01*
X50015836Y-29845000D01*
X43688000Y-29845000D01*
X43663224Y-29847440D01*
X43639399Y-29854667D01*
X43617443Y-29866403D01*
X43605349Y-29875574D01*
X41827349Y-31399574D01*
X41810126Y-31417552D01*
X41796740Y-31438543D01*
X41785466Y-31471093D01*
X41551885Y-32639000D01*
X40417356Y-32639000D01*
X38936863Y-31158508D01*
X38940180Y-31157502D01*
X39050494Y-31098537D01*
X39147185Y-31019185D01*
X39226537Y-30922494D01*
X39285502Y-30812180D01*
X39321812Y-30692482D01*
X39334072Y-30568000D01*
X39334072Y-28868000D01*
X39321812Y-28743518D01*
X39285502Y-28623820D01*
X39226537Y-28513506D01*
X39147185Y-28416815D01*
X39092578Y-28372000D01*
X41931928Y-28372000D01*
X41944188Y-28496482D01*
X41980498Y-28616180D01*
X42039463Y-28726494D01*
X42118815Y-28823185D01*
X42215506Y-28902537D01*
X42325820Y-28961502D01*
X42445518Y-28997812D01*
X42570000Y-29010072D01*
X45434250Y-29007000D01*
X45593000Y-28848250D01*
X45593000Y-27161500D01*
X45847000Y-27161500D01*
X45847000Y-28848250D01*
X46005750Y-29007000D01*
X48870000Y-29010072D01*
X48994482Y-28997812D01*
X49114180Y-28961502D01*
X49224494Y-28902537D01*
X49321185Y-28823185D01*
X49400537Y-28726494D01*
X49459502Y-28616180D01*
X49495812Y-28496482D01*
X49508072Y-28372000D01*
X49505000Y-27320250D01*
X49346250Y-27161500D01*
X45847000Y-27161500D01*
X45593000Y-27161500D01*
X42093750Y-27161500D01*
X41935000Y-27320250D01*
X41931928Y-28372000D01*
X39092578Y-28372000D01*
X39050494Y-28337463D01*
X38940180Y-28278498D01*
X38859534Y-28254034D01*
X38943588Y-28178269D01*
X39117641Y-27944920D01*
X39242825Y-27682099D01*
X39287476Y-27534890D01*
X39166155Y-27305000D01*
X37973000Y-27305000D01*
X37973000Y-27325000D01*
X37719000Y-27325000D01*
X37719000Y-27305000D01*
X36525845Y-27305000D01*
X36404524Y-27534890D01*
X36449175Y-27682099D01*
X36574359Y-27944920D01*
X36748412Y-28178269D01*
X36832466Y-28254034D01*
X36751820Y-28278498D01*
X36641506Y-28337463D01*
X36544815Y-28416815D01*
X36465463Y-28513506D01*
X36406498Y-28623820D01*
X36370188Y-28743518D01*
X36357928Y-28868000D01*
X36357928Y-30568000D01*
X36370188Y-30692482D01*
X36406498Y-30812180D01*
X36465463Y-30922494D01*
X36544815Y-31019185D01*
X36641506Y-31098537D01*
X36751820Y-31157502D01*
X36836001Y-31183038D01*
X36836001Y-31446383D01*
X36831114Y-31496000D01*
X36850615Y-31693994D01*
X36908368Y-31884379D01*
X36962782Y-31986180D01*
X37002154Y-32059840D01*
X37128368Y-32213633D01*
X37166901Y-32245256D01*
X37560644Y-32639000D01*
X34950000Y-32639000D01*
X34950000Y-26821110D01*
X36404524Y-26821110D01*
X36525845Y-27051000D01*
X37719000Y-27051000D01*
X37719000Y-25857186D01*
X37973000Y-25857186D01*
X37973000Y-27051000D01*
X39166155Y-27051000D01*
X39287476Y-26821110D01*
X39242825Y-26673901D01*
X39117641Y-26411080D01*
X38943588Y-26177731D01*
X38727355Y-25982822D01*
X38477252Y-25833843D01*
X38202891Y-25736519D01*
X37973000Y-25857186D01*
X37719000Y-25857186D01*
X37489109Y-25736519D01*
X37214748Y-25833843D01*
X36964645Y-25982822D01*
X36748412Y-26177731D01*
X36574359Y-26411080D01*
X36449175Y-26673901D01*
X36404524Y-26821110D01*
X34950000Y-26821110D01*
X34950000Y-25298000D01*
X42075988Y-25298000D01*
X42039463Y-25342506D01*
%TA.AperFunction,Conductor*%
D27*
G36*
X42039463Y-25342506D02*
G01*
X41980498Y-25452820D01*
X41944188Y-25572518D01*
X41931928Y-25697000D01*
X41935000Y-26748750D01*
X42093750Y-26907500D01*
X45593000Y-26907500D01*
X45593000Y-26887500D01*
X45847000Y-26887500D01*
X45847000Y-26907500D01*
X49346250Y-26907500D01*
X49505000Y-26748750D01*
X49508072Y-25697000D01*
X49495812Y-25572518D01*
X49459502Y-25452820D01*
X49400537Y-25342506D01*
X49364012Y-25298000D01*
X87732001Y-25298000D01*
X87732001Y-49149000D01*
X83312000Y-49149000D01*
X83287224Y-49151440D01*
X83263399Y-49158667D01*
X83241443Y-49170403D01*
X83222197Y-49186197D01*
X83206403Y-49205443D01*
X83194667Y-49227399D01*
X83187440Y-49251224D01*
X83185000Y-49276000D01*
X83185000Y-50176026D01*
X83169788Y-50173000D01*
X82946212Y-50173000D01*
X82726933Y-50216617D01*
X82520376Y-50302176D01*
X82418342Y-50370353D01*
X82348206Y-50320877D01*
X82144864Y-50230554D01*
X82089874Y-50213881D01*
X81915000Y-50340046D01*
X81915000Y-51181000D01*
X81926026Y-51181000D01*
X81923000Y-51196212D01*
X81923000Y-51419788D01*
X81926026Y-51435000D01*
X81915000Y-51435000D01*
X81915000Y-52275954D01*
X82089874Y-52402119D01*
X82144864Y-52385446D01*
X82348206Y-52295123D01*
X82418342Y-52245647D01*
X82520376Y-52313824D01*
X82726933Y-52399383D01*
X82946212Y-52443000D01*
X83169788Y-52443000D01*
X83185000Y-52439974D01*
X83185000Y-56010386D01*
X66077247Y-56472757D01*
X66082527Y-56419150D01*
X66070266Y-56294669D01*
X66033957Y-56174970D01*
X65974993Y-56064656D01*
X65895640Y-55967965D01*
X65680098Y-55756768D01*
X65455592Y-55756768D01*
X64702445Y-56509914D01*
X64512569Y-56515046D01*
X64487867Y-56518155D01*
X64464247Y-56526023D01*
X64442615Y-56538348D01*
X64423804Y-56554656D01*
X64408536Y-56574321D01*
X64397397Y-56596587D01*
X64392419Y-56612731D01*
X64328113Y-56884247D01*
X63756768Y-57455592D01*
X63756768Y-57680098D01*
X63967965Y-57895640D01*
X64064656Y-57974993D01*
X64069202Y-57977423D01*
X63683353Y-59606565D01*
X62776023Y-60513895D01*
X62696671Y-60610586D01*
X62637706Y-60720900D01*
X62601396Y-60840598D01*
X62589136Y-60965080D01*
X62601396Y-61089562D01*
X62637706Y-61209260D01*
X62696671Y-61319574D01*
X62776023Y-61416265D01*
X63163071Y-61803313D01*
X62129053Y-66169164D01*
X61024053Y-66193186D01*
X60017000Y-65186133D01*
X60017000Y-56613604D01*
X62950227Y-56613604D01*
X62962488Y-56738085D01*
X62998797Y-56857784D01*
X63057761Y-56968098D01*
X63137114Y-57064789D01*
X63352656Y-57275986D01*
X63577162Y-57275986D01*
X64336772Y-56516377D01*
X63674390Y-55853995D01*
X63449883Y-55853995D01*
X63137114Y-56162419D01*
X63057761Y-56259110D01*
X62998797Y-56369425D01*
X62962488Y-56489123D01*
X62950227Y-56613604D01*
X60017000Y-56613604D01*
X60017000Y-55449883D01*
X63853995Y-55449883D01*
X63853995Y-55674390D01*
X64516377Y-56336772D01*
X65275986Y-55577162D01*
X65275986Y-55352656D01*
X65064789Y-55137114D01*
X64968098Y-55057761D01*
X64857784Y-54998797D01*
X64738085Y-54962488D01*
X64613604Y-54950227D01*
X64489123Y-54962488D01*
X64369425Y-54998797D01*
X64259110Y-55057761D01*
X64162419Y-55137114D01*
X63853995Y-55449883D01*
X60017000Y-55449883D01*
X60017000Y-51609876D01*
X80693874Y-51609876D01*
X80773790Y-51817529D01*
X80892682Y-52005601D01*
X81045980Y-52166865D01*
X81227794Y-52295123D01*
X81431136Y-52385446D01*
X81486126Y-52402119D01*
X81661000Y-52275954D01*
X81661000Y-51435000D01*
X80818871Y-51435000D01*
X80693874Y-51609876D01*
X60017000Y-51609876D01*
X60017000Y-51006124D01*
X80693874Y-51006124D01*
X80818871Y-51181000D01*
X81661000Y-51181000D01*
X81661000Y-50340046D01*
X81486126Y-50213881D01*
X81431136Y-50230554D01*
X81227794Y-50320877D01*
X81045980Y-50449135D01*
X80892682Y-50610399D01*
X80773790Y-50798471D01*
X80693874Y-51006124D01*
X60017000Y-51006124D01*
X60017000Y-46065867D01*
X63299427Y-42783441D01*
X63331291Y-42757291D01*
X63435636Y-42630146D01*
X63513172Y-42485087D01*
X63560918Y-42327689D01*
X63573000Y-42205019D01*
X63573000Y-42205009D01*
X63577039Y-42164001D01*
X63573000Y-42122993D01*
X63573000Y-41780613D01*
X63631386Y-41749405D01*
X63765962Y-41638962D01*
X63876405Y-41504386D01*
X63958472Y-41350850D01*
X64009008Y-41184254D01*
X64026072Y-41011000D01*
X64026072Y-39761000D01*
X64009008Y-39587746D01*
X63958472Y-39421150D01*
X63876405Y-39267614D01*
X63765962Y-39133038D01*
X63631386Y-39022595D01*
X63600053Y-39005847D01*
X63766463Y-38936918D01*
X64034252Y-38757987D01*
X64261987Y-38530252D01*
X64440918Y-38262463D01*
X64564168Y-37964912D01*
X64627000Y-37649033D01*
X64627000Y-37326967D01*
X64564168Y-37011088D01*
X64440918Y-36713537D01*
X64261987Y-36445748D01*
X64034252Y-36218013D01*
X63766463Y-36039082D01*
X63468912Y-35915832D01*
X63153033Y-35853000D01*
X62830967Y-35853000D01*
X62515088Y-35915832D01*
X62217537Y-36039082D01*
X61949748Y-36218013D01*
X61722013Y-36445748D01*
X61543082Y-36713537D01*
X61419832Y-37011088D01*
X61357000Y-37326967D01*
X61357000Y-37649033D01*
X61419832Y-37964912D01*
X61543082Y-38262463D01*
X61722013Y-38530252D01*
X61903001Y-38711240D01*
X61903001Y-38991387D01*
X61844614Y-39022595D01*
X61710038Y-39133038D01*
X61599595Y-39267614D01*
X61517528Y-39421150D01*
X61466992Y-39587746D01*
X61449928Y-39761000D01*
X61449928Y-41011000D01*
X61466992Y-41184254D01*
X61517528Y-41350850D01*
X61599595Y-41504386D01*
X61710038Y-41638962D01*
X61844614Y-41749405D01*
X61903001Y-41780613D01*
X61903001Y-41818131D01*
X58620579Y-45100554D01*
X58588709Y-45126709D01*
X58491631Y-45245000D01*
X58484364Y-45253855D01*
X58406828Y-45398914D01*
X58359082Y-45556312D01*
X58342960Y-45720000D01*
X58347000Y-45761018D01*
X58347001Y-65490971D01*
X58342960Y-65532000D01*
X58359082Y-65695688D01*
X58406828Y-65853086D01*
X58457152Y-65947235D01*
X58484365Y-65998146D01*
X58588710Y-66125291D01*
X58620574Y-66151441D01*
X58712568Y-66243435D01*
X50648797Y-66418735D01*
X48193077Y-54631280D01*
X51225094Y-51599263D01*
X51263633Y-51567635D01*
X51389847Y-51413842D01*
X51483632Y-51238382D01*
X51541385Y-51047996D01*
X51546605Y-50995001D01*
X51651803Y-50889803D01*
X51667597Y-50870557D01*
X51679333Y-50848601D01*
X51686560Y-50824776D01*
X51689000Y-50800000D01*
X51689000Y-45518606D01*
X54434748Y-42772858D01*
X54626178Y-42658000D01*
X54758722Y-42658000D01*
X55050451Y-42599971D01*
X55325253Y-42486144D01*
X55572569Y-42320893D01*
X55735462Y-42158000D01*
X58826392Y-42158000D01*
X58876000Y-42162886D01*
X59073994Y-42143385D01*
X59264380Y-42085632D01*
X59439840Y-41991847D01*
X59552887Y-41899072D01*
X60038000Y-41899072D01*
X60211254Y-41882008D01*
X60377850Y-41831472D01*
X60531386Y-41749405D01*
X60665962Y-41638962D01*
X60776405Y-41504386D01*
X60858472Y-41350850D01*
X60909008Y-41184254D01*
X60926072Y-41011000D01*
X60926072Y-39761000D01*
X60909008Y-39587746D01*
X60858472Y-39421150D01*
X60776405Y-39267614D01*
X60665962Y-39133038D01*
X60531386Y-39022595D01*
X60377850Y-38940528D01*
X60211254Y-38889992D01*
X60038000Y-38872928D01*
X59357436Y-38872928D01*
X59447808Y-38623413D01*
X58492000Y-37667605D01*
X57536192Y-38623413D01*
X57631956Y-38887814D01*
X57921571Y-39028704D01*
X58233108Y-39110384D01*
X58554595Y-39129718D01*
X58626018Y-39119923D01*
X58610038Y-39133038D01*
X58499595Y-39267614D01*
X58417528Y-39421150D01*
X58366992Y-39587746D01*
X58349928Y-39761000D01*
X58349928Y-40138000D01*
X56109915Y-40138000D01*
X56512534Y-38124907D01*
X56515000Y-38100000D01*
X56515000Y-37550595D01*
X56850282Y-37550595D01*
X56894039Y-37869675D01*
X56999205Y-38174088D01*
X57092186Y-38348044D01*
X57356587Y-38443808D01*
X58312395Y-37488000D01*
X58671605Y-37488000D01*
X59627413Y-38443808D01*
X59891814Y-38348044D01*
X60032704Y-38058429D01*
X60114384Y-37746892D01*
X60133718Y-37425405D01*
X60089961Y-37106325D01*
X59984795Y-36801912D01*
X59891814Y-36627956D01*
X59627413Y-36532192D01*
X58671605Y-37488000D01*
X58312395Y-37488000D01*
X57356587Y-36532192D01*
X57092186Y-36627956D01*
X56951296Y-36917571D01*
X56869616Y-37229108D01*
X56850282Y-37550595D01*
X56515000Y-37550595D01*
X56515000Y-36830000D01*
X56512560Y-36805224D01*
X56505333Y-36781399D01*
X56493597Y-36759443D01*
X56477803Y-36740197D01*
X56458557Y-36724403D01*
X56436601Y-36712667D01*
X56412776Y-36705440D01*
X56388000Y-36703000D01*
X45751356Y-36703000D01*
X46101769Y-36352587D01*
X57536192Y-36352587D01*
X58492000Y-37308395D01*
X59447808Y-36352587D01*
X59352044Y-36088186D01*
X59062429Y-35947296D01*
X58750892Y-35865616D01*
X58429405Y-35846282D01*
X58110325Y-35890039D01*
X57805912Y-35995205D01*
X57631956Y-36088186D01*
X57536192Y-36352587D01*
X46101769Y-36352587D01*
X46399100Y-36055256D01*
X46437633Y-36023633D01*
X46563847Y-35869840D01*
X46657632Y-35694380D01*
X46715385Y-35503994D01*
X46722377Y-35433000D01*
X49530000Y-35433000D01*
X49554776Y-35430560D01*
X49574109Y-35425094D01*
X56410763Y-32893000D01*
X63978020Y-32893000D01*
X64459204Y-33133592D01*
X64482456Y-33142490D01*
X64516000Y-33147000D01*
X86868000Y-33147000D01*
X86892776Y-33144560D01*
X86916601Y-33137333D01*
X86938557Y-33125597D01*
X86957803Y-33109803D01*
X86973597Y-33090557D01*
X86985333Y-33068601D01*
X86992560Y-33044776D01*
X86995000Y-33020000D01*
X86995000Y-27686000D01*
X86992560Y-27661224D01*
X86985333Y-27637399D01*
X86973597Y-27615443D01*
X86957803Y-27596197D01*
X86938557Y-27580403D01*
X86916601Y-27568667D01*
X86892776Y-27561440D01*
X86868000Y-27559000D01*
X56388000Y-27559000D01*
X56363224Y-27561440D01*
X56344983Y-27566507D01*
X50015836Y-29845000D01*
X43688000Y-29845000D01*
X43663224Y-29847440D01*
X43639399Y-29854667D01*
X43617443Y-29866403D01*
X43605349Y-29875574D01*
X41827349Y-31399574D01*
X41810126Y-31417552D01*
X41796740Y-31438543D01*
X41785466Y-31471093D01*
X41551885Y-32639000D01*
X40417356Y-32639000D01*
X38936863Y-31158508D01*
X38940180Y-31157502D01*
X39050494Y-31098537D01*
X39147185Y-31019185D01*
X39226537Y-30922494D01*
X39285502Y-30812180D01*
X39321812Y-30692482D01*
X39334072Y-30568000D01*
X39334072Y-28868000D01*
X39321812Y-28743518D01*
X39285502Y-28623820D01*
X39226537Y-28513506D01*
X39147185Y-28416815D01*
X39092578Y-28372000D01*
X41931928Y-28372000D01*
X41944188Y-28496482D01*
X41980498Y-28616180D01*
X42039463Y-28726494D01*
X42118815Y-28823185D01*
X42215506Y-28902537D01*
X42325820Y-28961502D01*
X42445518Y-28997812D01*
X42570000Y-29010072D01*
X45434250Y-29007000D01*
X45593000Y-28848250D01*
X45593000Y-27161500D01*
X45847000Y-27161500D01*
X45847000Y-28848250D01*
X46005750Y-29007000D01*
X48870000Y-29010072D01*
X48994482Y-28997812D01*
X49114180Y-28961502D01*
X49224494Y-28902537D01*
X49321185Y-28823185D01*
X49400537Y-28726494D01*
X49459502Y-28616180D01*
X49495812Y-28496482D01*
X49508072Y-28372000D01*
X49505000Y-27320250D01*
X49346250Y-27161500D01*
X45847000Y-27161500D01*
X45593000Y-27161500D01*
X42093750Y-27161500D01*
X41935000Y-27320250D01*
X41931928Y-28372000D01*
X39092578Y-28372000D01*
X39050494Y-28337463D01*
X38940180Y-28278498D01*
X38859534Y-28254034D01*
X38943588Y-28178269D01*
X39117641Y-27944920D01*
X39242825Y-27682099D01*
X39287476Y-27534890D01*
X39166155Y-27305000D01*
X37973000Y-27305000D01*
X37973000Y-27325000D01*
X37719000Y-27325000D01*
X37719000Y-27305000D01*
X36525845Y-27305000D01*
X36404524Y-27534890D01*
X36449175Y-27682099D01*
X36574359Y-27944920D01*
X36748412Y-28178269D01*
X36832466Y-28254034D01*
X36751820Y-28278498D01*
X36641506Y-28337463D01*
X36544815Y-28416815D01*
X36465463Y-28513506D01*
X36406498Y-28623820D01*
X36370188Y-28743518D01*
X36357928Y-28868000D01*
X36357928Y-30568000D01*
X36370188Y-30692482D01*
X36406498Y-30812180D01*
X36465463Y-30922494D01*
X36544815Y-31019185D01*
X36641506Y-31098537D01*
X36751820Y-31157502D01*
X36836001Y-31183038D01*
X36836001Y-31446383D01*
X36831114Y-31496000D01*
X36850615Y-31693994D01*
X36908368Y-31884379D01*
X36962782Y-31986180D01*
X37002154Y-32059840D01*
X37128368Y-32213633D01*
X37166901Y-32245256D01*
X37560644Y-32639000D01*
X34950000Y-32639000D01*
X34950000Y-26821110D01*
X36404524Y-26821110D01*
X36525845Y-27051000D01*
X37719000Y-27051000D01*
X37719000Y-25857186D01*
X37973000Y-25857186D01*
X37973000Y-27051000D01*
X39166155Y-27051000D01*
X39287476Y-26821110D01*
X39242825Y-26673901D01*
X39117641Y-26411080D01*
X38943588Y-26177731D01*
X38727355Y-25982822D01*
X38477252Y-25833843D01*
X38202891Y-25736519D01*
X37973000Y-25857186D01*
X37719000Y-25857186D01*
X37489109Y-25736519D01*
X37214748Y-25833843D01*
X36964645Y-25982822D01*
X36748412Y-26177731D01*
X36574359Y-26411080D01*
X36449175Y-26673901D01*
X36404524Y-26821110D01*
X34950000Y-26821110D01*
X34950000Y-25298000D01*
X42075988Y-25298000D01*
X42039463Y-25342506D01*
G37*
%TD.AperFunction*%
%TD*%
M02*
