G04 #@! TF.GenerationSoftware,KiCad,Pcbnew,(5.1.9)-1*
G04 #@! TF.CreationDate,2021-03-08T10:33:43+01:00*
G04 #@! TF.ProjectId,FIGS,46494753-2e6b-4696-9361-645f70636258,1x*
G04 #@! TF.SameCoordinates,Original*
G04 #@! TF.FileFunction,Paste,Top*
G04 #@! TF.FilePolarity,Positive*
%FSLAX46Y46*%
G04 Gerber Fmt 4.6, Leading zero omitted, Abs format (unit mm)*
G04 Created by KiCad (PCBNEW (5.1.9)-1) date 2021-03-08 10:33:43*
%MOMM*%
%LPD*%
G01*
G04 APERTURE LIST*
%ADD10R,0.600000X1.500000*%
%ADD11R,1.500000X0.600000*%
%ADD12R,0.600000X1.250000*%
%ADD13R,1.250000X0.600000*%
G04 APERTURE END LIST*
G04 #@! TO.C,C8*
G36*
G01*
X64483000Y-44254000D02*
X63533000Y-44254000D01*
G75*
G02*
X63283000Y-44004000I0J250000D01*
G01*
X63283000Y-43329000D01*
G75*
G02*
X63533000Y-43079000I250000J0D01*
G01*
X64483000Y-43079000D01*
G75*
G02*
X64733000Y-43329000I0J-250000D01*
G01*
X64733000Y-44004000D01*
G75*
G02*
X64483000Y-44254000I-250000J0D01*
G01*
G37*
G36*
G01*
X64483000Y-46329000D02*
X63533000Y-46329000D01*
G75*
G02*
X63283000Y-46079000I0J250000D01*
G01*
X63283000Y-45404000D01*
G75*
G02*
X63533000Y-45154000I250000J0D01*
G01*
X64483000Y-45154000D01*
G75*
G02*
X64733000Y-45404000I0J-250000D01*
G01*
X64733000Y-46079000D01*
G75*
G02*
X64483000Y-46329000I-250000J0D01*
G01*
G37*
G04 #@! TD*
D10*
G04 #@! TO.C,IC1*
X51372000Y-44796000D03*
X52172000Y-44796000D03*
X52972000Y-44796000D03*
X53772000Y-44796000D03*
X54572000Y-44796000D03*
X55372000Y-44796000D03*
X56172000Y-44796000D03*
X56972000Y-44796000D03*
X57772000Y-44796000D03*
X58572000Y-44796000D03*
X59372000Y-44796000D03*
D11*
X61122000Y-46546000D03*
X61122000Y-47346000D03*
X61122000Y-48146000D03*
X61122000Y-48946000D03*
X61122000Y-49746000D03*
X61122000Y-50546000D03*
X61122000Y-51346000D03*
X61122000Y-52146000D03*
X61122000Y-52946000D03*
X61122000Y-53746000D03*
X61122000Y-54546000D03*
D10*
X59372000Y-56296000D03*
X58572000Y-56296000D03*
X57772000Y-56296000D03*
X56972000Y-56296000D03*
X56172000Y-56296000D03*
X55372000Y-56296000D03*
X54572000Y-56296000D03*
X53772000Y-56296000D03*
X52972000Y-56296000D03*
X52172000Y-56296000D03*
X51372000Y-56296000D03*
D11*
X49622000Y-54546000D03*
X49622000Y-53746000D03*
X49622000Y-52946000D03*
X49622000Y-52146000D03*
X49622000Y-51346000D03*
X49622000Y-50546000D03*
X49622000Y-49746000D03*
X49622000Y-48946000D03*
X49622000Y-48146000D03*
X49622000Y-47346000D03*
X49622000Y-46546000D03*
G04 #@! TD*
D12*
G04 #@! TO.C,Q5*
X45212000Y-65752000D03*
X46167000Y-67852000D03*
X44257000Y-67852000D03*
G04 #@! TD*
G04 #@! TO.C,Q4*
X71508000Y-43688000D03*
X72463000Y-45788000D03*
X70553000Y-45788000D03*
G04 #@! TD*
D13*
G04 #@! TO.C,Q3*
X68450000Y-34000000D03*
X70550000Y-33045000D03*
X70550000Y-34955000D03*
G04 #@! TD*
D12*
G04 #@! TO.C,Q2*
X71508000Y-53958000D03*
X72463000Y-56058000D03*
X70553000Y-56058000D03*
G04 #@! TD*
D13*
G04 #@! TO.C,Q1*
X78450000Y-34000000D03*
X80550000Y-33045000D03*
X80550000Y-34955000D03*
G04 #@! TD*
G04 #@! TO.C,C9*
G36*
G01*
X49842000Y-41943000D02*
X49842000Y-42893000D01*
G75*
G02*
X49592000Y-43143000I-250000J0D01*
G01*
X48917000Y-43143000D01*
G75*
G02*
X48667000Y-42893000I0J250000D01*
G01*
X48667000Y-41943000D01*
G75*
G02*
X48917000Y-41693000I250000J0D01*
G01*
X49592000Y-41693000D01*
G75*
G02*
X49842000Y-41943000I0J-250000D01*
G01*
G37*
G36*
G01*
X51917000Y-41943000D02*
X51917000Y-42893000D01*
G75*
G02*
X51667000Y-43143000I-250000J0D01*
G01*
X50992000Y-43143000D01*
G75*
G02*
X50742000Y-42893000I0J250000D01*
G01*
X50742000Y-41943000D01*
G75*
G02*
X50992000Y-41693000I250000J0D01*
G01*
X51667000Y-41693000D01*
G75*
G02*
X51917000Y-41943000I0J-250000D01*
G01*
G37*
G04 #@! TD*
G04 #@! TO.C,R28*
G36*
G01*
X44820000Y-69732999D02*
X44820000Y-70983001D01*
G75*
G02*
X44570001Y-71233000I-249999J0D01*
G01*
X43769999Y-71233000D01*
G75*
G02*
X43520000Y-70983001I0J249999D01*
G01*
X43520000Y-69732999D01*
G75*
G02*
X43769999Y-69483000I249999J0D01*
G01*
X44570001Y-69483000D01*
G75*
G02*
X44820000Y-69732999I0J-249999D01*
G01*
G37*
G36*
G01*
X47920000Y-69732999D02*
X47920000Y-70983001D01*
G75*
G02*
X47670001Y-71233000I-249999J0D01*
G01*
X46869999Y-71233000D01*
G75*
G02*
X46620000Y-70983001I0J249999D01*
G01*
X46620000Y-69732999D01*
G75*
G02*
X46869999Y-69483000I249999J0D01*
G01*
X47670001Y-69483000D01*
G75*
G02*
X47920000Y-69732999I0J-249999D01*
G01*
G37*
G04 #@! TD*
G04 #@! TO.C,R27*
G36*
G01*
X74306000Y-41863001D02*
X74306000Y-40612999D01*
G75*
G02*
X74555999Y-40363000I249999J0D01*
G01*
X75356001Y-40363000D01*
G75*
G02*
X75606000Y-40612999I0J-249999D01*
G01*
X75606000Y-41863001D01*
G75*
G02*
X75356001Y-42113000I-249999J0D01*
G01*
X74555999Y-42113000D01*
G75*
G02*
X74306000Y-41863001I0J249999D01*
G01*
G37*
G36*
G01*
X71206000Y-41863001D02*
X71206000Y-40612999D01*
G75*
G02*
X71455999Y-40363000I249999J0D01*
G01*
X72256001Y-40363000D01*
G75*
G02*
X72506000Y-40612999I0J-249999D01*
G01*
X72506000Y-41863001D01*
G75*
G02*
X72256001Y-42113000I-249999J0D01*
G01*
X71455999Y-42113000D01*
G75*
G02*
X71206000Y-41863001I0J249999D01*
G01*
G37*
G04 #@! TD*
G04 #@! TO.C,R25*
G36*
G01*
X68188000Y-36966999D02*
X68188000Y-38217001D01*
G75*
G02*
X67938001Y-38467000I-249999J0D01*
G01*
X67137999Y-38467000D01*
G75*
G02*
X66888000Y-38217001I0J249999D01*
G01*
X66888000Y-36966999D01*
G75*
G02*
X67137999Y-36717000I249999J0D01*
G01*
X67938001Y-36717000D01*
G75*
G02*
X68188000Y-36966999I0J-249999D01*
G01*
G37*
G36*
G01*
X71288000Y-36966999D02*
X71288000Y-38217001D01*
G75*
G02*
X71038001Y-38467000I-249999J0D01*
G01*
X70237999Y-38467000D01*
G75*
G02*
X69988000Y-38217001I0J249999D01*
G01*
X69988000Y-36966999D01*
G75*
G02*
X70237999Y-36717000I249999J0D01*
G01*
X71038001Y-36717000D01*
G75*
G02*
X71288000Y-36966999I0J-249999D01*
G01*
G37*
G04 #@! TD*
G04 #@! TO.C,R23*
G36*
G01*
X69712000Y-47634999D02*
X69712000Y-48885001D01*
G75*
G02*
X69462001Y-49135000I-249999J0D01*
G01*
X68661999Y-49135000D01*
G75*
G02*
X68412000Y-48885001I0J249999D01*
G01*
X68412000Y-47634999D01*
G75*
G02*
X68661999Y-47385000I249999J0D01*
G01*
X69462001Y-47385000D01*
G75*
G02*
X69712000Y-47634999I0J-249999D01*
G01*
G37*
G36*
G01*
X72812000Y-47634999D02*
X72812000Y-48885001D01*
G75*
G02*
X72562001Y-49135000I-249999J0D01*
G01*
X71761999Y-49135000D01*
G75*
G02*
X71512000Y-48885001I0J249999D01*
G01*
X71512000Y-47634999D01*
G75*
G02*
X71761999Y-47385000I249999J0D01*
G01*
X72562001Y-47385000D01*
G75*
G02*
X72812000Y-47634999I0J-249999D01*
G01*
G37*
G04 #@! TD*
G04 #@! TO.C,R22*
G36*
G01*
X72374999Y-35900000D02*
X73625001Y-35900000D01*
G75*
G02*
X73875000Y-36149999I0J-249999D01*
G01*
X73875000Y-36950001D01*
G75*
G02*
X73625001Y-37200000I-249999J0D01*
G01*
X72374999Y-37200000D01*
G75*
G02*
X72125000Y-36950001I0J249999D01*
G01*
X72125000Y-36149999D01*
G75*
G02*
X72374999Y-35900000I249999J0D01*
G01*
G37*
G36*
G01*
X72374999Y-32800000D02*
X73625001Y-32800000D01*
G75*
G02*
X73875000Y-33049999I0J-249999D01*
G01*
X73875000Y-33850001D01*
G75*
G02*
X73625001Y-34100000I-249999J0D01*
G01*
X72374999Y-34100000D01*
G75*
G02*
X72125000Y-33850001I0J249999D01*
G01*
X72125000Y-33049999D01*
G75*
G02*
X72374999Y-32800000I249999J0D01*
G01*
G37*
G04 #@! TD*
G04 #@! TO.C,R21*
G36*
G01*
X70908000Y-52133001D02*
X70908000Y-50882999D01*
G75*
G02*
X71157999Y-50633000I249999J0D01*
G01*
X71958001Y-50633000D01*
G75*
G02*
X72208000Y-50882999I0J-249999D01*
G01*
X72208000Y-52133001D01*
G75*
G02*
X71958001Y-52383000I-249999J0D01*
G01*
X71157999Y-52383000D01*
G75*
G02*
X70908000Y-52133001I0J249999D01*
G01*
G37*
G36*
G01*
X67808000Y-52133001D02*
X67808000Y-50882999D01*
G75*
G02*
X68057999Y-50633000I249999J0D01*
G01*
X68858001Y-50633000D01*
G75*
G02*
X69108000Y-50882999I0J-249999D01*
G01*
X69108000Y-52133001D01*
G75*
G02*
X68858001Y-52383000I-249999J0D01*
G01*
X68057999Y-52383000D01*
G75*
G02*
X67808000Y-52133001I0J249999D01*
G01*
G37*
G04 #@! TD*
G04 #@! TO.C,R19*
G36*
G01*
X76625001Y-34600000D02*
X75374999Y-34600000D01*
G75*
G02*
X75125000Y-34350001I0J249999D01*
G01*
X75125000Y-33549999D01*
G75*
G02*
X75374999Y-33300000I249999J0D01*
G01*
X76625001Y-33300000D01*
G75*
G02*
X76875000Y-33549999I0J-249999D01*
G01*
X76875000Y-34350001D01*
G75*
G02*
X76625001Y-34600000I-249999J0D01*
G01*
G37*
G36*
G01*
X76625001Y-37700000D02*
X75374999Y-37700000D01*
G75*
G02*
X75125000Y-37450001I0J249999D01*
G01*
X75125000Y-36649999D01*
G75*
G02*
X75374999Y-36400000I249999J0D01*
G01*
X76625001Y-36400000D01*
G75*
G02*
X76875000Y-36649999I0J-249999D01*
G01*
X76875000Y-37450001D01*
G75*
G02*
X76625001Y-37700000I-249999J0D01*
G01*
G37*
G04 #@! TD*
G04 #@! TO.C,R17*
G36*
G01*
X69712000Y-58048999D02*
X69712000Y-59299001D01*
G75*
G02*
X69462001Y-59549000I-249999J0D01*
G01*
X68661999Y-59549000D01*
G75*
G02*
X68412000Y-59299001I0J249999D01*
G01*
X68412000Y-58048999D01*
G75*
G02*
X68661999Y-57799000I249999J0D01*
G01*
X69462001Y-57799000D01*
G75*
G02*
X69712000Y-58048999I0J-249999D01*
G01*
G37*
G36*
G01*
X72812000Y-58048999D02*
X72812000Y-59299001D01*
G75*
G02*
X72562001Y-59549000I-249999J0D01*
G01*
X71761999Y-59549000D01*
G75*
G02*
X71512000Y-59299001I0J249999D01*
G01*
X71512000Y-58048999D01*
G75*
G02*
X71761999Y-57799000I249999J0D01*
G01*
X72562001Y-57799000D01*
G75*
G02*
X72812000Y-58048999I0J-249999D01*
G01*
G37*
G04 #@! TD*
G04 #@! TO.C,R16*
G36*
G01*
X82432999Y-35190000D02*
X83683001Y-35190000D01*
G75*
G02*
X83933000Y-35439999I0J-249999D01*
G01*
X83933000Y-36240001D01*
G75*
G02*
X83683001Y-36490000I-249999J0D01*
G01*
X82432999Y-36490000D01*
G75*
G02*
X82183000Y-36240001I0J249999D01*
G01*
X82183000Y-35439999D01*
G75*
G02*
X82432999Y-35190000I249999J0D01*
G01*
G37*
G36*
G01*
X82432999Y-32090000D02*
X83683001Y-32090000D01*
G75*
G02*
X83933000Y-32339999I0J-249999D01*
G01*
X83933000Y-33140001D01*
G75*
G02*
X83683001Y-33390000I-249999J0D01*
G01*
X82432999Y-33390000D01*
G75*
G02*
X82183000Y-33140001I0J249999D01*
G01*
X82183000Y-32339999D01*
G75*
G02*
X82432999Y-32090000I249999J0D01*
G01*
G37*
G04 #@! TD*
G04 #@! TO.C,R15*
G36*
G01*
X61330000Y-77374999D02*
X61330000Y-78625001D01*
G75*
G02*
X61080001Y-78875000I-249999J0D01*
G01*
X60279999Y-78875000D01*
G75*
G02*
X60030000Y-78625001I0J249999D01*
G01*
X60030000Y-77374999D01*
G75*
G02*
X60279999Y-77125000I249999J0D01*
G01*
X61080001Y-77125000D01*
G75*
G02*
X61330000Y-77374999I0J-249999D01*
G01*
G37*
G36*
G01*
X64430000Y-77374999D02*
X64430000Y-78625001D01*
G75*
G02*
X64180001Y-78875000I-249999J0D01*
G01*
X63379999Y-78875000D01*
G75*
G02*
X63130000Y-78625001I0J249999D01*
G01*
X63130000Y-77374999D01*
G75*
G02*
X63379999Y-77125000I249999J0D01*
G01*
X64180001Y-77125000D01*
G75*
G02*
X64430000Y-77374999I0J-249999D01*
G01*
G37*
G04 #@! TD*
G04 #@! TO.C,R13*
G36*
G01*
X67173001Y-63870000D02*
X65922999Y-63870000D01*
G75*
G02*
X65673000Y-63620001I0J249999D01*
G01*
X65673000Y-62819999D01*
G75*
G02*
X65922999Y-62570000I249999J0D01*
G01*
X67173001Y-62570000D01*
G75*
G02*
X67423000Y-62819999I0J-249999D01*
G01*
X67423000Y-63620001D01*
G75*
G02*
X67173001Y-63870000I-249999J0D01*
G01*
G37*
G36*
G01*
X67173001Y-66970000D02*
X65922999Y-66970000D01*
G75*
G02*
X65673000Y-66720001I0J249999D01*
G01*
X65673000Y-65919999D01*
G75*
G02*
X65922999Y-65670000I249999J0D01*
G01*
X67173001Y-65670000D01*
G75*
G02*
X67423000Y-65919999I0J-249999D01*
G01*
X67423000Y-66720001D01*
G75*
G02*
X67173001Y-66970000I-249999J0D01*
G01*
G37*
G04 #@! TD*
G04 #@! TO.C,R12*
G36*
G01*
X64632000Y-58048999D02*
X64632000Y-59299001D01*
G75*
G02*
X64382001Y-59549000I-249999J0D01*
G01*
X63581999Y-59549000D01*
G75*
G02*
X63332000Y-59299001I0J249999D01*
G01*
X63332000Y-58048999D01*
G75*
G02*
X63581999Y-57799000I249999J0D01*
G01*
X64382001Y-57799000D01*
G75*
G02*
X64632000Y-58048999I0J-249999D01*
G01*
G37*
G36*
G01*
X67732000Y-58048999D02*
X67732000Y-59299001D01*
G75*
G02*
X67482001Y-59549000I-249999J0D01*
G01*
X66681999Y-59549000D01*
G75*
G02*
X66432000Y-59299001I0J249999D01*
G01*
X66432000Y-58048999D01*
G75*
G02*
X66681999Y-57799000I249999J0D01*
G01*
X67482001Y-57799000D01*
G75*
G02*
X67732000Y-58048999I0J-249999D01*
G01*
G37*
G04 #@! TD*
G04 #@! TO.C,C10*
G36*
G01*
X61689000Y-58224000D02*
X60739000Y-58224000D01*
G75*
G02*
X60489000Y-57974000I0J250000D01*
G01*
X60489000Y-57299000D01*
G75*
G02*
X60739000Y-57049000I250000J0D01*
G01*
X61689000Y-57049000D01*
G75*
G02*
X61939000Y-57299000I0J-250000D01*
G01*
X61939000Y-57974000D01*
G75*
G02*
X61689000Y-58224000I-250000J0D01*
G01*
G37*
G36*
G01*
X61689000Y-60299000D02*
X60739000Y-60299000D01*
G75*
G02*
X60489000Y-60049000I0J250000D01*
G01*
X60489000Y-59374000D01*
G75*
G02*
X60739000Y-59124000I250000J0D01*
G01*
X61689000Y-59124000D01*
G75*
G02*
X61939000Y-59374000I0J-250000D01*
G01*
X61939000Y-60049000D01*
G75*
G02*
X61689000Y-60299000I-250000J0D01*
G01*
G37*
G04 #@! TD*
M02*
