G04 #@! TF.GenerationSoftware,KiCad,Pcbnew,(5.1.9)-1*
G04 #@! TF.CreationDate,2021-03-08T10:33:43+01:00*
G04 #@! TF.ProjectId,FIGS,46494753-2e6b-4696-9361-645f70636258,1x*
G04 #@! TF.SameCoordinates,Original*
G04 #@! TF.FileFunction,Paste,Bot*
G04 #@! TF.FilePolarity,Positive*
%FSLAX46Y46*%
G04 Gerber Fmt 4.6, Leading zero omitted, Abs format (unit mm)*
G04 Created by KiCad (PCBNEW (5.1.9)-1) date 2021-03-08 10:33:43*
%MOMM*%
%LPD*%
G01*
G04 APERTURE LIST*
%ADD10R,3.200001X1.750000*%
%ADD11R,0.950000X1.750000*%
%ADD12R,1.500000X2.200000*%
G04 APERTURE END LIST*
G04 #@! TO.C,R2*
G36*
G01*
X59915000Y-60350000D02*
X61165000Y-60350000D01*
G75*
G02*
X61415000Y-60600000I0J-250000D01*
G01*
X61415000Y-61400000D01*
G75*
G02*
X61165000Y-61650000I-250000J0D01*
G01*
X59915000Y-61650000D01*
G75*
G02*
X59665000Y-61400000I0J250000D01*
G01*
X59665000Y-60600000D01*
G75*
G02*
X59915000Y-60350000I250000J0D01*
G01*
G37*
G36*
G01*
X59915000Y-57250000D02*
X61165000Y-57250000D01*
G75*
G02*
X61415000Y-57500000I0J-250000D01*
G01*
X61415000Y-58300000D01*
G75*
G02*
X61165000Y-58550000I-250000J0D01*
G01*
X59915000Y-58550000D01*
G75*
G02*
X59665000Y-58300000I0J250000D01*
G01*
X59665000Y-57500000D01*
G75*
G02*
X59915000Y-57250000I250000J0D01*
G01*
G37*
G04 #@! TD*
G04 #@! TO.C,R1*
G36*
G01*
X63205000Y-60350000D02*
X64455000Y-60350000D01*
G75*
G02*
X64705000Y-60600000I0J-250000D01*
G01*
X64705000Y-61400000D01*
G75*
G02*
X64455000Y-61650000I-250000J0D01*
G01*
X63205000Y-61650000D01*
G75*
G02*
X62955000Y-61400000I0J250000D01*
G01*
X62955000Y-60600000D01*
G75*
G02*
X63205000Y-60350000I250000J0D01*
G01*
G37*
G36*
G01*
X63205000Y-57250000D02*
X64455000Y-57250000D01*
G75*
G02*
X64705000Y-57500000I0J-250000D01*
G01*
X64705000Y-58300000D01*
G75*
G02*
X64455000Y-58550000I-250000J0D01*
G01*
X63205000Y-58550000D01*
G75*
G02*
X62955000Y-58300000I0J250000D01*
G01*
X62955000Y-57500000D01*
G75*
G02*
X63205000Y-57250000I250000J0D01*
G01*
G37*
G04 #@! TD*
G04 #@! TO.C,C11*
G36*
G01*
X47776000Y-73429999D02*
X47776000Y-76430001D01*
G75*
G02*
X47526001Y-76680000I-249999J0D01*
G01*
X45300999Y-76680000D01*
G75*
G02*
X45051000Y-76430001I0J249999D01*
G01*
X45051000Y-73429999D01*
G75*
G02*
X45300999Y-73180000I249999J0D01*
G01*
X47526001Y-73180000D01*
G75*
G02*
X47776000Y-73429999I0J-249999D01*
G01*
G37*
G36*
G01*
X53501000Y-73429999D02*
X53501000Y-76430001D01*
G75*
G02*
X53251001Y-76680000I-249999J0D01*
G01*
X51025999Y-76680000D01*
G75*
G02*
X50776000Y-76430001I0J249999D01*
G01*
X50776000Y-73429999D01*
G75*
G02*
X51025999Y-73180000I249999J0D01*
G01*
X53251001Y-73180000D01*
G75*
G02*
X53501000Y-73429999I0J-249999D01*
G01*
G37*
G04 #@! TD*
G04 #@! TO.C,C4*
G36*
G01*
X45188001Y-83336000D02*
X42187999Y-83336000D01*
G75*
G02*
X41938000Y-83086001I0J249999D01*
G01*
X41938000Y-80860999D01*
G75*
G02*
X42187999Y-80611000I249999J0D01*
G01*
X45188001Y-80611000D01*
G75*
G02*
X45438000Y-80860999I0J-249999D01*
G01*
X45438000Y-83086001D01*
G75*
G02*
X45188001Y-83336000I-249999J0D01*
G01*
G37*
G36*
G01*
X45188001Y-89061000D02*
X42187999Y-89061000D01*
G75*
G02*
X41938000Y-88811001I0J249999D01*
G01*
X41938000Y-86585999D01*
G75*
G02*
X42187999Y-86336000I249999J0D01*
G01*
X45188001Y-86336000D01*
G75*
G02*
X45438000Y-86585999I0J-249999D01*
G01*
X45438000Y-88811001D01*
G75*
G02*
X45188001Y-89061000I-249999J0D01*
G01*
G37*
G04 #@! TD*
D10*
G04 #@! TO.C,U1*
X52070000Y-78994000D03*
D11*
X49770000Y-85294000D03*
X52070000Y-85294000D03*
X54370000Y-85294000D03*
G04 #@! TD*
G04 #@! TO.C,R26*
G36*
G01*
X79625001Y-44600000D02*
X78374999Y-44600000D01*
G75*
G02*
X78125000Y-44350001I0J249999D01*
G01*
X78125000Y-43549999D01*
G75*
G02*
X78374999Y-43300000I249999J0D01*
G01*
X79625001Y-43300000D01*
G75*
G02*
X79875000Y-43549999I0J-249999D01*
G01*
X79875000Y-44350001D01*
G75*
G02*
X79625001Y-44600000I-249999J0D01*
G01*
G37*
G36*
G01*
X79625001Y-47700000D02*
X78374999Y-47700000D01*
G75*
G02*
X78125000Y-47450001I0J249999D01*
G01*
X78125000Y-46649999D01*
G75*
G02*
X78374999Y-46400000I249999J0D01*
G01*
X79625001Y-46400000D01*
G75*
G02*
X79875000Y-46649999I0J-249999D01*
G01*
X79875000Y-47450001D01*
G75*
G02*
X79625001Y-47700000I-249999J0D01*
G01*
G37*
G04 #@! TD*
G04 #@! TO.C,R24*
G36*
G01*
X69100000Y-25374999D02*
X69100000Y-26625001D01*
G75*
G02*
X68850001Y-26875000I-249999J0D01*
G01*
X68049999Y-26875000D01*
G75*
G02*
X67800000Y-26625001I0J249999D01*
G01*
X67800000Y-25374999D01*
G75*
G02*
X68049999Y-25125000I249999J0D01*
G01*
X68850001Y-25125000D01*
G75*
G02*
X69100000Y-25374999I0J-249999D01*
G01*
G37*
G36*
G01*
X72200000Y-25374999D02*
X72200000Y-26625001D01*
G75*
G02*
X71950001Y-26875000I-249999J0D01*
G01*
X71149999Y-26875000D01*
G75*
G02*
X70900000Y-26625001I0J249999D01*
G01*
X70900000Y-25374999D01*
G75*
G02*
X71149999Y-25125000I249999J0D01*
G01*
X71950001Y-25125000D01*
G75*
G02*
X72200000Y-25374999I0J-249999D01*
G01*
G37*
G04 #@! TD*
G04 #@! TO.C,R20*
G36*
G01*
X79625001Y-53600000D02*
X78374999Y-53600000D01*
G75*
G02*
X78125000Y-53350001I0J249999D01*
G01*
X78125000Y-52549999D01*
G75*
G02*
X78374999Y-52300000I249999J0D01*
G01*
X79625001Y-52300000D01*
G75*
G02*
X79875000Y-52549999I0J-249999D01*
G01*
X79875000Y-53350001D01*
G75*
G02*
X79625001Y-53600000I-249999J0D01*
G01*
G37*
G36*
G01*
X79625001Y-56700000D02*
X78374999Y-56700000D01*
G75*
G02*
X78125000Y-56450001I0J249999D01*
G01*
X78125000Y-55649999D01*
G75*
G02*
X78374999Y-55400000I249999J0D01*
G01*
X79625001Y-55400000D01*
G75*
G02*
X79875000Y-55649999I0J-249999D01*
G01*
X79875000Y-56450001D01*
G75*
G02*
X79625001Y-56700000I-249999J0D01*
G01*
G37*
G04 #@! TD*
G04 #@! TO.C,R18*
G36*
G01*
X78100000Y-25374999D02*
X78100000Y-26625001D01*
G75*
G02*
X77850001Y-26875000I-249999J0D01*
G01*
X77049999Y-26875000D01*
G75*
G02*
X76800000Y-26625001I0J249999D01*
G01*
X76800000Y-25374999D01*
G75*
G02*
X77049999Y-25125000I249999J0D01*
G01*
X77850001Y-25125000D01*
G75*
G02*
X78100000Y-25374999I0J-249999D01*
G01*
G37*
G36*
G01*
X81200000Y-25374999D02*
X81200000Y-26625001D01*
G75*
G02*
X80950001Y-26875000I-249999J0D01*
G01*
X80149999Y-26875000D01*
G75*
G02*
X79900000Y-26625001I0J249999D01*
G01*
X79900000Y-25374999D01*
G75*
G02*
X80149999Y-25125000I249999J0D01*
G01*
X80950001Y-25125000D01*
G75*
G02*
X81200000Y-25374999I0J-249999D01*
G01*
G37*
G04 #@! TD*
G04 #@! TO.C,R14*
G36*
G01*
X37476000Y-60823001D02*
X37476000Y-59572999D01*
G75*
G02*
X37725999Y-59323000I249999J0D01*
G01*
X38526001Y-59323000D01*
G75*
G02*
X38776000Y-59572999I0J-249999D01*
G01*
X38776000Y-60823001D01*
G75*
G02*
X38526001Y-61073000I-249999J0D01*
G01*
X37725999Y-61073000D01*
G75*
G02*
X37476000Y-60823001I0J249999D01*
G01*
G37*
G36*
G01*
X34376000Y-60823001D02*
X34376000Y-59572999D01*
G75*
G02*
X34625999Y-59323000I249999J0D01*
G01*
X35426001Y-59323000D01*
G75*
G02*
X35676000Y-59572999I0J-249999D01*
G01*
X35676000Y-60823001D01*
G75*
G02*
X35426001Y-61073000I-249999J0D01*
G01*
X34625999Y-61073000D01*
G75*
G02*
X34376000Y-60823001I0J249999D01*
G01*
G37*
G04 #@! TD*
G04 #@! TO.C,R11*
G36*
G01*
X37450000Y-58283001D02*
X37450000Y-57032999D01*
G75*
G02*
X37699999Y-56783000I249999J0D01*
G01*
X38500001Y-56783000D01*
G75*
G02*
X38750000Y-57032999I0J-249999D01*
G01*
X38750000Y-58283001D01*
G75*
G02*
X38500001Y-58533000I-249999J0D01*
G01*
X37699999Y-58533000D01*
G75*
G02*
X37450000Y-58283001I0J249999D01*
G01*
G37*
G36*
G01*
X34350000Y-58283001D02*
X34350000Y-57032999D01*
G75*
G02*
X34599999Y-56783000I249999J0D01*
G01*
X35400001Y-56783000D01*
G75*
G02*
X35650000Y-57032999I0J-249999D01*
G01*
X35650000Y-58283001D01*
G75*
G02*
X35400001Y-58533000I-249999J0D01*
G01*
X34599999Y-58533000D01*
G75*
G02*
X34350000Y-58283001I0J249999D01*
G01*
G37*
G04 #@! TD*
D12*
G04 #@! TO.C,D7*
X38354000Y-66876000D03*
X38354000Y-69776000D03*
G04 #@! TD*
G04 #@! TO.C,C7*
G36*
G01*
X47719000Y-82608000D02*
X46769000Y-82608000D01*
G75*
G02*
X46519000Y-82358000I0J250000D01*
G01*
X46519000Y-81683000D01*
G75*
G02*
X46769000Y-81433000I250000J0D01*
G01*
X47719000Y-81433000D01*
G75*
G02*
X47969000Y-81683000I0J-250000D01*
G01*
X47969000Y-82358000D01*
G75*
G02*
X47719000Y-82608000I-250000J0D01*
G01*
G37*
G36*
G01*
X47719000Y-84683000D02*
X46769000Y-84683000D01*
G75*
G02*
X46519000Y-84433000I0J250000D01*
G01*
X46519000Y-83758000D01*
G75*
G02*
X46769000Y-83508000I250000J0D01*
G01*
X47719000Y-83508000D01*
G75*
G02*
X47969000Y-83758000I0J-250000D01*
G01*
X47969000Y-84433000D01*
G75*
G02*
X47719000Y-84683000I-250000J0D01*
G01*
G37*
G04 #@! TD*
G04 #@! TO.C,C6*
G36*
G01*
X61664000Y-50005000D02*
X61664000Y-49055000D01*
G75*
G02*
X61914000Y-48805000I250000J0D01*
G01*
X62589000Y-48805000D01*
G75*
G02*
X62839000Y-49055000I0J-250000D01*
G01*
X62839000Y-50005000D01*
G75*
G02*
X62589000Y-50255000I-250000J0D01*
G01*
X61914000Y-50255000D01*
G75*
G02*
X61664000Y-50005000I0J250000D01*
G01*
G37*
G36*
G01*
X59589000Y-50005000D02*
X59589000Y-49055000D01*
G75*
G02*
X59839000Y-48805000I250000J0D01*
G01*
X60514000Y-48805000D01*
G75*
G02*
X60764000Y-49055000I0J-250000D01*
G01*
X60764000Y-50005000D01*
G75*
G02*
X60514000Y-50255000I-250000J0D01*
G01*
X59839000Y-50255000D01*
G75*
G02*
X59589000Y-50005000I0J250000D01*
G01*
G37*
G04 #@! TD*
G04 #@! TO.C,C5*
G36*
G01*
X56954000Y-49055000D02*
X56954000Y-50005000D01*
G75*
G02*
X56704000Y-50255000I-250000J0D01*
G01*
X56029000Y-50255000D01*
G75*
G02*
X55779000Y-50005000I0J250000D01*
G01*
X55779000Y-49055000D01*
G75*
G02*
X56029000Y-48805000I250000J0D01*
G01*
X56704000Y-48805000D01*
G75*
G02*
X56954000Y-49055000I0J-250000D01*
G01*
G37*
G36*
G01*
X59029000Y-49055000D02*
X59029000Y-50005000D01*
G75*
G02*
X58779000Y-50255000I-250000J0D01*
G01*
X58104000Y-50255000D01*
G75*
G02*
X57854000Y-50005000I0J250000D01*
G01*
X57854000Y-49055000D01*
G75*
G02*
X58104000Y-48805000I250000J0D01*
G01*
X58779000Y-48805000D01*
G75*
G02*
X59029000Y-49055000I0J-250000D01*
G01*
G37*
G04 #@! TD*
G04 #@! TO.C,C3*
G36*
G01*
X61664000Y-47973000D02*
X61664000Y-47023000D01*
G75*
G02*
X61914000Y-46773000I250000J0D01*
G01*
X62589000Y-46773000D01*
G75*
G02*
X62839000Y-47023000I0J-250000D01*
G01*
X62839000Y-47973000D01*
G75*
G02*
X62589000Y-48223000I-250000J0D01*
G01*
X61914000Y-48223000D01*
G75*
G02*
X61664000Y-47973000I0J250000D01*
G01*
G37*
G36*
G01*
X59589000Y-47973000D02*
X59589000Y-47023000D01*
G75*
G02*
X59839000Y-46773000I250000J0D01*
G01*
X60514000Y-46773000D01*
G75*
G02*
X60764000Y-47023000I0J-250000D01*
G01*
X60764000Y-47973000D01*
G75*
G02*
X60514000Y-48223000I-250000J0D01*
G01*
X59839000Y-48223000D01*
G75*
G02*
X59589000Y-47973000I0J250000D01*
G01*
G37*
G04 #@! TD*
G04 #@! TO.C,C2*
G36*
G01*
X56954000Y-47023000D02*
X56954000Y-47973000D01*
G75*
G02*
X56704000Y-48223000I-250000J0D01*
G01*
X56029000Y-48223000D01*
G75*
G02*
X55779000Y-47973000I0J250000D01*
G01*
X55779000Y-47023000D01*
G75*
G02*
X56029000Y-46773000I250000J0D01*
G01*
X56704000Y-46773000D01*
G75*
G02*
X56954000Y-47023000I0J-250000D01*
G01*
G37*
G36*
G01*
X59029000Y-47023000D02*
X59029000Y-47973000D01*
G75*
G02*
X58779000Y-48223000I-250000J0D01*
G01*
X58104000Y-48223000D01*
G75*
G02*
X57854000Y-47973000I0J250000D01*
G01*
X57854000Y-47023000D01*
G75*
G02*
X58104000Y-46773000I250000J0D01*
G01*
X58779000Y-46773000D01*
G75*
G02*
X59029000Y-47023000I0J-250000D01*
G01*
G37*
G04 #@! TD*
G04 #@! TO.C,C1*
G36*
G01*
X56954000Y-53627000D02*
X56954000Y-54577000D01*
G75*
G02*
X56704000Y-54827000I-250000J0D01*
G01*
X56029000Y-54827000D01*
G75*
G02*
X55779000Y-54577000I0J250000D01*
G01*
X55779000Y-53627000D01*
G75*
G02*
X56029000Y-53377000I250000J0D01*
G01*
X56704000Y-53377000D01*
G75*
G02*
X56954000Y-53627000I0J-250000D01*
G01*
G37*
G36*
G01*
X59029000Y-53627000D02*
X59029000Y-54577000D01*
G75*
G02*
X58779000Y-54827000I-250000J0D01*
G01*
X58104000Y-54827000D01*
G75*
G02*
X57854000Y-54577000I0J250000D01*
G01*
X57854000Y-53627000D01*
G75*
G02*
X58104000Y-53377000I250000J0D01*
G01*
X58779000Y-53377000D01*
G75*
G02*
X59029000Y-53627000I0J-250000D01*
G01*
G37*
G04 #@! TD*
M02*
